<svg width="21" height="21" viewBox="0 0 21 21" fill="none" xmlns="http://www.w3.org/2000/svg">
<path d="M10.4811 6.98776C8.556 6.98776 6.98501 8.55878 6.98501 10.4839C6.98501 12.409 8.556 13.98 10.4811 13.98C12.4061 13.98 13.9771 12.409 13.9771 10.4839C13.9771 8.55878 12.4061 6.98776 10.4811 6.98776ZM20.9666 10.4839C20.9666 9.03612 20.9797 7.60148 20.8984 6.15635C20.8171 4.4778 20.4342 2.98808 19.2067 1.76064C17.9767 0.530573 16.4896 0.150276 14.8111 0.0689713C13.3634 -0.0123336 11.9288 0.000780119 10.4837 0.000780119C9.03595 0.000780119 7.60134 -0.0123336 6.15624 0.0689713C4.47771 0.150276 2.98802 0.533196 1.76061 1.76064C0.530564 2.9907 0.150273 4.4778 0.06897 6.15635C-0.0123334 7.6041 0.000780104 9.03874 0.000780104 10.4839C0.000780104 11.929 -0.0123334 13.3663 0.06897 14.8114C0.150273 16.4899 0.533186 17.9797 1.76061 19.2071C2.99065 20.4372 4.47771 20.8175 6.15624 20.8988C7.60396 20.9801 9.03857 20.967 10.4837 20.967C11.9314 20.967 13.366 20.9801 14.8111 20.8988C16.4896 20.8175 17.9793 20.4345 19.2067 19.2071C20.4368 17.977 20.8171 16.4899 20.8984 14.8114C20.9823 13.3663 20.9666 11.9316 20.9666 10.4839ZM10.4811 15.8631C7.5043 15.8631 5.10191 13.4607 5.10191 10.4839C5.10191 7.50706 7.5043 5.10463 10.4811 5.10463C13.4578 5.10463 15.8602 7.50706 15.8602 10.4839C15.8602 13.4607 13.4578 15.8631 10.4811 15.8631ZM16.0805 6.14061C15.3855 6.14061 14.8242 5.57935 14.8242 4.88432C14.8242 4.18929 15.3855 3.62803 16.0805 3.62803C16.7755 3.62803 17.3368 4.18929 17.3368 4.88432C17.337 5.04936 17.3046 5.21281 17.2416 5.36533C17.1785 5.51784 17.086 5.65642 16.9693 5.77312C16.8526 5.88981 16.714 5.98234 16.5615 6.04541C16.409 6.10847 16.2455 6.14082 16.0805 6.14061Z" fill="#1155CC"/>
</svg>
