<svg width="21" height="21" viewBox="0 0 21 21" fill="none" xmlns="http://www.w3.org/2000/svg">
<path d="M3.82858 0C1.70772 0 0 1.70771 0 3.82858V17.1391C0 19.26 1.70772 20.9677 3.82858 20.9677H11.0428V12.7706H8.87527V9.81945H11.0428V7.29808C11.0428 5.31716 12.3235 3.49833 15.2737 3.49833C16.4682 3.49833 17.3515 3.61301 17.3515 3.61301L17.282 6.36896C17.282 6.36896 16.3812 6.36045 15.3982 6.36045C14.3343 6.36045 14.1637 6.85063 14.1637 7.66439V9.81947H17.3665L17.227 12.7707H14.1637V20.9677H17.1392C19.26 20.9677 20.9677 19.26 20.9677 17.1392V3.8286C20.9677 1.70774 19.26 2.09677e-05 17.1392 2.09677e-05H3.82856L3.82858 0Z" fill="#1155CC"/>
</svg>
