<svg width="26" height="21" viewBox="0 0 26 21" fill="none" xmlns="http://www.w3.org/2000/svg">
<path d="M25.9013 2.48369C25.18 3.55286 24.2952 4.46428 23.2466 5.21794C23.257 5.42007 23.2622 5.64853 23.2622 5.90331C23.2622 7.31896 23.0551 8.73631 22.6409 10.1554C22.2267 11.5745 21.5939 12.9328 20.7427 14.2303C19.8915 15.5278 18.8776 16.6774 17.7009 17.6788C16.5242 18.6803 15.1098 19.4788 13.4576 20.0744C11.8054 20.67 10.0348 20.9677 8.14557 20.9677C5.19717 20.9677 2.48198 20.1745 0 18.5881C0.440521 18.6369 0.863019 18.6613 1.26749 18.6613C3.73064 18.6613 5.93063 17.9053 7.86746 16.3931C6.719 16.3721 5.69047 16.0198 4.78187 15.3361C3.87326 14.6525 3.24798 13.7789 2.90602 12.7154C3.24402 12.7796 3.57762 12.8117 3.90681 12.8117C4.38066 12.8117 4.84692 12.7501 5.30559 12.6269C4.07997 12.3823 3.06321 11.7739 2.25532 10.8019C1.44745 9.82983 1.04352 8.70789 1.04352 7.43608V7.37053C1.79581 7.78564 2.59825 8.00644 3.45083 8.03294C2.72478 7.55057 2.14914 6.92155 1.72389 6.14587C1.29862 5.37019 1.08598 4.53077 1.08598 3.6276C1.08598 2.67507 1.32549 1.78808 1.80452 0.966633C3.13736 2.59662 4.75237 3.89936 6.64956 4.87485C8.54678 5.85035 10.5821 6.39211 12.7556 6.50014C12.6629 6.11513 12.6165 5.71335 12.6163 5.29481C12.6163 3.83342 13.1353 2.5856 14.1732 1.55136C15.2111 0.51712 16.4632 0 17.9297 0C19.465 0 20.7582 0.557119 21.8093 1.67136C23.0102 1.4343 24.1347 1.00551 25.1827 0.385009C24.7789 1.65132 24.0009 2.62819 22.8486 3.31563C23.9077 3.19021 24.9252 2.9129 25.9013 2.48369H25.9013Z" fill="#1155CC"/>
</svg>
