<svg width="22" height="21" viewBox="0 0 22 21" fill="none" xmlns="http://www.w3.org/2000/svg">
<path d="M4.22974 0C1.90372 0 0 1.84928 0 4.10889V16.8595C0 19.1191 1.90367 20.9677 4.22974 20.9677H17.3554C19.6814 20.9677 21.5844 19.1191 21.5844 16.8595V4.10889C21.5844 1.84932 19.6814 0 17.3554 0H4.22974ZM5.29359 3.4601C6.40887 3.4601 7.09583 4.17134 7.11704 5.10626C7.11704 6.02054 6.40882 6.75177 5.27202 6.75177H5.25109C4.15704 6.75177 3.4499 6.02058 3.4499 5.10626C3.4499 4.17136 4.17844 3.4601 5.29357 3.4601H5.29359ZM14.9046 7.8298C17.0495 7.8298 18.6574 9.19166 18.6574 12.1182V17.5816H15.3977V12.4845C15.3977 11.2037 14.926 10.3298 13.7463 10.3298C12.8458 10.3298 12.309 10.9188 12.0733 11.4878C11.9872 11.6914 11.9661 11.9757 11.9661 12.2604V17.5816H8.70639C8.70639 17.5816 8.74917 8.94728 8.70639 8.05324H11.9667V9.40256C12.3999 8.75333 13.1747 7.82978 14.9046 7.82978V7.8298ZM3.64217 8.05394H6.90183V17.5817H3.64217V8.05394Z" fill="#1155CC"/>
</svg>
