<svg width="39" height="42" viewBox="0 0 39 42" fill="none" xmlns="http://www.w3.org/2000/svg">
<path d="M37.8931 33.6072C37.8931 32.8182 37.2535 32.1786 36.4646 32.1786H32.1789V27.8929C32.1789 27.104 31.5393 26.4644 30.7503 26.4644C29.9613 26.4644 29.3217 27.1039 29.3217 27.8929V32.1786H25.036C24.247 32.1786 23.6074 32.8182 23.6074 33.6072C23.6074 34.3962 24.247 35.0358 25.036 35.0358H29.3217V39.3215C29.3217 40.1105 29.9613 40.7501 30.7503 40.7501C31.5393 40.7501 32.1789 40.1105 32.1789 39.3215V35.0358H36.4646C37.2535 35.0358 37.8931 34.3962 37.8931 33.6072Z" fill="#1155CC" stroke="#1155CC" stroke-width="1.5"/>
<path d="M17.7909 39.5828C17.3694 40.2343 16.5081 40.4354 15.8416 40.0381L2.17857 31.8929C1.32143 31.3214 0.75 30.4643 0.75 29.4643V12.0357C0.75 11.0357 1.32143 10.0357 2.17857 9.60714L16.4643 1.17857C16.8929 0.892857 17.3214 0.75 17.8929 0.75C18.4643 0.75 18.8929 0.892857 19.3214 1.17857L33.6071 9.60714C34.4643 10.1786 35.0357 11.0357 35.0357 12.0357V19.3214C35.0357 20.1104 34.3961 20.75 33.6071 20.75C32.8182 20.75 32.1786 20.1104 32.1786 19.3214V12.0357L17.8929 3.60714L3.60714 12.0357V29.4643L17.3134 37.5575C18.0192 37.9743 18.2362 38.8947 17.7909 39.5828Z" fill="#1155CC" stroke="#1155CC" stroke-width="1.5"/>
</svg>
