<svg width="43" height="41" viewBox="0 0 43 41" fill="none" xmlns="http://www.w3.org/2000/svg">
<path d="M19.3208 1.14565C20.646 0.284735 22.3539 0.284798 23.6791 1.14581L40.1365 11.8386C40.8628 12.3213 41.459 12.9786 41.8715 13.7514C42.284 14.5243 42.5 15.3885 42.5 16.2664V33.4651C42.5 35.1266 41.8463 36.7201 40.6827 37.895C39.5192 39.0699 37.941 39.73 36.2955 39.73H6.70455C5.059 39.73 3.48085 39.0699 2.31727 37.895C1.15369 36.7201 0.5 35.1266 0.5 33.4651V16.2664C0.499694 15.3882 0.715507 14.5235 1.12804 13.7503C1.54058 12.9771 2.13691 12.3195 2.86345 11.8366L19.3208 1.14565ZM39.6364 17.4577L23.6 27.351C22.3126 28.1452 20.6873 28.1453 19.3999 27.3511L3.36364 17.4597V33.4651C3.36364 35.3272 4.86036 36.8385 6.70455 36.8385H36.2955C37.1815 36.8385 38.0313 36.4831 38.6578 35.8504C39.2844 35.2178 39.6364 34.3597 39.6364 33.4651V17.4577ZM22.6075 3.64409C21.9366 3.19796 21.0635 3.19799 20.3926 3.64415L4.43846 14.2539C4.32015 14.3318 4.20898 14.4202 4.10627 14.518L20.4326 24.8206C21.0847 25.2321 21.9153 25.2321 22.5674 24.8206L38.8918 14.518C38.7903 14.4203 38.6805 14.332 38.5635 14.2539L22.6075 3.64409Z" fill="#1155CC" stroke="#1155CC"/>
</svg>
