<svg width="41" height="41" viewBox="0 0 41 41" fill="none" xmlns="http://www.w3.org/2000/svg">
<path d="M9.06664 31.9269C8.50883 31.3691 8.50883 30.4647 9.06664 29.9069L18.4709 20.5027C19.0287 19.9449 19.9331 19.9449 20.4909 20.5027C21.0487 21.0605 21.0487 21.9649 20.4909 22.5227L11.0866 31.9269C10.5288 32.4847 9.62444 32.4847 9.06664 31.9269Z" fill="#1155CC" stroke="#1155CC"/>
<path d="M21.9311 40.5C21.7501 40.5004 21.5708 40.4665 21.4025 40.4C21.1684 40.3067 20.9632 40.1532 20.8077 39.955C20.6521 39.7568 20.5518 39.5209 20.5168 39.2714L19.2927 30.7031C19.1799 29.9131 19.7301 29.1816 20.5204 29.0709C21.3079 28.9607 22.036 29.5087 22.1481 30.2959L23.0168 36.4L27.6453 32.6714V21.9286C27.6442 21.7406 27.6803 21.5542 27.7514 21.3802C27.8225 21.2061 27.9272 21.0478 28.0596 20.9143L33.8739 15.1001C35.0719 13.9101 36.0221 12.4944 36.6695 10.9349C37.3168 9.37536 37.6485 7.70292 37.6453 6.01436V3.35722H34.9882C33.2996 3.35402 31.6272 3.68569 30.0676 4.33304C28.5081 4.9804 27.0924 5.93059 25.9025 7.12864L20.0882 12.9429C19.9547 13.0753 19.7964 13.1801 19.6224 13.2512C19.4483 13.3223 19.2619 13.3583 19.0739 13.3572H8.33109L4.60252 18.0143L10.7066 18.883C11.4938 18.9951 12.0418 19.7232 11.9316 20.5107C11.8209 21.301 11.0895 21.8512 10.2995 21.7384L1.7311 20.5143C1.48159 20.4793 1.24578 20.379 1.04757 20.2234C0.849371 20.0679 0.695834 19.8627 0.602534 19.6286C0.508079 19.3929 0.478142 19.1363 0.515806 18.8853C0.55347 18.6342 0.657373 18.3976 0.816819 18.2L6.53109 11.0572C6.66269 10.8862 6.83131 10.7473 7.0243 10.6508C7.21729 10.5543 7.42963 10.5028 7.64537 10.5001H18.4882L23.8739 5.10008C25.3299 3.63595 27.062 2.47542 28.9699 1.68579C30.8777 0.896155 32.9234 0.493133 34.9882 0.500089H37.6453C38.4031 0.500089 39.1298 0.801107 39.6656 1.33692C40.2014 1.87274 40.5024 2.59946 40.5024 3.35722V6.01436C40.5094 8.07917 40.1064 10.1248 39.3167 12.0327C38.5271 13.9405 37.3666 15.6727 35.9025 17.1286L30.5025 22.5143V33.3572C30.5015 33.5717 30.4522 33.7833 30.3582 33.9762C30.2642 34.1691 30.128 34.3384 29.9596 34.4714L22.8168 40.1857C22.5654 40.3874 22.2533 40.4981 21.9311 40.5Z" fill="#1155CC" stroke="#1155CC"/>
</svg>
