<svg width="40" height="40" viewBox="0 0 40 40" fill="none" xmlns="http://www.w3.org/2000/svg">
<g clip-path="url(#clip0_2481_1060)">
<path d="M11.6673 17.9628V9.81465C11.6673 7.65363 12.5453 5.58111 14.1081 4.05304C15.6709 2.52497 17.7905 1.6665 20.0007 1.6665C22.2108 1.6665 24.3304 2.52497 25.8932 4.05304C27.456 5.58111 28.334 7.65363 28.334 9.81465M20.0007 26.1109V30.185M9.50065 38.3332H30.5007C31.6057 38.3332 32.6655 37.9039 33.4469 37.1399C34.2283 36.3759 34.6673 35.3396 34.6673 34.2591V22.0369C34.6673 20.9564 34.2283 19.9201 33.4469 19.1561C32.6655 18.392 31.6057 17.9628 30.5007 17.9628H20.0007H9.50065C8.39558 17.9628 7.33577 18.392 6.55437 19.1561C5.77297 19.9201 5.33398 20.9564 5.33398 22.0369V34.2591C5.33398 35.3396 5.77297 36.3759 6.55437 37.1399C7.33577 37.9039 8.39558 38.3332 9.50065 38.3332Z" stroke="#1155CC" stroke-width="3.5" stroke-linecap="round" stroke-linejoin="round"/>
</g>
<defs>
<clipPath id="clip0_2481_1060">
<rect width="40" height="40" fill="white"/>
</clipPath>
</defs>
</svg>
