<svg width="124" height="120" viewBox="0 0 124 120" fill="none" xmlns="http://www.w3.org/2000/svg">
<g clip-path="url(#clip0_2481_602)">
<path d="M76.051 75.1748C75.761 75.4466 75.442 75.7049 75.123 75.9495C75.181 75.9087 75.2536 75.8408 75.3116 75.8C75.5435 75.5826 75.79 75.3787 76.051 75.1748Z" fill="#1155CC"/>
<path d="M76.051 75.1751C75.761 75.4469 75.442 75.7051 75.123 75.9498C75.181 75.909 75.2536 75.8411 75.3116 75.8003C75.5436 75.5828 75.79 75.3789 76.051 75.1751ZM76.0945 75.1343C75.819 75.3382 75.5581 75.5556 75.3116 75.7867C75.2536 75.841 75.181 75.8954 75.123 75.9498C75.471 75.6915 75.79 75.4197 76.0945 75.1343Z" fill="#1155CC"/>
<path d="M78.1816 72.6064C77.8336 73.1637 77.4566 73.6802 77.0361 74.1695C76.4707 74.5908 75.9632 75.0665 75.5137 75.583C75.6297 75.4471 75.7602 75.2432 75.8617 75.0937C76.4417 74.1695 77.2101 73.3268 78.1816 72.6064Z" fill="#1155CC"/>
<path d="M78.1825 72.6061C77.8345 73.1634 77.4575 73.6799 77.037 74.1692C76.4715 74.5905 75.964 75.0662 75.5145 75.5827C75.6305 75.4468 75.761 75.2429 75.8625 75.0934C76.4425 74.1692 77.211 73.3265 78.1825 72.6061ZM78.2115 72.5518C77.2255 73.2857 76.4425 74.142 75.877 75.0798C75.645 75.4332 75.645 75.4332 75.5 75.5963C75.935 75.0934 76.428 74.6449 76.9935 74.2235C77.443 73.6934 77.8635 73.1362 78.2115 72.5518Z" fill="#1155CC"/>
<path d="M79.5743 69.521C79.3858 70.1598 79.1393 70.7714 78.8638 71.3694C77.6168 72.2937 76.7178 73.381 76.1523 74.5907C76.2393 74.3732 76.3553 74.0878 76.4423 73.8703L76.5148 73.6257C77.2108 71.818 77.6893 71.0704 79.5743 69.521Z" fill="#1155CC"/>
<path d="M79.574 69.5211C79.3855 70.1599 79.139 70.7715 78.8635 71.3695C77.6165 72.2938 76.7175 73.3811 76.152 74.5907C76.239 74.3733 76.355 74.0878 76.442 73.8704L76.5145 73.6257C77.2105 71.8181 77.689 71.0705 79.574 69.5211ZM79.5885 69.4531C77.863 70.8938 77.254 71.6142 76.5145 73.585L76.4275 73.8568C76.3405 74.0879 76.2245 74.3869 76.123 74.6043C76.703 73.4083 77.5875 72.3345 78.82 71.4239C79.1245 70.7987 79.3855 70.1327 79.5885 69.4531Z" fill="#1155CC"/>
<path d="M80.1971 66.0415C80.1536 66.7483 80.0666 67.4278 79.9361 68.1074C78.6021 69.2219 77.3406 70.2685 76.7461 72.715L76.8331 72.2121C76.8621 71.8859 76.9201 71.4645 76.9491 71.1383C77.1086 69.9151 77.3696 68.2297 80.1971 66.0415Z" fill="#1155CC"/>
<path d="M80.1987 66.0416C80.1552 66.7484 80.0682 67.4279 79.9377 68.1075C78.6037 69.222 77.3422 70.2686 76.7478 72.715L76.8348 72.2122C76.8638 71.886 76.9218 71.4646 76.9508 71.1384C77.1102 69.9152 77.3712 68.2298 80.1987 66.0416ZM80.1987 65.9736C78.1107 67.5367 77.0522 69.29 76.9362 71.0841C76.9072 71.4238 76.8637 71.8724 76.8203 72.2122L76.7188 72.7558C77.0667 71.0841 78.1107 69.521 79.9087 68.1755C80.0537 67.4551 80.1552 66.7212 80.1987 65.9736Z" fill="#1155CC"/>
<path d="M80.0242 62.3037C80.1402 63.0512 80.1982 63.7852 80.2127 64.5055C78.1102 66.2317 77.0808 67.4685 76.9503 69.8198C76.9068 69.181 76.8343 68.3383 76.7618 67.6995C76.5153 66.0142 77.5593 64.1386 80.0242 62.3037Z" fill="#1155CC"/>
<path d="M80.0235 62.3037C80.1395 63.0513 80.1975 63.7852 80.212 64.5056C78.1095 66.2317 77.08 67.4685 76.9495 69.8199C76.906 69.1811 76.8335 68.3384 76.761 67.6996C76.5145 66.0142 77.5585 64.1386 80.0235 62.3037ZM80.009 62.2222C77.5295 64.0706 76.5 65.9327 76.7465 67.618C76.819 68.2976 76.9205 69.1946 76.9495 69.8742C76.906 68.0801 77.9645 66.2453 80.212 64.5599C80.1975 63.7988 80.1394 63.0241 80.009 62.2222Z" fill="#1155CC"/>
<path d="M79.0528 58.4033C79.3283 59.1644 79.5458 59.9256 79.7198 60.6731C77.0519 62.8206 76.2254 64.1526 76.4429 65.9874C76.2834 65.4166 76.0949 64.6555 75.9064 64.0846L75.6889 63.473C75.5439 62.7119 75.2539 61.2983 79.0528 58.4033Z" fill="#1155CC"/>
<path d="M79.0519 58.4028C79.3274 59.164 79.5449 59.9251 79.7189 60.6726C77.0509 62.8201 76.2244 64.1521 76.4419 65.9869C76.2824 65.4161 76.0939 64.655 75.9054 64.0841L75.6879 63.4725C75.5429 62.7114 75.2529 61.2978 79.0519 58.4028ZM79.0229 58.3213C77.5584 59.4766 75.0934 61.4202 75.6589 63.3774L75.9054 64.0841C76.0794 64.6821 76.3114 65.4705 76.4564 66.0685C76.1084 64.519 77.1524 62.6706 79.7334 60.7406C79.5449 59.9523 79.3129 59.1368 79.0229 58.3213Z" fill="#1155CC"/>
<path d="M77.2401 54.4751C77.6751 55.2362 78.0521 55.9974 78.4001 56.7585C75.5871 58.8652 74.4851 60.5098 74.9346 61.5427L74.5286 60.6593C74.2386 60.0884 73.8471 59.3409 73.5426 58.7836C73.2961 57.9138 74.3401 56.7041 77.2401 54.4751Z" fill="#1155CC"/>
<path d="M77.24 54.4751C77.675 55.2362 78.052 55.9974 78.4 56.7585C75.587 58.8652 74.485 60.5097 74.9345 61.5427L74.5285 60.6592C74.2385 60.0884 73.847 59.3409 73.5425 58.7836C73.296 57.9138 74.34 56.7041 77.24 54.4751ZM77.1965 54.3936C74.688 56.3236 73.1945 57.7099 73.47 58.6885C73.789 59.2729 74.224 60.0612 74.514 60.6592L74.9635 61.6242C74.7025 60.5369 75.1955 59.3137 78.429 56.8264C78.0665 56.0109 77.6605 55.209 77.1965 54.3936Z" fill="#1155CC"/>
<path d="M75.1969 51.417C75.7334 52.1102 76.2409 52.8305 76.7049 53.5781C73.7759 55.7663 72.5434 57.1526 72.8624 57.6827C72.3114 56.8536 71.5719 55.7663 70.9775 54.9644C70.8615 54.8013 72.2389 53.6188 75.1969 51.417Z" fill="#1155CC"/>
<path d="M75.1962 51.4171C75.7327 52.1102 76.2402 52.8306 76.7042 53.5781C73.7753 55.7664 72.5428 57.1527 72.8618 57.6828C72.3108 56.8537 71.5713 55.7664 70.9768 54.9645C70.8608 54.8014 72.2383 53.6189 75.1962 51.4171ZM75.1527 51.3491C72.1948 53.5645 70.8028 54.7334 70.9188 54.8829C71.5278 55.7256 72.3398 56.8673 72.9053 57.7372C72.5718 57.2071 73.8043 55.8072 76.7332 53.6189C76.2402 52.8306 75.7182 52.0695 75.1527 51.3491Z" fill="#1155CC"/>
<path d="M72.195 48.1143C72.8185 48.6987 73.4274 49.3103 73.9929 49.9627C71.035 52.1781 69.5415 53.2111 69.469 53.1431C68.918 52.5587 68.193 51.7704 67.613 51.2131L67.207 50.8326C67.4535 50.9277 68.0915 51.1859 72.195 48.1143Z" fill="#1155CC"/>
<path d="M72.1952 48.1144C72.8187 48.6989 73.4277 49.3105 73.9932 49.9629C71.0352 52.1783 69.5417 53.2113 69.4692 53.1433C68.9182 52.5589 68.1932 51.7706 67.6133 51.2133L67.2073 50.8327C67.4538 50.9279 68.0918 51.1861 72.1952 48.1144ZM72.1372 48.0601C69.1937 50.2483 67.5263 51.1182 67.1348 50.7512L67.6133 51.2133C68.1932 51.8113 68.9762 52.5996 69.5417 53.2249C69.5997 53.2792 71.0932 52.2327 74.0512 50.0308C73.4422 49.3377 72.8042 48.6853 72.1372 48.0601Z" fill="#1155CC"/>
<path d="M68.7877 45.4097C69.4837 45.8718 70.1507 46.3747 70.8032 46.9047C67.9032 49.0658 66.1052 49.8269 65.4817 49.324L64.5392 48.5901L63.0312 47.5164C64.0172 48.1552 65.9747 47.5164 68.7877 45.4097Z" fill="#1155CC"/>
<path d="M68.7871 45.4094C69.4831 45.8715 70.1501 46.3744 70.8026 46.9045C67.9026 49.0656 66.1046 49.8267 65.4811 49.3238L64.5386 48.5899L63.0307 47.5161C64.0166 48.1549 65.9741 47.5161 68.7871 45.4094ZM68.7291 45.3687C65.9161 47.4753 63.9586 48.1142 62.9727 47.4618C63.4512 47.8016 64.0891 48.2365 64.5531 48.5899L65.5681 49.3918C66.1771 49.8811 67.9606 49.1199 70.8751 46.9589C70.1791 46.388 69.4686 45.8579 68.7291 45.3687Z" fill="#1155CC"/>
<path d="M65.1194 43.3569C65.8444 43.6831 66.5694 44.0637 67.2799 44.4714C64.5249 46.5238 62.4804 47.1082 61.2769 46.415C60.5519 46.0345 59.595 45.518 58.8555 45.1782C60.3634 45.8442 62.5094 45.3005 65.1194 43.3569Z" fill="#1155CC"/>
<path d="M65.1196 43.3573C65.8446 43.6835 66.5696 44.064 67.2801 44.4718C64.5251 46.5241 62.4807 47.1085 61.2772 46.4154C60.5522 46.0348 59.5952 45.5183 58.8557 45.1785C60.3637 45.8445 62.5097 45.3009 65.1196 43.3573ZM65.0471 43.3301C62.4372 45.2737 60.2912 45.8173 58.7832 45.1378C59.5662 45.5183 60.5957 46.0484 61.3497 46.4561C62.5387 47.1493 64.5976 46.5649 67.3526 44.5125C66.5986 44.0776 65.8156 43.6835 65.0471 43.3301Z" fill="#1155CC"/>
<path d="M61.2921 42.0112C62.0461 42.2015 62.7856 42.4326 63.5251 42.7044C61.0456 44.5529 58.8706 45.0965 57.1887 44.4849C56.6667 44.3082 55.9707 44.0636 55.4342 43.9141L55.0137 43.8053C56.8407 44.2674 59.0011 43.7102 61.2921 42.0112Z" fill="#1155CC"/>
<path d="M61.2924 42.0116C62.0463 42.2018 62.7858 42.4329 63.5253 42.7047C61.0459 44.5532 58.8709 45.0968 57.1889 44.4852C56.6669 44.3085 55.9709 44.0639 55.4344 43.9144L55.0139 43.8056C56.8409 44.2678 59.0014 43.7105 61.2924 42.0116ZM61.2199 41.9844C58.9434 43.6833 56.7974 44.227 54.9414 43.7785L55.4344 43.9008C55.9854 44.0775 56.7249 44.2949 57.2614 44.4988C58.9289 45.1104 61.1039 44.5804 63.5978 42.7183C62.8003 42.4329 62.0028 42.1882 61.2199 41.9844Z" fill="#1155CC"/>
<path d="M57.4499 41.4136C58.1894 41.4543 58.9289 41.5359 59.6829 41.6582C58.2329 42.6368 56.4204 43.8601 53.6075 43.4931L52.9405 43.3979C52.6215 43.3708 52.2155 43.3164 51.8965 43.3028C53.7235 43.3844 55.6084 42.7863 57.4499 41.4136Z" fill="#1155CC"/>
<path d="M57.4485 41.4136C58.188 41.4543 58.9275 41.5359 59.6815 41.6582C58.2315 42.6368 56.419 43.8601 53.606 43.4931L52.939 43.3979C52.6201 43.3708 52.2141 43.3164 51.8951 43.3028C53.722 43.3844 55.607 42.7863 57.4485 41.4136ZM57.376 41.4136C55.665 42.5553 54.36 43.3028 51.8516 43.3028C52.1851 43.33 52.6201 43.3572 52.939 43.3979L53.664 43.5067C55.549 43.8329 57.637 43.262 59.754 41.6718C58.942 41.5359 58.159 41.4543 57.376 41.4136Z" fill="#1155CC"/>
<path d="M53.7081 41.6446C54.4186 41.5223 55.1291 41.4408 55.8541 41.4136C54.2446 42.6232 52.5337 43.2213 50.8372 43.3028C50.5037 43.33 50.0542 43.3708 49.7207 43.4251C50.7357 43.1805 51.8667 42.8951 52.8817 42.2155C53.1282 42.0388 53.4327 41.7534 53.7081 41.6446Z" fill="#1155CC"/>
<path d="M53.7078 41.6446C54.4183 41.5223 55.1288 41.4408 55.8538 41.4136C54.2443 42.6232 52.5334 43.2213 50.8369 43.3028C50.5034 43.33 50.0539 43.3708 49.7204 43.4251C50.7354 43.1805 51.8664 42.8951 52.8814 42.2155C53.1279 42.0388 53.4324 41.7534 53.7078 41.6446ZM53.6498 41.6582C52.4029 42.5824 51.0689 43.1669 49.6914 43.4251C50.4309 43.3164 50.4454 43.3164 50.8804 43.3028C52.5914 43.2348 54.3023 42.6232 55.9263 41.4136C55.1578 41.4408 54.3893 41.5223 53.6498 41.6582Z" fill="#1155CC"/>
<path d="M50.2291 42.7319C50.3886 42.664 50.5336 42.596 50.6931 42.528C51.1861 42.3242 51.6936 42.1339 52.2156 41.9844C51.2441 42.7047 50.2001 43.2212 49.1271 43.5338C48.9676 43.5882 48.7646 43.6561 48.6051 43.7105L48.4746 43.7649C49.0836 43.493 49.6781 43.1533 50.2291 42.7319Z" fill="#1155CC"/>
<path d="M50.2291 42.7322C50.3886 42.6643 50.5336 42.5963 50.6931 42.5284C51.1861 42.3245 51.6936 42.1342 52.2156 41.9847C51.2441 42.7051 50.2001 43.2215 49.1271 43.5341C48.9676 43.5885 48.7646 43.6565 48.6051 43.7108L48.4746 43.7652C49.0836 43.4934 49.6781 43.1536 50.2291 42.7322ZM50.1711 42.7594C49.6346 43.1672 49.0691 43.507 48.4746 43.7788L48.6196 43.7108C48.7791 43.6565 48.9966 43.5749 49.1561 43.5205C50.2581 43.2079 51.3166 42.6915 52.2881 41.9575C51.7516 42.107 51.2151 42.2973 50.7076 42.5148C50.5191 42.6099 50.3451 42.6779 50.1711 42.7594Z" fill="#1155CC"/>
<path d="M48.9233 43.439C48.6768 43.6157 48.4303 43.7923 48.1838 43.9419C48.1258 43.9826 48.0533 44.0234 48.0098 44.0642C48.2853 43.8467 48.6043 43.6428 48.9233 43.439Z" fill="#1155CC"/>
<path d="M48.9233 43.4388C48.6768 43.6155 48.4303 43.7922 48.1838 43.9417C48.1258 43.9825 48.0533 44.0232 48.0098 44.064C48.2853 43.8466 48.6043 43.6427 48.9233 43.4388ZM48.9813 43.4116C48.6478 43.6155 48.3143 43.833 48.0098 44.0776C48.0678 44.0368 48.1403 43.9825 48.1983 43.9553C48.4593 43.7786 48.7203 43.6019 48.9813 43.4116Z" fill="#1155CC"/>
<path d="M102.963 82.0928C102.354 82.65 101.73 83.1665 101.063 83.6694C93.1318 74.6038 81.5755 71.138 75.123 75.9494C75.442 75.7047 75.761 75.4465 76.051 75.1747C82.5035 70.3633 94.4948 73.4757 102.963 82.0928Z" fill="#1155CC"/>
<path d="M102.963 82.0929C102.354 82.6502 101.73 83.1666 101.063 83.6695C93.1318 74.604 81.5755 71.1381 75.123 75.9495C75.442 75.7049 75.761 75.4466 76.051 75.1748C82.5035 70.3634 94.4948 73.4759 102.963 82.0929ZM103.253 82.2152C94.7558 73.4623 82.605 70.2818 76.0945 75.134C75.79 75.4194 75.4565 75.6913 75.123 75.9495C81.619 71.0973 93.3203 74.6583 101.252 83.887C101.948 83.3569 102.629 82.7997 103.253 82.2152Z" fill="#1155CC"/>
<path d="M107.299 76.8465C106.603 77.9746 105.82 79.0348 104.95 80.0406C95.9167 71.9943 83.4759 69.3576 77.0234 74.169C77.4439 73.6797 77.8354 73.1496 78.1689 72.606C84.6358 67.7945 97.6132 69.6974 107.299 76.8465Z" fill="#1155CC"/>
<path d="M107.299 76.8464C106.603 77.9745 105.82 79.0346 104.95 80.0404C95.9164 71.9942 83.4756 69.3574 77.0231 74.1688C77.4436 73.6795 77.8351 73.1495 78.1686 72.6058C84.6355 67.7944 97.6129 69.6972 107.299 76.8464ZM107.603 76.9007C97.8739 69.6428 84.7225 67.6857 78.2121 72.5379C77.8496 73.1223 77.4436 73.6795 76.9941 74.2096C83.4901 69.3574 96.0614 72.1029 105.095 80.3258C106.023 79.2657 106.864 78.124 107.603 76.9007Z" fill="#1155CC"/>
<path d="M110.125 70.5538C109.733 71.8586 109.24 73.1091 108.675 74.3187C98.5975 67.8899 85.3157 66.5443 78.8633 71.3557C79.1388 70.7577 79.3853 70.1461 79.5738 69.5073C86.0262 64.7095 99.6415 65.1852 110.125 70.5538Z" fill="#1155CC"/>
<path d="M110.127 70.554C109.735 71.8588 109.242 73.1092 108.677 74.3188C98.5992 67.89 85.3174 66.5444 78.8649 71.3559C79.1404 70.7578 79.3869 70.1462 79.5754 69.5074C86.0278 64.7096 99.6432 65.1853 110.127 70.554ZM110.417 70.554C99.8897 65.1037 86.0858 64.6008 79.5899 69.453C79.3869 70.1326 79.1259 70.7986 78.8359 71.4238C85.3319 66.5716 98.7732 67.9987 108.865 74.5907C109.474 73.3131 109.996 71.9539 110.417 70.554Z" fill="#1155CC"/>
<path d="M111.386 63.4725C111.299 64.8997 111.111 66.3132 110.85 67.6724C100.164 63.1192 86.3743 63.2959 79.9219 68.1073C80.0524 67.4413 80.1394 66.7481 80.1829 66.0414C86.6353 61.2299 100.555 60.1018 111.386 63.4725Z" fill="#1155CC"/>
<path d="M111.387 63.4727C111.3 64.8998 111.112 66.3133 110.851 67.6725C100.164 63.1193 86.3751 63.296 79.9227 68.1074C80.0532 67.4414 80.1402 66.7483 80.1837 66.0415C86.6361 61.2301 100.556 60.102 111.387 63.4727ZM111.663 63.4184C100.773 59.9933 86.6941 61.1214 80.1982 65.9736C80.1547 66.7211 80.0532 67.455 79.9082 68.1618C86.4041 63.3096 100.353 63.2009 111.083 67.9036C111.373 66.4493 111.576 64.9542 111.663 63.4184Z" fill="#1155CC"/>
<path d="M111.053 55.8341C111.271 57.3563 111.416 58.8514 111.445 60.3193C100.584 57.832 86.6643 59.6805 80.2119 64.4919C80.1974 63.7715 80.1249 63.0376 80.0234 62.29C86.4759 57.4786 100.309 54.6244 111.053 55.8341Z" fill="#1155CC"/>
<path d="M111.054 55.8343C111.271 57.3565 111.416 58.8516 111.445 60.3195C100.585 57.8322 86.6652 59.6807 80.2128 64.4921C80.1983 63.7717 80.1258 63.0378 80.0243 62.2903C86.4767 57.4788 100.31 54.6246 111.054 55.8343ZM111.286 55.7255C100.513 54.4751 86.5202 57.3837 80.0098 62.2359C80.1258 63.0242 80.1983 63.8125 80.2128 64.5736C86.7087 59.7215 100.803 57.9138 111.706 60.5369C111.677 58.9467 111.532 57.3429 111.286 55.7255Z" fill="#1155CC"/>
<path d="M109.052 47.8965C109.603 49.4459 110.052 50.9954 110.415 52.5312C99.0469 52.4361 86.7075 55.7116 79.7041 60.6726C79.5301 59.925 79.3126 59.1639 79.0371 58.4028C87.331 52.5448 100.091 48.9023 109.052 47.8965Z" fill="#1155CC"/>
<path d="M109.053 47.8964C109.604 49.4459 110.053 50.9953 110.416 52.5312C99.0477 52.436 86.7083 55.7116 79.7049 60.6725C79.5309 59.925 79.3134 59.1639 79.0379 58.4027C87.3318 52.5447 100.092 48.9022 109.053 47.8964ZM109.256 47.7197C99.0622 48.7391 85.5339 53.4826 79.0234 58.3348C79.3134 59.1503 79.5454 59.9522 79.7339 60.7541C86.2299 55.9019 100.092 52.3001 110.706 52.6943C110.329 51.0361 109.85 49.3779 109.256 47.7197Z" fill="#1155CC"/>
<path d="M105.369 39.8774C106.253 41.4269 107.036 42.9763 107.718 44.5258C97.9014 46.4965 84.837 51.9332 78.3846 56.7446C78.0511 55.9835 77.6596 55.2223 77.2246 54.4612C83.6915 49.6634 96.2194 43.1666 105.369 39.8774Z" fill="#1155CC"/>
<path d="M105.37 39.8775C106.255 41.427 107.038 42.9764 107.719 44.5259C97.903 46.4966 84.8387 51.9333 78.3862 56.7447C78.0527 55.9836 77.6613 55.2224 77.2263 54.4613C83.6932 49.6635 96.221 43.1667 105.37 39.8775ZM105.501 39.6465C96.366 42.9492 83.6932 49.5411 77.1973 54.3933C77.6613 55.1952 78.0673 56.0107 78.4298 56.8262C84.9257 51.974 98.1785 46.5238 108.038 44.6346C107.299 42.9628 106.458 41.3047 105.501 39.6465Z" fill="#1155CC"/>
<path d="M101.222 33.6392C102.309 35.0527 103.339 36.5206 104.296 38.0564C95.4507 41.8485 83.1694 48.753 76.717 53.578C76.253 52.8305 75.7455 52.0965 75.209 51.4169C81.6469 46.6055 93.2467 38.6816 101.222 33.6392Z" fill="#1155CC"/>
<path d="M101.222 33.6391C102.309 35.0526 103.339 36.5205 104.296 38.0564C95.451 41.8484 83.1696 48.7529 76.7172 53.5779C76.2532 52.8304 75.7457 52.0965 75.2092 51.4169C81.6471 46.6055 93.247 38.6816 101.222 33.6391ZM101.294 33.3809C93.3485 38.4505 81.6471 46.4831 75.1367 51.3353C75.7022 52.0557 76.2242 52.8168 76.7172 53.6187C83.2131 48.7665 95.6685 41.8076 104.542 38.0564C103.542 36.439 102.454 34.8759 101.294 33.3809Z" fill="#1155CC"/>
<path d="M95.1042 26.9248C96.3802 28.1073 97.5982 29.3713 98.7726 30.6897C91.4792 36.5612 80.4449 45.1511 74.007 49.9625C73.427 49.3101 72.8325 48.6985 72.209 48.1141C78.6469 43.3026 88.8548 33.8565 95.1042 26.9248Z" fill="#1155CC"/>
<path d="M95.1044 26.9251C96.3804 28.1075 97.5984 29.3716 98.7729 30.6899C91.4795 36.5615 80.4451 45.1514 74.0072 49.9628C73.4272 49.3104 72.8327 48.6988 72.2092 48.1143C78.6471 43.3029 88.855 33.8568 95.1044 26.9251ZM95.1189 26.6396C88.913 33.6257 78.6326 43.2078 72.1367 48.06C72.8037 48.6852 73.4417 49.3376 74.0507 50.0307C80.5466 45.1785 91.7405 36.5207 99.0484 30.6763C97.8014 29.2628 96.4964 27.9037 95.1189 26.6396Z" fill="#1155CC"/>
<path d="M88.158 21.4072C89.5645 22.345 90.942 23.3644 92.2759 24.4517C86.824 32.0766 77.2687 42.08 70.8163 46.905C70.1638 46.3749 69.4823 45.872 68.8008 45.4099C75.2387 40.5985 83.8661 29.902 88.158 21.4072Z" fill="#1155CC"/>
<path d="M88.1582 21.407C89.5647 22.3448 90.9422 23.3642 92.2762 24.4515C86.8243 32.0764 77.2689 42.0798 70.8165 46.9048C70.164 46.3747 69.4825 45.8719 68.801 45.4097C75.2389 40.5983 83.8663 29.9017 88.1582 21.407ZM88.1147 21.1216C83.8953 29.6707 75.2244 40.5168 68.7285 45.369C69.468 45.8583 70.1785 46.3883 70.8745 46.9592C77.3704 42.107 87.0708 32.0084 92.5372 24.3836C91.1017 23.2147 89.6372 22.1274 88.1147 21.1216Z" fill="#1155CC"/>
<path d="M80.6473 17.2207C82.1408 17.9003 83.6197 18.6478 85.0552 19.4905C81.6333 28.5153 73.7164 39.6604 67.264 44.4718C66.5535 44.0641 65.8285 43.6971 65.1035 43.3573C71.5559 38.5459 78.4723 26.8979 80.6473 17.2207Z" fill="#1155CC"/>
<path d="M80.6467 17.2204C82.1402 17.9 83.6192 18.6475 85.0546 19.4902C81.6327 28.515 73.7158 39.6601 67.2634 44.4715C66.5529 44.0638 65.8279 43.6968 65.1029 43.357C71.5553 38.5456 78.4717 26.8976 80.6467 17.2204ZM80.5597 16.9214C78.4862 26.653 71.5408 38.4776 65.0449 43.3298C65.8279 43.6832 66.5964 44.0773 67.3504 44.5123C73.8463 39.6601 81.8792 28.4063 85.2866 19.3543C83.7352 18.4572 82.1547 17.6417 80.5597 16.9214Z" fill="#1155CC"/>
<path d="M72.8473 14.4751C74.3698 14.8557 75.8923 15.3314 77.4003 15.8886C76.1388 25.9328 69.9619 37.8934 63.524 42.7048C62.7845 42.433 62.0305 42.2019 61.291 42.0116C67.7289 37.2002 72.8763 24.9134 72.8473 14.4751Z" fill="#1155CC"/>
<path d="M72.8457 14.4753C74.3682 14.8558 75.8906 15.3316 77.3986 15.8888C76.1371 25.933 69.9602 37.8936 63.5223 42.705C62.7828 42.4332 62.0288 42.2021 61.2893 42.0118C67.7272 37.2004 72.8747 24.9136 72.8457 14.4753ZM72.7007 14.1763C72.8457 24.6826 67.7127 37.1324 61.2168 41.9846C62.0143 42.1885 62.8118 42.4331 63.5948 42.7186C70.0907 37.8664 76.3546 25.7699 77.5871 15.6849C75.9631 15.1005 74.3247 14.5976 72.7007 14.1763Z" fill="#1155CC"/>
<path d="M65.017 13.2656C66.525 13.3472 68.033 13.5103 69.5554 13.7685C70.5124 24.4107 66.119 36.847 59.6666 41.6584C58.9271 41.5361 58.1731 41.4545 57.4336 41.4138C63.886 36.6024 67.25 24.0573 65.017 13.2656Z" fill="#1155CC"/>
<path d="M65.0164 13.2656C66.5244 13.3471 68.0324 13.5102 69.5548 13.7685C70.5118 24.4107 66.1184 36.8469 59.666 41.6584C58.9265 41.536 58.1725 41.4545 57.433 41.4137C63.8854 36.6023 67.2494 24.0573 65.0164 13.2656ZM64.8134 13.0073C67.1914 23.8534 63.8709 36.5751 57.375 41.4273C58.158 41.4681 58.9555 41.5496 59.753 41.6855C66.2489 36.8333 70.7003 24.234 69.6853 13.551C68.0469 13.252 66.4229 13.0753 64.8134 13.0073Z" fill="#1155CC"/>
<path d="M57.4045 13.7277C58.84 13.4694 60.3044 13.3199 61.7834 13.252C64.9299 24.0437 62.3054 36.6023 55.853 41.4137C55.128 41.4409 54.403 41.5224 53.707 41.6447C60.1594 36.8333 61.7834 24.3834 57.4045 13.7277Z" fill="#1155CC"/>
<path d="M57.4039 13.7276C58.8394 13.4694 60.3039 13.3199 61.7829 13.2519C64.9293 24.0436 62.3049 36.6022 55.8524 41.4136C55.1274 41.4408 54.4024 41.5224 53.7064 41.6447C60.1589 36.8333 61.7829 24.3834 57.4039 13.7276ZM57.1574 13.4965C61.7104 24.2067 60.1444 36.8061 53.6484 41.6583C54.4024 41.5224 55.1564 41.4408 55.9394 41.4136C62.4354 36.5614 65.0888 23.8397 61.8554 12.9937C60.2604 13.048 58.6944 13.2111 57.1574 13.4965Z" fill="#1155CC"/>
<path d="M50.2982 15.9563C50.6172 15.8068 50.9217 15.6709 51.2552 15.535C52.2702 15.1137 53.2997 14.7467 54.3582 14.4341C59.5926 24.886 58.6646 37.1728 52.2267 41.9842C51.7047 42.1337 51.1972 42.3104 50.7042 42.5279C50.5447 42.5958 50.3852 42.6638 50.2402 42.7317C56.6782 37.9203 56.6782 25.9869 50.2982 15.9563Z" fill="#1155CC"/>
<path d="M50.2989 15.9566C50.6179 15.8071 50.9224 15.6712 51.2559 15.5353C52.2709 15.1139 53.3004 14.747 54.3589 14.4343C59.5933 24.8863 58.6653 37.173 52.2274 41.9845C51.7054 42.134 51.1979 42.3107 50.7049 42.5281C50.5454 42.5961 50.3859 42.664 50.2409 42.732C56.6789 37.9206 56.6789 25.9872 50.2989 15.9566ZM50.0234 15.7663C56.5919 25.8241 56.6644 37.907 50.1684 42.7592C50.3424 42.6776 50.5164 42.5961 50.6904 42.5281C51.2124 42.3107 51.7344 42.1204 52.2709 41.9709C58.7668 37.1187 59.6948 24.6688 54.3444 14.1489C53.2424 14.4615 52.1549 14.8421 51.0819 15.2906C50.7339 15.4401 50.3714 15.6032 50.0234 15.7663Z" fill="#1155CC"/>
<path d="M45.7461 18.6614C46.3406 18.2129 46.9786 17.7915 47.6311 17.3838C54.765 27.0066 55.374 38.6274 48.9216 43.4388C48.6026 43.6291 48.2981 43.8466 47.9936 44.064C54.446 39.2526 53.4165 27.9308 45.7461 18.6614Z" fill="#1155CC"/>
<path d="M45.7463 18.6611C46.3408 18.2126 46.9787 17.7912 47.6312 17.3835C54.7651 27.0063 55.3741 38.6271 48.9217 43.4385C48.6027 43.6288 48.2982 43.8463 47.9937 44.0637C54.4462 39.2523 53.4167 27.9305 45.7463 18.6611ZM45.5723 18.4436C53.4022 27.7539 54.5042 39.2115 48.0082 44.0637C48.3272 43.8327 48.6462 43.6152 48.9797 43.3978C55.4756 38.5456 54.8376 26.7617 47.5732 17.0845C46.8773 17.5058 46.2103 17.9679 45.5723 18.4436Z" fill="#1155CC"/>
<path d="M108.373 29.6161C109.707 31.4645 111.462 33.9382 112.694 35.841C112.288 35.1886 109.519 35.841 104.632 37.9205C103.661 36.3711 102.631 34.876 101.529 33.4489C105.894 30.7034 108.214 29.4122 108.373 29.6161Z" fill="#1155CC"/>
<path d="M108.372 29.6157C109.706 31.4641 111.46 33.9378 112.693 35.8406C112.287 35.1882 109.518 35.8406 104.631 37.9201C103.66 36.3707 102.63 34.8756 101.528 33.4485C105.893 30.703 108.213 29.4118 108.372 29.6157ZM108.213 29.4254C108.082 29.2351 105.762 30.5399 101.412 33.3126C102.572 34.8077 103.66 36.3707 104.675 38.0153C109.576 35.9494 112.345 35.3105 112.751 35.9765C111.446 33.9786 109.634 31.3554 108.213 29.4254Z" fill="#1155CC"/>
<path d="M99.7603 20.1699L100.703 21.067C101.979 22.3718 103.704 24.1115 104.922 25.4706C105.009 25.5522 103.023 27.2511 99.0498 30.4723C97.8608 29.1404 96.6284 27.8627 95.3379 26.6667C98.7598 22.7659 100.094 20.8359 99.7603 20.1699Z" fill="#1155CC"/>
<path d="M99.76 20.1699L100.702 21.067C101.978 22.3718 103.704 24.1115 104.922 25.4706C105.009 25.5522 103.022 27.2511 99.0495 30.4723C97.8605 29.1404 96.628 27.8628 95.3375 26.6667C98.7595 22.7659 100.093 20.8359 99.76 20.1699ZM99.586 20.0068C100.064 20.4418 98.6145 22.698 95.207 26.5444C96.5845 27.822 97.904 29.1675 99.1655 30.5947C103.167 27.4006 105.168 25.7153 105.096 25.6473C103.791 24.261 102.065 22.3989 100.717 21.067L99.586 20.0068Z" fill="#1155CC"/>
<path d="M89.8843 12.3276L93.5528 14.9372L95.7713 16.6769C96.5543 17.3022 95.4958 19.8981 92.4798 24.1523C91.1313 23.0514 89.7393 22.0184 88.3184 21.067C90.7253 16.2284 91.1603 13.1703 89.8843 12.3276Z" fill="#1155CC"/>
<path d="M89.8848 12.3274L93.5533 14.937L95.7717 16.6767C96.5547 17.3019 95.4962 19.8979 92.4803 24.1521C91.1318 23.0512 89.7398 22.0182 88.3188 21.0668C90.7258 16.2282 91.1608 13.1701 89.8848 12.3274ZM89.6818 12.2051C90.9723 13.0478 90.5663 16.1195 88.1738 20.9988C89.6963 22.0046 91.1753 23.1055 92.6108 24.2744C95.6412 20.0338 96.7142 17.4514 95.9457 16.8398L93.5387 14.9506C92.3933 14.1215 90.8708 12.9934 89.6818 12.2051Z" fill="#1155CC"/>
<path d="M78.9082 6.21143C80.8802 7.17643 83.5046 8.49481 85.4186 9.55495C87.0716 10.5064 87.1296 13.8771 85.2011 19.137C83.7366 18.2943 82.2432 17.5332 80.7352 16.84C81.9822 10.9957 81.1702 7.23079 78.9082 6.21143Z" fill="#1155CC"/>
<path d="M78.9089 6.21135C80.8809 7.17635 83.5054 8.49474 85.4193 9.55488C87.0723 10.5063 87.1303 13.877 85.2018 19.1369C83.7374 18.2943 82.2439 17.5331 80.7359 16.84C81.9829 10.9956 81.1709 7.23072 78.9089 6.21135ZM78.6914 6.11621C80.9679 7.13558 81.8089 10.914 80.5764 16.7856C82.1859 17.5059 83.7664 18.3214 85.3323 19.2185C87.2898 13.9721 87.2608 10.615 85.6223 9.6772C83.5779 8.56269 80.8084 7.12199 78.6914 6.11621Z" fill="#1155CC"/>
<path d="M66.9766 2.02539L68.4701 2.41955C70.1375 2.93603 72.356 3.6156 74.009 4.20004C76.735 5.19223 78.156 9.21533 77.4455 15.4946C75.923 14.9374 74.386 14.4481 72.8345 14.0675C72.733 7.21737 70.3985 2.88166 66.9766 2.02539Z" fill="#1155CC"/>
<path d="M66.9761 2.02507L68.4696 2.41923C70.1371 2.93571 72.3556 3.61528 74.0086 4.19972C76.7345 5.19191 78.1555 9.21502 77.445 15.4943C75.9225 14.9371 74.3856 14.4478 72.8341 14.0672C72.7326 7.21705 70.3981 2.88134 66.9761 2.02507ZM66.7441 1.9707C70.1806 2.82697 72.5586 7.17628 72.6891 14.04C74.3276 14.4478 75.966 14.9643 77.59 15.5623C78.3295 9.31016 76.9375 5.30064 74.2261 4.29486C72.5006 3.71043 70.2096 2.93571 68.4696 2.41923L66.7441 1.9707Z" fill="#1155CC"/>
<path d="M54.2598 0.081543C55.7242 0.203867 57.6817 0.339783 59.1462 0.516473L61.7417 0.910629C66.0626 1.95718 68.6726 6.14339 69.5281 13.3605C67.9911 13.1023 66.4541 12.9256 64.9316 12.844C63.1917 5.02888 58.9432 0.299008 54.2598 0.081543Z" fill="#1155CC"/>
<path d="M54.2582 0.081543C55.7227 0.203867 57.6802 0.339783 59.1447 0.516473L61.7401 0.910629C66.0611 1.95718 68.671 6.14339 69.5265 13.3605C67.9895 13.1023 66.4526 12.9256 64.9301 12.844C63.1901 5.02888 58.9417 0.299008 54.2582 0.081543ZM54.0117 0.081543C60.5801 0.801896 63.4946 7.42099 64.7706 12.844C66.3946 12.9256 68.0185 13.1023 69.657 13.3877C68.932 6.14338 65.8871 1.61739 61.9721 0.951404L59.1447 0.516473C57.5932 0.380558 55.5487 0.163092 54.0117 0.081543Z" fill="#1155CC"/>
<path d="M41.0488 0.909825C43.3543 0.583627 46.4573 0.230246 48.7772 0.0671472C53.9682 -0.150318 59.1446 4.64751 61.6676 12.8432C60.1741 12.9112 58.6951 13.0607 57.2451 13.3189C51.2277 0.257429 43.3253 0.515669 41.0488 0.909825Z" fill="#1155CC"/>
<path d="M41.0492 0.910567C43.3547 0.584369 46.4577 0.230989 48.7776 0.0678897C53.9686 -0.149576 59.145 4.64825 61.668 12.844C60.1745 12.9119 58.6955 13.0614 57.2455 13.3197C51.2281 0.258172 43.3257 0.516412 41.0492 0.910567ZM40.8027 0.951342C46.6752 -0.135984 53.3451 4.64825 57.1005 13.3469C58.6375 13.0614 60.218 12.8983 61.813 12.8304C59.3335 4.64825 54.2006 -0.135984 49.0386 0.0542981C43.6592 0.434862 43.5577 0.448454 40.8027 0.951342Z" fill="#1155CC"/>
<path d="M27.9277 5.04235L29.7257 4.24045C31.4367 3.60165 33.7277 2.74538 35.4821 2.20171C41.7171 0.380444 49.489 5.05594 54.1579 14.0264C53.0849 14.339 52.0409 14.706 51.0259 15.1409C50.7069 15.2768 50.3879 15.4127 50.069 15.5622C43.979 6.31996 34.4962 1.97066 27.9277 5.04235Z" fill="#1155CC"/>
<path d="M27.9273 5.04203L29.7253 4.24012C31.4363 3.60132 33.7272 2.74505 35.4817 2.20139C41.7166 0.380118 49.4885 5.05562 54.1575 14.0261C53.0845 14.3387 52.0405 14.7056 51.0255 15.1406C50.7065 15.2765 50.3875 15.4124 50.0685 15.5619C43.9786 6.31963 34.4957 1.97033 27.9273 5.04203ZM27.6953 5.15076C34.2782 2.03829 43.8191 6.374 49.938 15.6299C50.3005 15.4668 50.663 15.3037 51.0255 15.1406C52.0985 14.692 53.186 14.3115 54.3025 13.9989C49.6915 5.02844 41.9631 0.352935 35.7427 2.13343C33.9302 2.73146 31.5088 3.54695 29.7398 4.24012L27.6953 5.15076Z" fill="#1155CC"/>
<path d="M16.502 12.4229L19.2134 10.2347C20.3009 9.48713 21.7219 8.46776 22.8384 7.77459C29.4648 3.69712 40.2382 7.67945 47.3576 17.0169C46.7051 17.4246 46.0671 17.8459 45.4581 18.3081C44.9651 18.675 44.4866 19.0556 44.0371 19.4498C35.6997 10.4521 23.5924 7.09501 17.0674 11.9608C16.8644 12.1103 16.676 12.2598 16.502 12.4229Z" fill="#1155CC"/>
<path d="M16.501 12.4228L19.2125 10.2345C20.2999 9.48699 21.7209 8.46762 22.8374 7.77445C29.4638 3.69698 40.2372 7.67931 47.3566 17.0167C46.7041 17.4245 46.0661 17.8458 45.4571 18.3079C44.9641 18.6749 44.4856 19.0555 44.0361 19.4496C35.6988 10.452 23.5914 7.09487 17.0665 11.9607C16.8635 12.1102 16.675 12.2597 16.501 12.4228ZM16.3125 12.5859C16.501 12.4228 16.704 12.2597 16.907 12.1102C23.4464 7.23079 35.5683 10.5743 43.9346 19.5448C44.4276 19.1234 44.9351 18.7021 45.4571 18.3079C46.0951 17.8322 46.7766 17.3701 47.4726 16.9488C40.3967 7.61135 29.6668 3.61543 23.0549 7.63853C21.8949 8.41325 20.3289 9.40544 19.2125 10.2345L16.3125 12.5859Z" fill="#1155CC"/>
<path d="M7.97656 22.154C9.12205 20.5502 10.7025 18.4435 11.964 16.9212L12.544 16.2688C12.95 15.8339 13.3995 15.4126 13.907 15.0456C20.4464 10.1662 33.0177 13.0612 41.9496 21.488C41.0506 22.4802 40.2242 23.5403 39.4992 24.6548C27.5803 15.8203 13.443 14.7058 7.97656 22.154Z" fill="#1155CC"/>
<path d="M7.9762 22.1546C9.12169 20.5508 10.7022 18.4441 11.9637 16.9218L12.5436 16.2694C12.9496 15.8345 13.3991 15.4131 13.9066 15.0462C20.446 10.1668 33.0174 13.0618 41.9493 21.4886C41.0503 22.4808 40.2238 23.5409 39.4988 24.6554C27.58 15.8209 13.4426 14.7064 7.9762 22.1546ZM7.8457 22.3584C8.4112 21.4886 9.15069 20.7003 10.0787 20.0071C16.6181 15.1277 29.7694 17.2616 39.4263 24.7506C40.1948 23.5545 41.0648 22.4264 42.0363 21.3798C33.1334 12.9259 20.562 10.0173 14.0371 14.8967C13.5441 15.2636 13.1091 15.6578 12.7176 16.0927L11.9637 16.9218C10.6732 18.512 9.02019 20.6867 7.8457 22.3584Z" fill="#1155CC"/>
<path d="M2.61133 33.3265L2.69833 33.0547C3.43782 31.1247 4.4818 28.583 5.35179 26.7074C5.93179 25.5657 6.80177 24.5328 7.99076 23.6493C14.5302 18.7699 28.0005 20.3465 38.0489 27.1695C37.4399 28.3656 36.9179 29.6296 36.4974 30.9344C26.014 25.1716 12.1667 24.4648 5.62729 29.3442C4.09031 30.4859 3.08982 31.845 2.61133 33.3265Z" fill="#1155CC"/>
<path d="M2.61156 33.3262L2.69856 33.0544C3.43805 31.1244 4.48204 28.5828 5.35203 26.7071C5.93202 25.5654 6.80201 24.5325 7.99099 23.649C14.5304 18.7696 28.0007 20.3463 38.0491 27.1692C37.4401 28.3653 36.9181 29.6293 36.4976 30.9341C26.0143 25.1713 12.1669 24.4645 5.62752 29.3439C4.09054 30.4856 3.09006 31.8447 2.61156 33.3262ZM2.53906 33.5437C3.01756 32.0622 4.03254 30.6895 5.56953 29.5342C12.1089 24.6548 25.9563 25.3344 36.4541 31.0428C36.9036 29.6565 37.4546 28.3109 38.1071 27.0333C28.0877 20.1832 14.6174 18.5794 8.07799 23.4587C6.90351 24.3286 6.03352 25.3616 5.45353 26.4897C4.55454 28.4333 3.43805 31.0428 2.69856 33.0408L2.53906 33.5437Z" fill="#1155CC"/>
<path d="M0.203125 45.1236L0.59462 41.8209L1.26161 38.2055C1.63861 36.561 2.66809 35.0251 4.43707 33.7067C10.9765 28.8274 24.9978 28.8681 35.6987 33.8019C35.3942 35.161 35.1767 36.5746 35.0607 38.0153C24.1713 34.2776 10.005 35.2154 3.46558 40.0948C1.42111 41.617 0.362623 43.3432 0.203125 45.1236Z" fill="#1155CC"/>
<path d="M0.203953 45.124L0.595448 41.8212L1.26244 38.2059C1.63943 36.5613 2.66892 35.0254 4.4379 33.7071C10.9773 28.8277 24.9986 28.8684 35.6995 33.8022C35.395 35.1614 35.1775 36.5749 35.0615 38.0156C24.1721 34.2779 10.0058 35.2157 3.46641 40.0951C1.42194 41.6174 0.363451 43.3435 0.203953 45.124ZM0.189453 45.3415C0.334451 43.561 1.39294 41.8212 3.45191 40.299C9.99133 35.4196 24.1576 34.4546 35.047 38.1515C35.163 36.6157 35.395 35.1206 35.7285 33.6663C25.0276 28.7053 11.0063 28.6238 4.4814 33.5032C2.72692 34.808 1.69743 36.3438 1.32044 37.9748C1.10294 39.1301 0.769446 40.6524 0.609948 41.8076L0.189453 45.3415Z" fill="#1155CC"/>
<path d="M0.495244 57.1121C0.321246 55.1957 0.103749 52.6541 0.03125 50.7377V50.1668C0.683742 42.0526 18.968 37.35 34.9613 41.1828C34.9758 42.6643 35.0773 44.1729 35.2658 45.6952C24.4344 44.1457 10.2971 46.8505 3.7722 51.7162C1.32173 53.5375 0.277747 55.3996 0.495244 57.1121Z" fill="#1155CC"/>
<path d="M0.494119 57.1126C0.320121 55.1962 0.102624 52.6545 0.0301248 50.7381V50.1673C0.682616 42.0531 18.9669 37.3504 34.9602 41.1832C34.9747 42.6647 35.0762 44.1734 35.2647 45.6956C24.4333 44.1462 10.296 46.8509 3.77108 51.7167C1.32061 53.538 0.276622 55.4 0.494119 57.1126ZM0.523118 57.3436C0.305621 55.6447 1.34961 53.769 3.78558 51.9478C10.325 47.0684 24.4478 44.3365 35.2647 45.8452C35.0472 44.2142 34.9457 42.6104 34.9312 41.0337C18.8364 37.1737 0.552118 41.8356 0.015625 49.9226L0.0301248 50.7245C0.131624 52.7225 0.305621 55.3593 0.523118 57.3436Z" fill="#1155CC"/>
<path d="M3.21912 68.9774L3.05962 68.4745C2.50863 66.5717 1.79814 64.0301 1.34864 62.1001C0.696153 55.4538 19.3864 48.359 35.8147 49.025C36.1482 50.5744 36.5687 52.1374 37.0907 53.7141C19.4589 55.2363 1.84164 64.1116 3.21912 68.9774Z" fill="#1155CC"/>
<path d="M3.21916 68.9772L3.05966 68.4743C2.50867 66.5715 1.79818 64.0299 1.34869 62.0998C0.696194 55.4536 19.3865 48.3588 35.8148 49.0248C36.1483 50.5742 36.5687 52.1372 37.0907 53.7138C19.459 55.2361 1.84168 64.1114 3.21916 68.9772ZM3.29166 69.1947C2.85667 67.8763 3.90065 66.1094 6.62662 64.0842C13.166 59.2048 26.8539 54.6245 37.1342 53.8498C36.5687 52.178 36.1193 50.5198 35.7713 48.8617C25.0849 48.2093 11.0926 51.6479 4.55315 56.5273C2.00118 58.4437 0.97169 60.2922 1.29069 61.8824C1.78368 63.8668 2.45067 66.5171 3.04516 68.4743L3.29166 69.1947Z" fill="#1155CC"/>
<path d="M8.2944 80.53L6.53993 77.1321L5.06095 73.8565C4.61145 72.7556 5.69894 71.0839 8.4974 69.0044C15.0368 64.125 28.4346 58.7835 38.3815 57.0981C39.0485 58.6748 39.8025 60.2378 40.658 61.8008C31.3636 64.8182 18.4878 71.247 11.9484 76.1263C9.06289 78.2874 7.88841 79.7825 8.2944 80.53Z" fill="#1155CC"/>
<path d="M8.29408 80.5301L6.5396 77.1322L5.06062 73.8566C4.61112 72.7557 5.69861 71.0839 8.49707 69.0044C15.0365 64.125 28.4343 58.7835 38.3812 57.0982C39.0482 58.6748 39.8022 60.2378 40.6577 61.8008C31.3633 64.8182 18.4874 71.247 11.948 76.1264C9.06257 78.2874 7.88808 79.7825 8.29408 80.5301ZM8.41007 80.7339C7.59808 77.6758 26.0274 66.9656 40.7447 61.9504C39.8312 60.2922 39.0192 58.6204 38.3232 56.9351C21.0684 60.0339 3.72663 69.5345 4.97362 73.6255L6.5396 77.1186L8.41007 80.7339Z" fill="#1155CC"/>
<path d="M15.5147 91.3628C14.1518 89.5416 12.3683 87.1087 11.1068 85.233C10.8023 84.7709 12.0638 83.4118 15.0073 81.2235C21.5467 76.3441 33.9585 69.1406 42.6874 65.1719C43.6734 66.7077 44.7319 68.1756 45.8629 69.5755C38.033 74.8083 26.3606 83.0176 19.8212 87.897C16.8342 90.1124 15.4277 91.2541 15.5147 91.3628Z" fill="#1155CC"/>
<path d="M15.5152 91.3624C14.1523 89.5411 12.3688 87.1082 11.1073 85.2326C10.8028 84.7705 12.0643 83.4113 15.0077 81.2231C21.5472 76.3437 33.959 69.1402 42.6879 65.1715C43.6739 66.7073 44.7324 68.1752 45.8634 69.5751C38.0335 74.8079 26.3611 83.0172 19.8217 87.8965C16.8347 90.112 15.4282 91.2537 15.5152 91.3624ZM15.6602 91.5527C15.5877 91.4575 16.9942 90.3158 19.9522 88.1004C26.4916 83.2211 38.1495 74.971 45.9359 69.7111C44.7324 68.216 43.6159 66.653 42.5574 65.022C33.7995 68.9499 21.3732 76.1263 14.8337 80.992C11.9193 83.1803 10.6578 84.5394 10.9623 85.0287C12.3398 87.0131 14.1958 89.6363 15.6602 91.5527Z" fill="#1155CC"/>
<path d="M24.2442 100.659L22.4172 98.9464C21.3877 97.8998 19.9958 96.5271 19.0098 95.4397C19.1258 95.5621 20.6482 94.5427 23.6062 92.3409C30.1456 87.4615 41.238 78.5726 48.3574 72.5107C49.5609 73.8291 50.8224 75.0796 52.1274 76.2484C46.0809 83.3704 35.8441 93.1292 29.3191 98.0085C26.3757 100.21 24.6792 101.039 24.2442 100.659Z" fill="#1155CC"/>
<path d="M24.2455 100.659L22.4185 98.9467C21.389 97.9001 19.997 96.5274 19.0111 95.4401C19.1271 95.5624 20.6495 94.543 23.6075 92.3412C30.1469 87.4618 41.2393 78.5729 48.3587 72.5111C49.5622 73.8295 50.8236 75.0799 52.1286 76.2488C46.0822 83.3707 35.8453 93.1295 29.3204 98.0089C26.377 100.211 24.6805 101.04 24.2455 100.659ZM24.4195 100.822C24.869 101.216 26.5655 100.374 29.4944 98.1991C36.0338 93.3198 46.2272 83.5338 52.2446 76.3847C50.8526 75.1342 49.5187 73.8023 48.2427 72.4023C41.0943 78.4234 29.9729 87.2987 23.4335 92.1781C20.4755 94.3935 18.9531 95.3993 18.8516 95.2905C19.9245 96.3915 21.3165 97.9001 22.4185 98.9739L24.4195 100.822Z" fill="#1155CC"/>
<path d="M34.2348 108.339C32.8283 107.374 30.9434 106.096 29.5659 105.077L28.2754 104.084C28.9569 104.614 30.7694 103.881 33.6693 101.719C40.2087 96.8401 49.7641 86.5241 54.9986 78.6953C56.3615 79.769 57.768 80.7748 59.2035 81.699C55.1726 90.3841 46.5742 101.393 40.0347 106.273C37.2363 108.366 35.2643 108.991 34.2348 108.339Z" fill="#1155CC"/>
<path d="M34.235 108.338C32.8285 107.373 30.9435 106.095 29.566 105.076L28.2756 104.084C28.9571 104.614 30.7695 103.88 33.6695 101.719C40.2089 96.8395 49.7643 86.5235 54.9987 78.6948C56.3617 79.7685 57.7682 80.7743 59.2037 81.6985C55.1727 90.3835 46.5743 101.393 40.0349 106.272C37.2365 108.365 35.2645 108.99 34.235 108.338ZM34.438 108.474C35.4675 109.126 37.4539 108.501 40.2524 106.422C46.7918 101.542 55.3467 90.5058 59.3487 81.8072C57.8262 80.8286 56.3327 79.7549 54.8827 78.5996C49.6193 86.3876 40.0204 96.69 33.481 101.569C30.581 103.73 28.7686 104.464 28.1016 103.948L29.5805 105.09C31.016 106.109 32.93 107.495 34.438 108.474Z" fill="#1155CC"/>
<path d="M45.2981 114.278C43.3116 113.34 40.6726 112.076 38.7441 111.043C40.0056 111.737 42.0646 111.166 44.7906 109.127C51.33 104.248 59.1889 92.7899 62.3353 83.5884C63.8143 84.4039 65.3078 85.1514 66.8158 85.8038C64.9453 95.6441 58.1159 107.605 51.5765 112.484C49.01 114.414 46.8495 114.958 45.2981 114.278Z" fill="#1155CC"/>
<path d="M45.2979 114.278C43.3115 113.34 40.6725 112.076 38.744 111.043C40.0055 111.736 42.0645 111.165 44.7904 109.127C51.3299 104.247 59.1888 92.7895 62.3352 83.588C63.8142 84.4035 65.3077 85.151 66.8157 85.8034C64.9452 95.6437 58.1158 107.604 51.5764 112.484C49.0099 114.414 46.8494 114.957 45.2979 114.278ZM45.5154 114.373C47.0669 115.039 49.2274 114.509 51.8084 112.579C58.3478 107.699 65.1482 95.7253 66.9752 85.8714C65.3657 85.1782 63.7707 84.3899 62.2047 83.52C59.0148 92.6943 51.1124 104.138 44.5874 109.018C41.8615 111.057 39.788 111.627 38.541 110.934C40.6145 112.008 43.384 113.421 45.5154 114.373Z" fill="#1155CC"/>
<path d="M57.3181 118.287L54.6356 117.594C53.3161 117.186 51.5472 116.67 50.2422 116.208C51.9532 116.792 54.1281 116.262 56.5786 114.427C63.118 109.548 69.1934 97.2883 70.1214 87.0811C71.6584 87.6111 73.1954 88.0732 74.7323 88.4266C75.1093 99.0145 70.0924 111.587 63.5675 116.466C61.32 118.165 59.1741 118.709 57.3181 118.287Z" fill="#1155CC"/>
<path d="M57.3196 118.288L54.6372 117.594C53.3177 117.187 51.5487 116.67 50.2437 116.208C51.9547 116.792 54.1297 116.262 56.5801 114.428C63.1195 109.548 69.195 97.2886 70.1229 87.0813C71.6599 87.6114 73.1969 88.0735 74.7339 88.4269C75.1109 99.0147 70.0939 111.587 63.569 116.466C61.3216 118.165 59.1756 118.709 57.3196 118.288ZM57.5516 118.342C59.4076 118.763 61.5391 118.206 63.7865 116.534C70.3259 111.655 75.2994 99.0691 74.8789 88.4812C73.2404 88.1007 71.6019 87.625 69.9634 87.0405C68.992 97.2206 62.873 109.48 56.3481 114.36C53.8832 116.194 51.7082 116.724 50.0117 116.14C51.4037 116.589 53.2307 117.2 54.6372 117.594L57.5516 118.342Z" fill="#1155CC"/>
<path d="M70.1074 119.973C68.266 119.85 65.8155 119.687 63.974 119.484L62.582 119.293C64.467 119.579 66.526 118.994 68.5995 117.458C75.1389 112.579 79.3728 99.8573 78.0534 89.0928C79.5903 89.3238 81.1273 89.4597 82.6353 89.5141C86.1298 105.933 78.5464 120.231 70.1074 119.973Z" fill="#1155CC"/>
<path d="M70.107 119.973C68.2655 119.851 65.8151 119.688 63.9736 119.484L62.5816 119.294C64.4666 119.579 66.5256 118.995 68.599 117.459C75.1384 112.579 79.3724 99.8576 78.0529 89.0931C79.5899 89.3242 81.1269 89.4601 82.6349 89.5144C86.1293 105.933 78.5459 120.231 70.107 119.973ZM70.3535 119.987C80.7644 119.525 85.8828 102.848 82.7943 89.5144C81.1849 89.4737 79.5464 89.3242 77.9079 89.0659C79.1839 99.8304 74.9064 112.552 68.3815 117.418C66.2936 118.967 64.2346 119.538 62.3496 119.253L63.9881 119.484C65.8876 119.674 68.4395 119.987 70.3535 119.987Z" fill="#1155CC"/>
<path d="M83.3311 118.872C81.0256 119.253 77.9372 119.674 75.6172 119.891C77.2702 119.783 78.9231 119.171 80.4746 118.016C87.014 113.136 89.4355 100.333 85.8976 89.4599C87.391 89.3648 88.8555 89.1745 90.3055 88.8755C96.5549 103.949 91.7845 117.132 83.3311 118.872Z" fill="#1155CC"/>
<path d="M83.3315 118.872C81.026 119.252 77.9376 119.674 75.6176 119.891C77.2706 119.783 78.9236 119.171 80.475 118.016C87.0145 113.136 89.4359 100.333 85.898 89.4598C87.3915 89.3646 88.8559 89.1743 90.3059 88.8753C96.5553 103.948 91.7849 117.132 83.3315 118.872ZM83.578 118.818C93.0029 116.249 96.2073 102.236 90.4364 88.8481C88.8994 89.1608 87.3335 89.3646 85.753 89.4598C89.2619 100.333 86.797 113.15 80.2575 118.016C78.6916 119.185 77.0386 119.796 75.3711 119.891C80.04 119.456 81.4465 119.334 83.578 118.818Z" fill="#1155CC"/>
<path d="M96.396 114.4L93.409 115.773C92.0605 116.276 90.277 116.983 88.9141 117.431C89.929 117.105 90.886 116.616 91.7995 115.936C98.3389 111.057 99.0349 98.5661 93.38 88.087C94.2065 87.8288 95.033 87.5298 95.8305 87.19C96.3815 86.9589 96.9035 86.7143 97.4254 86.4561C104.24 96.473 104.458 108.597 97.9329 113.463C97.4254 113.829 96.9179 114.142 96.396 114.4Z" fill="#1155CC"/>
<path d="M96.3961 114.4L93.4091 115.773C92.0606 116.276 90.2772 116.983 88.9142 117.431C89.9292 117.105 90.8861 116.616 91.7996 115.936C98.339 111.057 99.035 98.5662 93.3801 88.0871C94.2066 87.8289 95.0331 87.5299 95.8306 87.1901C96.3816 86.959 96.9036 86.7144 97.4256 86.4561C104.24 96.4731 104.458 108.597 97.9331 113.463C97.4256 113.83 96.9181 114.142 96.3961 114.4ZM96.6281 114.278C97.1356 114.02 97.6286 113.721 98.0925 113.367C104.632 108.488 104.371 96.3916 97.5271 86.3882C96.9761 86.6736 96.3961 86.9319 95.8016 87.1765C94.9606 87.5299 94.0906 87.8425 93.2206 88.1143C98.8465 98.607 98.107 111.111 91.5676 115.991C90.6541 116.67 89.6682 117.173 88.6387 117.499C90.0742 116.996 91.9881 116.344 93.3801 115.773L96.6281 114.278Z" fill="#1155CC"/>
<path d="M107.56 106.762C106.472 107.673 105.037 108.923 103.906 109.779L101.383 111.533C101.557 111.424 101.731 111.302 101.905 111.166C108.444 106.286 107.603 94.5159 100.049 84.9339C100.498 84.6349 100.948 84.3358 101.368 84.0096C102.035 83.5068 102.673 82.9767 103.282 82.4194C111.431 90.9549 113.215 101.611 107.56 106.762Z" fill="#1155CC"/>
<path d="M107.56 106.761C106.473 107.672 105.038 108.923 103.907 109.779L101.384 111.532C101.558 111.423 101.732 111.301 101.906 111.165C108.445 106.286 107.604 94.5155 100.05 84.9334C100.499 84.6344 100.949 84.3354 101.369 84.0092C102.036 83.5063 102.674 82.9762 103.283 82.419C111.432 90.9545 113.215 101.61 107.56 106.761ZM107.749 106.585C113.346 101.42 111.533 90.8185 103.385 82.3374C102.747 82.9218 102.08 83.4927 101.369 84.0092C100.905 84.349 100.427 84.6887 99.9336 85.0014C107.459 94.6106 108.271 106.394 101.732 111.274C101.543 111.41 101.355 111.546 101.166 111.668L103.907 109.765C105.081 108.841 106.647 107.591 107.749 106.585Z" fill="#1155CC"/>
<path d="M115.782 96.8395C114.535 98.6744 112.781 101.067 111.389 102.82C115.985 97.4919 113.564 87.9235 105.299 80.353C106.169 79.3472 106.966 78.2599 107.662 77.1182C115.956 83.3975 119.074 91.5524 115.782 96.8395Z" fill="#1155CC"/>
<path d="M115.782 96.8399C114.535 98.6747 112.781 101.067 111.389 102.82C115.985 97.4923 113.564 87.9238 105.299 80.3533C106.169 79.3475 106.967 78.2602 107.663 77.1185C115.956 83.3978 119.074 91.5528 115.782 96.8399ZM115.913 96.636C119.161 91.3489 116.014 83.2483 107.75 77.0098C107.01 78.2194 106.169 79.3747 105.227 80.4484C113.491 88.0461 115.898 97.6826 111.244 102.997C114.332 99.164 114.448 99.0145 115.913 96.636Z" fill="#1155CC"/>
<path d="M120.87 85.5994L120.435 86.9721C119.826 88.576 119 90.6962 118.304 92.2593C120.754 87.1352 117.274 79.9589 109.082 74.5766C109.662 73.3534 110.155 72.0894 110.547 70.771C122.32 77.3765 121.421 83.7917 120.87 85.5994Z" fill="#1155CC"/>
<path d="M120.871 85.5996L120.436 86.9723C119.827 88.5761 119 90.6964 118.304 92.2594C120.755 87.1354 117.275 79.9591 109.082 74.5768C109.662 73.3536 110.155 72.0896 110.547 70.7712C122.321 77.3767 121.422 83.7919 120.871 85.5996ZM120.929 85.3821C122.625 77.8932 114.244 72.5788 110.576 70.6353C110.155 72.0352 109.633 73.3943 109.01 74.6855C117.217 80.1086 120.668 87.3257 118.188 92.4497C118.899 90.8187 119.827 88.6169 120.421 86.9451L120.929 85.3821Z" fill="#1155CC"/>
<path d="M123.004 73.7613C122.873 75.0933 122.728 76.8738 122.54 78.2058L122.105 80.6794C122.873 74.4952 116.638 70.2819 111.273 67.849C111.549 66.4762 111.723 65.0491 111.824 63.6084C121.351 66.9519 123.163 70.975 123.004 73.7613Z" fill="#1155CC"/>
<path d="M123.004 73.7614C122.873 75.0934 122.728 76.8739 122.54 78.2058L122.105 80.6795C122.873 74.4953 116.638 70.282 111.273 67.8491C111.549 66.4763 111.723 65.0492 111.824 63.6085C121.351 66.952 123.163 70.9751 123.004 73.7614ZM123.018 73.5303C123.265 69.7383 119.248 65.8375 111.824 63.459C111.737 65.0084 111.534 66.5171 111.244 67.9714C119.031 71.4236 122.96 76.5069 122.061 80.897L122.54 78.1922C122.685 76.8059 122.917 74.9303 123.018 73.5303Z" fill="#1155CC"/>
<path d="M122.481 61.7602C122.713 63.8397 122.988 66.626 123.09 68.7191C122.539 63.9757 116.695 61.5971 111.867 60.4283C111.823 58.9332 111.693 57.4245 111.461 55.8887C118.189 56.7178 122.075 58.9875 122.481 61.7602Z" fill="#1155CC"/>
<path d="M122.482 61.7603C122.714 63.8398 122.989 66.6261 123.091 68.7192C122.54 63.9758 116.696 61.5972 111.868 60.4284C111.824 58.9333 111.694 57.4246 111.462 55.8888C118.19 56.7179 122.076 58.9876 122.482 61.7603ZM122.438 61.5429C122.032 58.7974 118.146 56.5412 111.447 55.7393C111.694 57.3702 111.839 58.9876 111.868 60.5779C119.016 62.3312 123.004 65.5524 123.091 68.9503C122.96 66.7213 122.743 63.7447 122.438 61.5429Z" fill="#1155CC"/>
<path d="M119.508 49.9219L120.059 51.5393C120.509 53.1159 121.132 55.1954 121.524 56.7856C120.625 54.2168 117.029 52.7897 110.823 52.545C110.46 50.9956 109.996 49.419 109.445 47.8559C111.678 47.6928 118.435 47.1899 119.508 49.9219Z" fill="#1155CC"/>
<path d="M119.509 49.9219L120.06 51.5393C120.509 53.116 121.133 55.1955 121.524 56.7857C120.625 54.2169 117.029 52.7898 110.823 52.5451C110.461 50.9957 109.997 49.4191 109.446 47.856C111.679 47.6929 118.436 47.19 119.509 49.9219ZM119.436 49.7045C118.827 48.522 117.116 47.0405 109.402 47.7065C109.997 49.3783 110.49 51.0501 110.867 52.6946C117.29 52.9529 121.046 54.6382 121.582 57.0032C121.147 55.3586 120.582 53.1567 120.074 51.5393L119.436 49.7045Z" fill="#1155CC"/>
<path d="M114.23 38.4097C114.941 39.7553 115.927 41.5222 116.579 42.8813L117.58 45.056C116.985 43.6832 113.694 43.3706 108.097 44.458C107.401 42.8813 106.618 41.3183 105.719 39.7553C110.823 37.9612 113.752 37.567 114.23 38.4097Z" fill="#1155CC"/>
<path d="M114.229 38.4097C114.94 39.7552 115.926 41.5222 116.578 42.8813L117.579 45.056C116.984 43.6832 113.693 43.3706 108.096 44.4579C107.4 42.8813 106.617 41.3183 105.718 39.7552C110.822 37.9612 113.751 37.567 114.229 38.4097ZM114.099 38.2058C113.635 37.3767 110.72 37.7845 105.631 39.6057C106.588 41.2639 107.429 42.9357 108.168 44.6074C110.474 44.2133 116.593 43.1531 117.68 45.2734L116.578 42.8813C115.839 41.4814 114.896 39.5786 114.099 38.2058Z" fill="#1155CC"/>
<path d="M44.3418 19.8029C44.7913 19.4087 45.2698 19.0282 45.7483 18.6748C53.4187 27.9443 54.4482 39.266 47.9958 44.0774L47.8653 44.1862C53.6652 39.1437 52.1717 28.4743 44.3418 19.8029Z" fill="#1155CC"/>
<path d="M44.3408 19.803C44.7903 19.4088 45.2688 19.0283 45.7473 18.6749C53.4177 27.9444 54.4471 39.2661 47.9947 44.0776L47.8642 44.1863C53.6642 39.1438 52.1707 28.4744 44.3408 19.803ZM44.0508 19.6671C52.0547 28.3385 53.6642 39.103 47.8497 44.1863L47.9947 44.064C54.4906 39.2118 53.4032 27.7405 45.5588 18.4438C45.0368 18.838 44.5438 19.2458 44.0508 19.6671Z" fill="#1155CC"/>
<path d="M39.8594 24.9409C40.5844 23.84 41.3964 22.7799 42.2808 21.8013C50.2557 29.5213 52.4162 39.1441 47.6458 44.3769L47.6168 44.4177C47.5153 44.54 47.3993 44.7031 47.3123 44.8254C50.7487 39.5926 47.8778 31.3833 39.8594 24.9409Z" fill="#1155CC"/>
<path d="M39.8592 24.9406C40.5842 23.8397 41.3962 22.7796 42.2807 21.801C50.2556 29.521 52.416 39.1438 47.6456 44.3766L47.6166 44.4173C47.5151 44.5397 47.3991 44.7028 47.3121 44.8251C50.7485 39.5923 47.8776 31.383 39.8592 24.9406ZM39.5547 24.8727C47.7326 31.3015 50.7195 39.5651 47.2831 44.8523C47.3701 44.7164 47.5006 44.5533 47.6021 44.4173L47.6456 44.363C52.503 39.103 50.2846 29.3035 42.1502 21.502C41.1932 22.5485 40.3232 23.6766 39.5547 24.8727Z" fill="#1155CC"/>
<path d="M36.8867 31.1382C37.3072 29.847 37.8292 28.6101 38.4237 27.4141C46.3696 32.9594 49.632 40.2037 47.0366 45.3006C46.9206 45.5588 46.7756 45.8986 46.6886 46.1569L46.6741 46.1976C48.2401 41.4814 44.6296 35.5147 36.8867 31.1382Z" fill="#1155CC"/>
<path d="M36.8877 31.138C37.3081 29.8468 37.8301 28.61 38.4246 27.4139C46.3705 32.9593 49.633 40.2036 47.0375 45.3004C46.9215 45.5587 46.7765 45.8985 46.6895 46.1567L46.675 46.1975C48.241 41.4812 44.6306 35.5145 36.8877 31.138ZM36.5977 31.1244C44.5001 35.4737 48.212 41.4812 46.6605 46.2383L46.6895 46.1567C46.791 45.8849 46.936 45.5315 47.052 45.2733C49.7055 40.122 46.3705 32.7418 38.2506 27.1421C37.5981 28.4197 37.0472 29.7517 36.5977 31.1244Z" fill="#1155CC"/>
<path d="M35.4668 38.1654C35.5828 36.7383 35.8003 35.3519 36.0903 34.0063C43.6447 37.5945 47.4146 42.7185 46.4142 47.095L46.2837 47.8154L46.1967 48.6037C46.5447 44.7709 42.6877 40.7342 35.4668 38.1654Z" fill="#1155CC"/>
<path d="M35.4661 38.1652C35.5821 36.7381 35.7996 35.3518 36.0896 34.0062C43.644 37.5944 47.4139 42.7184 46.4134 47.0949L46.2829 47.8152L46.1959 48.6036C46.5439 44.7707 42.687 40.734 35.4661 38.1652ZM35.2051 38.206C42.571 40.7476 46.5294 44.7843 46.2104 48.6443L46.3119 47.8017C46.3554 47.5706 46.3989 47.2716 46.4569 47.0405C47.4864 42.5961 43.6295 37.3769 35.9011 33.7344C35.5531 35.1887 35.3211 36.6837 35.2051 38.206Z" fill="#1155CC"/>
<path d="M35.6561 45.7495C35.4676 44.2408 35.3661 42.7457 35.3516 41.2778C42.297 43.1671 46.1394 46.4698 46.1684 49.8677V50.0172C46.1974 50.6016 46.2554 51.3628 46.3134 51.9472C45.9654 49.1474 42.1955 46.7688 35.6561 45.7495Z" fill="#1155CC"/>
<path d="M35.6553 45.7496C35.4668 44.241 35.3653 42.7459 35.3508 41.278C42.2962 43.1672 46.1387 46.47 46.1677 49.8679V50.0174C46.1967 50.6018 46.2547 51.363 46.3127 51.9474C45.9647 49.1475 42.1947 46.769 35.6553 45.7496ZM35.4233 45.8584C42.1077 46.8234 45.9502 49.2019 46.3127 52.0289C46.2547 51.4309 46.1822 50.629 46.1532 50.031V49.8135C46.1532 46.3477 42.1947 42.977 35.0898 41.0605C35.1043 42.6372 35.2058 44.241 35.4233 45.8584Z" fill="#1155CC"/>
<path d="M37.4978 53.6728C36.9758 52.1234 36.5553 50.5739 36.2363 49.0381C40.5138 49.4187 45.5597 50.2749 46.6037 53.6185C46.7777 54.3116 47.0097 55.2358 47.2272 55.9154L47.2852 56.1057C46.6762 54.298 43.2687 53.3194 37.4978 53.6728Z" fill="#1155CC"/>
<path d="M37.4976 53.6729C36.9756 52.1235 36.5551 50.574 36.2361 49.0382C40.5136 49.4187 45.5595 50.275 46.6035 53.6185C46.7775 54.3117 47.0095 55.2359 47.227 55.9155L47.285 56.1058C46.676 54.2981 43.2685 53.3195 37.4976 53.6729ZM37.2946 53.8496C43.2105 53.4283 46.6905 54.3797 47.2995 56.2009L47.2125 55.9291C47.0095 55.2223 46.734 54.2709 46.5745 53.5506C46.067 51.1041 42.3406 49.2964 35.9316 48.8887C36.2941 50.5197 36.7436 52.1778 37.2946 53.8496Z" fill="#1155CC"/>
<path d="M41.0198 61.6924C40.1643 60.1429 39.4248 58.5935 38.7578 57.0304C44.2097 56.147 47.4142 56.5955 48.0087 58.0226L48.6032 59.341L49.3427 60.7681C48.8497 59.8711 45.9787 60.1157 41.0198 61.6924Z" fill="#1155CC"/>
<path d="M41.0196 61.6925C40.1641 60.1431 39.4246 58.5936 38.7576 57.0306C44.2095 56.1472 47.414 56.5957 48.0085 58.0228L48.603 59.3412L49.3425 60.7683C48.8495 59.8712 45.9785 60.1159 41.0196 61.6925ZM40.8746 61.91C42.7886 61.3119 48.603 59.4635 49.386 60.8634L48.603 59.3548L47.965 57.9412C47.588 57.316 46.573 55.6579 38.4531 56.9219C39.1636 58.5936 39.9611 60.2518 40.8746 61.91Z" fill="#1155CC"/>
<path d="M46.1378 69.3717C45.0358 67.9853 43.9773 66.531 43.0059 65.0088C47.6023 62.9293 50.1833 62.2225 50.5458 62.7798C51.1113 63.5953 51.8653 64.669 52.4742 65.4573C52.3727 65.335 50.2123 66.6534 46.1378 69.3717Z" fill="#1155CC"/>
<path d="M46.1376 69.3717C45.0356 67.9854 43.9772 66.5311 43.0057 65.0088C47.6021 62.9293 50.1831 62.2225 50.5456 62.7798C51.1111 63.5953 51.8651 64.669 52.4741 65.4573C52.3726 65.335 50.2121 66.6534 46.1376 69.3717ZM46.0651 69.63C50.2556 66.8029 52.4451 65.4301 52.5466 65.5525C51.9086 64.7098 51.0821 63.5681 50.4876 62.6982C50.1251 62.1138 47.4426 62.8341 42.7012 64.9544C43.7452 66.5854 44.8616 68.1485 46.0651 69.63Z" fill="#1155CC"/>
<path d="M52.3436 75.9905C51.0532 74.8216 49.8062 73.5848 48.6172 72.2936C52.3291 69.1268 54.1416 67.4142 53.9966 67.2783C54.4461 67.7404 55.0261 68.3656 55.4901 68.8142L56.2876 69.5481C56.8096 69.9966 55.5046 72.2256 52.3436 75.9905Z" fill="#1155CC"/>
<path d="M52.3446 75.9909C51.0541 74.8221 49.8071 73.5852 48.6181 72.294C52.3301 69.1272 54.1425 67.4147 53.9976 67.2787C54.447 67.7408 55.027 68.3661 55.491 68.8146L56.2885 69.5485C56.8105 69.9971 55.5055 72.2261 52.3446 75.9909ZM52.3301 76.2628C55.578 72.3756 56.912 70.0786 56.361 69.6029L55.491 68.801C55.027 68.3117 54.3745 67.6865 53.9251 67.1836C54.0556 67.3195 52.1706 69.0592 48.3281 72.294C49.6041 73.694 50.9381 75.0259 52.3301 76.2628Z" fill="#1155CC"/>
<path d="M59.3489 81.3728C57.928 80.4486 56.536 79.4564 55.1875 78.3963C57.9425 74.2101 58.8415 71.6548 58.015 71.0024L58.566 71.4238C59.1314 71.8315 59.8854 72.3752 60.4654 72.7558C61.7994 73.612 61.5239 76.6158 59.3489 81.3728Z" fill="#1155CC"/>
<path d="M59.3482 81.3729C57.9272 80.4487 56.5353 79.4565 55.1868 78.3963C57.9417 74.2101 58.8407 71.6549 58.0142 71.0025L58.5652 71.4239C59.1307 71.8316 59.8847 72.3753 60.4647 72.7558C61.7987 73.6121 61.5232 76.6159 59.3482 81.3729ZM59.3917 81.6719C61.6247 76.779 61.9147 73.6801 60.5372 72.8102C59.9427 72.4025 59.1307 71.8588 58.5507 71.4239L57.9272 70.9346C58.7537 71.587 57.8112 74.1966 54.9258 78.4779C56.3903 79.6332 57.8692 80.6933 59.3917 81.6719Z" fill="#1155CC"/>
<path d="M66.9025 85.4363C65.409 84.7839 63.93 84.05 62.4655 83.2481C64.1765 78.0833 63.9735 74.7805 62.248 73.8291C62.9585 74.1961 63.93 74.6854 64.655 75.0252C66.975 76.0173 67.9175 79.7007 66.9025 85.4363Z" fill="#1155CC"/>
<path d="M66.9027 85.4366C65.4092 84.7842 63.9303 84.0503 62.4658 83.2484C64.1768 78.0836 63.9738 74.7808 62.2483 73.8294C62.9588 74.1964 63.9303 74.6857 64.6553 75.0255C66.9752 76.0177 67.9177 79.701 66.9027 85.4366ZM67.0042 85.7356C68.0627 79.8641 67.1057 76.072 64.7423 75.0663C63.9593 74.6993 62.9298 74.1964 62.1758 73.8022C63.9013 74.7537 64.0608 78.1379 62.2628 83.3979C63.8143 84.2542 65.3947 85.0425 67.0042 85.7356Z" fill="#1155CC"/>
<path d="M74.7185 88.0466C73.196 87.6932 71.6735 87.2447 70.1511 86.7146C70.644 80.5712 69.0926 76.6296 66.3086 75.6782C66.7291 75.8141 67.2801 75.9908 67.7006 76.1132L68.4546 76.3034C71.92 77.1053 74.385 81.3323 74.7185 88.0466Z" fill="#1155CC"/>
<path d="M74.7187 88.0464C73.1962 87.693 71.6737 87.2445 70.1513 86.7144C70.6443 80.571 69.0928 76.6295 66.3088 75.6781C66.7293 75.814 67.2803 75.9907 67.7008 76.113L68.4548 76.3033C71.9202 77.1052 74.3852 81.3322 74.7187 88.0464ZM74.8782 88.3318C74.5737 81.4545 72.0507 77.1188 68.5128 76.3169L67.7008 76.113C67.2658 75.9771 66.6713 75.8004 66.2363 75.6509C69.0348 76.6295 70.5573 80.639 69.9918 86.9047C71.6157 87.4756 73.2397 87.9513 74.8782 88.3318Z" fill="#1155CC"/>
<path d="M82.5328 89.093C81.0393 89.0523 79.5168 88.9028 77.9943 88.6853C77.0228 81.5769 73.8039 77.1732 69.8164 76.5752L70.1644 76.6296C70.5559 76.6703 71.0634 76.7111 71.4549 76.7383C78.0813 77.3363 81.1408 83.7923 82.5328 89.093Z" fill="#1155CC"/>
<path d="M82.5333 89.093C81.0398 89.0522 79.5173 88.9027 77.9948 88.6852C77.0233 81.5768 73.8044 77.1731 69.8169 76.5751L70.1649 76.6295C70.5564 76.6703 71.0639 76.711 71.4554 76.7382C78.0818 77.3362 81.1413 83.7922 82.5333 89.093ZM82.7508 89.3512C79.9233 79.2663 75.0949 76.9149 71.5279 76.7246C71.1219 76.6974 70.5854 76.6567 70.1794 76.6159L69.7734 76.5615C73.7754 77.1731 76.9943 81.672 77.8933 88.9163C79.5173 89.1609 81.1413 89.3104 82.7508 89.3512Z" fill="#1155CC"/>
<path d="M90.1161 88.4676C88.6952 88.753 87.2307 88.9433 85.7662 89.0384C83.0257 81.0058 77.7043 76.3711 72.4844 76.7109C72.8179 76.6837 73.2529 76.6293 73.5719 76.575C83.1127 75.2158 88.6372 85.3415 90.1161 88.4676Z" fill="#1155CC"/>
<path d="M90.1175 88.4677C88.6965 88.7531 87.232 88.9434 85.7676 89.0385C83.0271 81.0059 77.7057 76.3712 72.4857 76.711C72.8192 76.6838 73.2542 76.6294 73.5732 76.5751C83.1141 75.2159 88.6385 85.3416 90.1175 88.4677ZM90.364 88.6987C83.9696 75.7052 75.9077 76.1265 73.5877 76.5751C72.8627 76.6974 72.8627 76.6974 72.4277 76.7246C77.6767 76.412 83.0126 81.1418 85.6951 89.324C87.2755 89.2152 88.8415 89.0113 90.364 88.6987Z" fill="#1155CC"/>
<path d="M97.1351 86.0752C96.6276 86.3334 96.0911 86.578 95.5546 86.7955C94.7571 87.1353 93.9596 87.4207 93.1331 87.679C88.2322 78.9124 80.3298 74.4408 74.1094 76.4251C74.2254 76.3844 74.3849 76.33 74.5009 76.2756L74.7039 76.1805C81.2288 72.9457 90.8277 77.0639 97.1351 86.0752Z" fill="#1155CC"/>
<path d="M97.134 86.0755C96.6265 86.3338 96.09 86.5784 95.5535 86.7959C94.756 87.1357 93.9585 87.4211 93.132 87.6793C88.2311 78.9128 80.3287 74.4411 74.1083 76.4255C74.2242 76.3847 74.3837 76.3304 74.4997 76.276L74.7027 76.1809C81.2277 72.9461 90.8265 77.0643 97.134 86.0755ZM97.424 86.2522C91.073 77.0643 81.3002 72.8781 74.7317 76.1945L74.5142 76.2896C74.3837 76.3304 74.2242 76.3983 74.0938 76.4391C80.3577 74.4683 88.2891 79.0487 93.1465 87.9783C94.0165 87.7065 94.872 87.3939 95.713 87.0405C96.293 86.7959 96.873 86.524 97.424 86.2522Z" fill="#1155CC"/>
<path d="M101.064 83.6697C100.644 83.9823 100.209 84.2949 99.759 84.5804C92.3931 75.5012 81.5327 71.7771 75.0078 76.0313L75.1238 75.9497C81.5762 71.1383 93.1326 74.6041 101.064 83.6697Z" fill="#1155CC"/>
<path d="M101.065 83.6696C100.644 83.9822 100.209 84.2948 99.7598 84.5802C92.3939 75.5011 81.5336 71.777 75.0086 76.0311L75.1246 75.9496C81.577 71.1382 93.1334 74.604 101.065 83.6696ZM101.253 83.8871C93.3219 74.6584 81.635 71.0974 75.1246 75.9496L74.9941 76.0447C81.5771 71.8042 92.5099 75.637 99.8323 84.8792C100.311 84.5666 100.789 84.2269 101.253 83.8871Z" fill="#1155CC"/>
</g>
<defs>
<clipPath id="clip0_2481_602">
<rect width="123.103" height="120" fill="white"/>
</clipPath>
</defs>
</svg>
