<svg width="114" height="120" viewBox="0 0 114 120" fill="none" xmlns="http://www.w3.org/2000/svg">
<path d="M81.0988 42.5059C81.7846 43.1258 82.4222 43.783 83.0358 44.4773C81.5199 49.623 81.0747 53.7767 83.854 57.36C83.2163 56.6781 82.338 55.7853 81.6642 55.1406C79.4023 53.0327 79.0294 48.7054 81.0988 42.5059Z" fill="#1155CC"/>
<path d="M81.0976 42.5054C81.7834 43.1253 82.421 43.7825 83.0346 44.4768C81.5187 49.6225 81.0735 53.7762 83.8528 57.3595C83.2151 56.6775 82.3368 55.7848 81.6631 55.1401C79.4011 53.0322 79.0282 48.7049 81.0976 42.5054ZM81.0374 42.4434C78.968 48.6429 79.329 52.9702 81.5909 55.0657C82.2887 55.7476 83.2271 56.6652 83.8889 57.3967C81.5668 54.7681 81.1216 50.3416 83.0587 44.514C82.4331 43.7949 81.7473 43.1005 81.0374 42.4434Z" fill="#1155CC"/>
<path d="M77.3218 39.5669C78.1039 40.0877 78.8618 40.6332 79.5837 41.216C77.4421 47.6139 77.6828 51.842 79.8003 53.5531C79.0182 52.9703 77.9715 52.1892 77.1774 51.6312L76.8406 51.4081C75.0358 49.7342 75.1682 46.4112 77.3218 39.5669Z" fill="#1155CC"/>
<path d="M77.3224 39.5672C78.1044 40.0879 78.8624 40.6335 79.5843 41.2163C77.4427 47.6142 77.6833 51.8423 79.8008 53.5534C79.0188 52.9706 77.9721 52.1895 77.178 51.6315L76.8411 51.4083C75.0364 49.7344 75.1687 46.4115 77.3224 39.5672ZM77.2381 39.5176C75.0244 46.1511 74.9883 50.1808 76.7328 51.3339L77.1659 51.6191C77.9841 52.2019 79.0789 52.9954 79.8851 53.6154C77.7555 51.8919 77.5149 47.6638 79.6444 41.2659C78.8744 40.6459 78.0803 40.0631 77.2381 39.5176Z" fill="#1155CC"/>
<path d="M73.0865 37.2109C73.9407 37.6077 74.7829 38.0417 75.589 38.5128C73.3391 45.258 73.0744 49.1389 74.4701 49.9448L72.7736 49.0149L70.9328 48.1098C70.1388 47.7254 70.8005 44.0429 73.0865 37.2109Z" fill="#1155CC"/>
<path d="M73.0866 37.211C73.9409 37.6078 74.7831 38.0418 75.5892 38.5129C73.3393 45.2581 73.0746 49.139 74.4703 49.9449L72.7738 49.015L70.933 48.1099C70.1389 47.7255 70.8007 44.0429 73.0866 37.211ZM73.0024 37.1738C70.7164 44.0181 70.0427 47.6883 70.8127 48.0603L72.7618 49.015L74.5665 50.0069C73.1588 49.1762 73.4115 45.2953 75.6614 38.5501C74.8071 38.0542 73.9048 37.583 73.0024 37.1738Z" fill="#1155CC"/>
<path d="M68.5506 35.4751C69.453 35.7479 70.3313 36.0579 71.2096 36.405C70.1989 39.4552 67.8408 46.6095 68.2498 46.9567L67.925 46.8327C66.8782 46.4607 65.4826 45.9648 64.4238 45.63C64.8329 45.7416 66.2526 42.3566 68.5506 35.4751Z" fill="#1155CC"/>
<path d="M68.5501 35.4755C69.4525 35.7483 70.3308 36.0582 71.2091 36.4054C70.1985 39.4556 67.8403 46.6099 68.2494 46.9571L67.9245 46.8331C66.8778 46.4611 65.4821 45.9651 64.4234 45.6304C64.8324 45.742 66.2521 42.357 68.5501 35.4755ZM68.4659 35.4507C66.1679 42.3198 64.7362 45.7048 64.291 45.5932C65.3859 45.9527 66.8417 46.4363 67.9245 46.8331L68.3697 47.0067C68.0448 46.8703 68.9953 43.3241 71.2933 36.4302C70.3669 36.0706 69.4164 35.7359 68.4659 35.4507Z" fill="#1155CC"/>
<path d="M63.8692 34.4209C64.7835 34.5573 65.6859 34.7309 66.6003 34.9541C64.3143 41.786 62.5818 45.0965 61.6193 44.8734C60.4763 44.6378 58.9363 44.3154 57.7812 44.1294C59.4536 44.3774 61.6193 41.1536 63.8692 34.4209Z" fill="#1155CC"/>
<path d="M63.8684 34.4216C64.7828 34.558 65.6851 34.7316 66.5995 34.9547C64.3135 41.7867 62.581 45.0972 61.6185 44.874C60.4755 44.6385 58.9355 44.3161 57.7805 44.1301C59.4528 44.3781 61.6185 41.1543 63.8684 34.4216ZM63.7842 34.4092C61.5343 41.1419 59.3566 44.3533 57.6602 44.1053L57.7805 44.1301C58.9716 44.3409 60.5597 44.6385 61.7388 44.9112C62.6652 45.122 64.3978 41.8239 66.6717 34.9795C65.7212 34.744 64.7467 34.558 63.7842 34.4092Z" fill="#1155CC"/>
<path d="M59.2015 34.0737C60.0919 34.0737 61.0062 34.1109 61.9086 34.1853C59.7068 40.7941 57.2765 43.9806 55.1108 43.807L52.9692 43.6707L51.5977 43.6459C54.3288 43.6211 57.072 40.4469 59.2015 34.0737Z" fill="#1155CC"/>
<path d="M59.2027 34.0742C60.093 34.0742 61.0074 34.1114 61.9098 34.1857C59.708 40.7945 57.2777 43.981 55.112 43.8075L52.9704 43.6711L51.5988 43.6463C54.33 43.6215 57.0731 40.4473 59.2027 34.0742ZM59.1064 34.0742C56.9769 40.4473 54.2337 43.6215 51.4785 43.6587L52.9584 43.6835L55.2203 43.8199C57.3619 43.9935 59.7802 40.8069 61.982 34.1981C61.0315 34.1113 60.069 34.0618 59.1064 34.0742Z" fill="#1155CC"/>
<path d="M54.6786 34.4708C55.5329 34.322 56.3991 34.2104 57.2774 34.1484C55.2201 40.3232 52.3205 43.5098 49.2404 43.7454L48.6389 43.795C47.9531 43.8817 47.0507 43.9809 46.377 44.1049C49.7698 43.4726 52.7416 40.2736 54.6786 34.4708Z" fill="#1155CC"/>
<path d="M54.6789 34.4705C55.5331 34.3217 56.3994 34.2101 57.2777 34.1481C55.2203 40.3229 52.3207 43.5095 49.2407 43.7451L48.6391 43.7947C47.9533 43.8815 47.051 43.9806 46.3772 44.1046C49.7701 43.4723 52.7418 40.2733 54.6789 34.4705ZM54.5947 34.4953C53.0185 38.711 51.0815 42.9267 46.293 44.117C47.0028 44.0178 47.9413 43.8691 48.6391 43.7947L49.3369 43.7327C52.4049 43.5095 55.2925 40.3229 57.3619 34.1357C56.4234 34.2101 55.497 34.3217 54.5947 34.4953Z" fill="#1155CC"/>
<path d="M50.4666 35.6734C51.2487 35.3635 52.0427 35.1031 52.8729 34.8799C51.0441 40.3603 48.0964 43.5593 44.6073 44.4892C44.0178 44.6628 43.2357 44.9108 42.6582 45.1216C46.0511 43.7577 48.8183 40.6083 50.4666 35.6734Z" fill="#1155CC"/>
<path d="M50.4662 35.6738C51.2483 35.3638 52.0423 35.1035 52.8725 34.8803C51.0437 40.3607 48.096 43.5597 44.6069 44.4896C44.0174 44.6632 43.2353 44.9112 42.6578 45.1219C46.0507 43.758 48.8179 40.6087 50.4662 35.6738ZM50.394 35.6986C48.7578 40.6211 45.9905 43.7704 42.5977 45.1467C43.2113 44.9236 44.0535 44.6508 44.6791 44.4648C48.1682 43.5473 51.1279 40.3483 52.9567 34.8555C52.0664 35.0787 51.2122 35.3638 50.394 35.6986Z" fill="#1155CC"/>
<path d="M46.869 37.5958C47.4826 37.1618 48.1443 36.765 48.8542 36.3931C47.3623 40.8444 44.8477 43.9069 41.6955 45.5436C41.503 45.6552 41.2383 45.7916 41.0578 45.9032L40.9375 45.9776C43.5604 44.1301 45.6298 41.3155 46.869 37.5958Z" fill="#1155CC"/>
<path d="M46.8693 37.5957C47.4829 37.1617 48.1446 36.7649 48.8545 36.393C47.3626 40.8442 44.848 43.9068 41.6958 45.5435C41.5033 45.6551 41.2386 45.7915 41.0581 45.9031L40.9378 45.9775C43.5607 44.13 45.6301 41.3154 46.8693 37.5957ZM46.8091 37.6453C45.5699 41.3402 43.5366 44.13 40.9258 46.0023L41.0581 45.9155C41.2627 45.8039 41.5273 45.6427 41.7319 45.5311C44.8961 43.9068 47.4228 40.8442 48.9147 36.3682C48.1687 36.7525 47.4588 37.1741 46.8091 37.6453Z" fill="#1155CC"/>
<path d="M44.1501 40.1001C44.5952 39.5669 45.0885 39.0586 45.6299 38.5874C44.5832 41.712 42.9228 44.229 40.7933 46.1013L40.7812 46.1137C40.8414 46.0517 40.9136 45.9649 40.9738 45.9029C42.3213 44.2538 43.4041 42.3195 44.1501 40.1001Z" fill="#1155CC"/>
<path d="M44.1504 40.0999C44.5955 39.5667 45.0888 39.0584 45.6302 38.5872C44.5835 41.7118 42.9232 44.2288 40.7936 46.1011L40.7816 46.1135C40.8417 46.0515 40.9139 45.9647 40.9741 45.9027C42.3216 44.2536 43.4044 42.3193 44.1504 40.0999ZM44.1022 40.1495C43.1638 42.5177 42.6946 43.708 40.9741 45.8903C40.9139 45.9647 40.8297 46.0515 40.7695 46.1135L40.7936 46.1011C42.9472 44.2164 44.6196 41.687 45.6784 38.5376C45.0888 39.0336 44.5715 39.5791 44.1022 40.1495Z" fill="#1155CC"/>
<path d="M42.3211 43.0512C42.5858 42.4436 42.8986 41.8485 43.2716 41.2905C42.7542 42.828 42.0685 44.2415 41.2383 45.531C41.527 45.0351 41.5511 44.9979 41.7075 44.6383C41.9361 44.1175 42.1406 43.5844 42.3211 43.0512Z" fill="#1155CC"/>
<path d="M42.3214 43.0514C42.5861 42.4438 42.8989 41.8487 43.2719 41.2907C42.7546 42.8282 42.0688 44.2417 41.2386 45.5312C41.5273 45.0352 41.5514 44.998 41.7078 44.6385C41.9364 44.1177 42.1409 43.5845 42.3214 43.0514ZM42.2974 43.101C42.1289 43.6093 41.9364 44.1053 41.7319 44.5889C41.4552 45.184 41.4431 45.2088 41.2266 45.5312C42.0808 44.2293 42.7906 42.791 43.308 41.2163C42.911 41.8239 42.5741 42.4562 42.2974 43.101Z" fill="#1155CC"/>
<path d="M81.6777 55.1402C82.3515 55.7973 83.2298 56.6776 83.8675 57.3596C85.215 58.6491 89.3177 62.5548 101.06 57.7564C99.5925 56.0949 98.0285 54.5078 96.3802 52.9951C89.4621 57.0372 84.3006 57.5704 81.6777 55.1402Z" fill="#1155CC"/>
<path d="M81.676 55.14C82.3498 55.7972 83.2281 56.6775 83.8657 57.3595C85.2133 58.649 89.316 62.5547 101.059 57.7562C99.5908 56.0948 98.0267 54.5077 96.3784 52.995C89.4604 57.0371 84.2989 57.5703 81.676 55.14ZM81.5918 55.0656C84.2026 57.4711 89.34 56.9131 96.21 52.8462C97.9425 54.4333 99.5908 56.0948 101.131 57.843C93.0096 61.2156 86.8977 60.794 83.9018 57.3967C83.216 56.6775 82.3017 55.7476 81.5918 55.0656Z" fill="#1155CC"/>
<path d="M76.8398 51.3957L77.1767 51.6189C77.9708 52.1893 79.0296 52.9456 79.7996 53.5408C82.0976 55.4006 86.5973 54.2971 92.6852 49.8458C90.9287 48.4447 89.0999 47.118 87.1989 45.8657C85.1175 47.862 79.571 53.1688 76.8398 51.3957Z" fill="#1155CC"/>
<path d="M76.8407 51.3954L77.1776 51.6186C77.9717 52.1889 79.0304 52.9453 79.8004 53.5405C82.0984 55.4003 86.5982 54.2968 92.6861 49.8455C90.9295 48.4444 89.1007 47.1177 87.1998 45.8654C85.1183 47.8617 79.5718 53.1685 76.8407 51.3954ZM76.7324 51.321C78.489 52.4865 82.0624 50.7135 87.0073 45.729C89.0286 47.0557 90.9776 48.4692 92.8425 49.9695C86.7305 54.4084 82.1947 55.4871 79.8847 53.6024C79.0786 52.9949 77.9957 52.1765 77.1656 51.6062L76.7324 51.321Z" fill="#1155CC"/>
<path d="M70.9336 48.1099L72.7744 49.0151L74.4708 49.945C75.8304 50.7386 78.7901 48.5935 83.0252 43.2991C81.052 42.1708 79.0187 41.1168 76.9613 40.1621C73.7369 45.8657 71.6795 48.4695 70.9336 48.1099Z" fill="#1155CC"/>
<path d="M70.9328 48.11L72.7736 49.0152L74.4701 49.9451C75.8296 50.7386 78.7893 48.5936 83.0244 43.2992C81.0513 42.1708 79.0179 41.1169 76.9606 40.1622C73.7361 45.8658 71.6788 48.4696 70.9328 48.11ZM70.8125 48.0604C71.5464 48.4076 73.5677 45.7914 76.756 40.063C78.9578 41.0797 81.1114 42.1956 83.2169 43.3984C78.9458 48.6804 75.962 50.813 74.5783 49.9947L72.7736 49.0028L70.8125 48.0604Z" fill="#1155CC"/>
<path d="M64.4122 45.6303C65.471 45.9775 66.8786 46.4486 67.9134 46.833L68.2382 46.957C68.5751 46.7958 69.321 45.6179 72.4131 38.2032C70.2956 37.3725 68.1419 36.6161 65.9763 35.959C64.5085 42.3073 64.0272 45.5187 64.4122 45.6303Z" fill="#1155CC"/>
<path d="M64.4129 45.6301C65.4716 45.9773 66.8793 46.4484 67.914 46.8328L68.2389 46.9568C68.5757 46.7956 69.3217 45.6177 72.4138 38.203C70.2962 37.3723 68.1426 36.6159 65.9769 35.9588C64.5091 42.3071 64.0278 45.5185 64.4129 45.6301ZM64.2925 45.5929C63.8714 45.4813 64.3286 42.2575 65.7724 35.9092C68.0824 36.6035 70.3805 37.3971 72.6303 38.2898C70.1158 44.2538 68.684 47.1304 68.3712 47.0064L67.926 46.8328C66.8432 46.4484 65.3994 45.9153 64.2925 45.5929Z" fill="#1155CC"/>
<path d="M57.7825 44.13C58.9375 44.3408 60.4775 44.626 61.6205 44.874C60.7181 44.6632 60.5256 41.2782 61.2596 34.6943C59.0698 34.1735 56.856 33.7396 54.6543 33.4048C54.9671 40.2863 56.1342 43.882 57.7825 44.13Z" fill="#1155CC"/>
<path d="M57.7822 44.1294C58.9373 44.3402 60.4773 44.6254 61.6203 44.8734C60.7179 44.6626 60.5254 41.2776 61.2593 34.6937C59.0696 34.1729 56.8558 33.739 54.6541 33.4042C54.9669 40.2857 56.1339 43.8815 57.7822 44.1294ZM57.6619 44.1046C55.9896 43.8567 54.7864 40.2733 54.4375 33.3794C56.7836 33.7266 59.1298 34.1853 61.4639 34.7433C60.6938 41.3024 60.8623 44.6998 61.7406 44.8982C60.5495 44.6502 58.9734 44.3154 57.7822 44.117L57.6619 44.1046Z" fill="#1155CC"/>
<path d="M51.5859 43.6584L52.9575 43.6832L55.0991 43.8196C52.8973 43.646 50.9843 39.9635 49.8774 32.8588C47.6757 32.6728 45.486 32.5736 43.3203 32.586C45.5822 39.9635 48.5901 43.6832 51.5859 43.6584Z" fill="#1155CC"/>
<path d="M51.5851 43.6586L52.9566 43.6834L55.0982 43.8198C52.8965 43.6462 50.9835 39.9637 49.8766 32.859C47.6748 32.673 45.4851 32.5738 43.3195 32.5862C45.5814 39.9637 48.5892 43.6834 51.5851 43.6586ZM51.4768 43.6586C48.4569 43.6958 45.4129 39.9761 43.127 32.5738C45.437 32.5614 47.7591 32.6606 50.1052 32.8714C51.176 39.9761 53.0529 43.6462 55.2306 43.8198L52.9687 43.6834L51.4768 43.6586Z" fill="#1155CC"/>
<path d="M46.377 44.0925C47.0508 43.9933 47.9652 43.8569 48.6389 43.7825L49.2405 43.7329C45.6551 44.0057 41.8171 40.3231 38.6889 32.7349C36.5594 32.8961 34.4539 33.1564 32.3965 33.5284C36.8361 41.3771 41.9615 44.9232 46.377 44.0925Z" fill="#1155CC"/>
<path d="M46.3762 44.0925C47.0499 43.9933 47.9643 43.8569 48.6381 43.7825L49.2396 43.7329C45.6543 44.0057 41.8162 40.3231 38.6881 32.7349C36.5585 32.8961 34.453 33.1564 32.3956 33.5284C36.8352 41.3771 41.9606 44.9232 46.3762 44.0925ZM46.2919 44.1173C44.2346 44.328 38.7964 44.8736 32.2031 33.578C34.3928 33.1812 36.6307 32.8961 38.9046 32.7349C41.9847 40.3107 45.7987 44.0057 49.3479 43.7329L48.6501 43.7949C47.9402 43.8817 46.9898 44.0181 46.2919 44.1173Z" fill="#1155CC"/>
<path d="M42.6468 45.1218C43.2243 44.911 44.0064 44.663 44.5959 44.4894C39.5908 45.8285 33.4788 42.4931 28.0045 34.5205C26.0073 35.0537 24.0703 35.686 22.1934 36.4424C29.2318 44.5762 36.8597 47.4404 42.6468 45.1218Z" fill="#1155CC"/>
<path d="M42.6456 45.1217C43.2231 44.911 44.0052 44.663 44.5947 44.4894C39.5896 45.8285 33.4777 42.4931 28.0034 34.5205C26.0062 35.0537 24.0691 35.686 22.1922 36.4424C29.2306 44.5762 36.8585 47.4404 42.6456 45.1217ZM42.5855 45.1465C36.7743 47.5024 29.0982 44.6506 22.0117 36.5044C24.0089 35.6984 26.0783 35.0165 28.2079 34.4585C33.6221 42.4311 39.6859 45.7789 44.6669 44.4646C44.0413 44.6506 43.1991 44.9109 42.5855 45.1465Z" fill="#1155CC"/>
<path d="M40.9382 45.9896L41.0585 45.9152C41.251 45.8036 41.5036 45.6548 41.6961 45.5556C35.4037 48.829 26.5726 46.4359 18.295 38.2153C16.5745 39.0957 14.9743 40.0628 13.4824 41.1167C23.5648 49.3249 34.1524 50.8004 40.9382 45.9896Z" fill="#1155CC"/>
<path d="M40.938 45.9897L41.0583 45.9153C41.2508 45.8037 41.5035 45.6549 41.696 45.5557C35.4035 48.8291 26.5725 46.436 18.2948 38.2154C16.5743 39.0957 14.9742 40.0629 13.4823 41.1168C23.5646 49.325 34.1523 50.8005 40.938 45.9897ZM40.926 45.9897C34.1282 50.8625 23.4804 49.4242 13.3379 41.2036C14.914 40.0877 16.6225 39.0461 18.4633 38.1162C26.6808 46.3368 35.4637 48.7547 41.7321 45.5309C41.5275 45.6425 41.2508 45.7913 41.0583 45.9153L40.926 45.9897Z" fill="#1155CC"/>
<path d="M40.9617 45.9027C40.9015 45.9647 40.8293 46.0515 40.7692 46.1135L40.7812 46.1011C33.8271 52.251 21.9159 51.6311 10.462 43.4849C9.15058 44.638 7.95947 45.8655 6.88867 47.155C20.3278 55.016 34.1519 54.1357 40.9617 45.9027Z" fill="#1155CC"/>
<path d="M40.9622 45.9027C40.9021 45.9647 40.8299 46.0515 40.7697 46.1134L40.7818 46.101C33.8276 52.251 21.9165 51.6311 10.4626 43.4848C9.15113 44.6379 7.96002 45.8655 6.88922 47.155C20.3283 55.016 34.1525 54.1357 40.9622 45.9027ZM40.9743 45.8779C33.1177 54.4457 20.6652 54.954 6.79297 47.2666C7.92392 45.8903 9.18722 44.5884 10.5949 43.3608C21.9887 51.5071 33.8396 52.1766 40.7938 46.0886L40.7697 46.101C40.8299 46.039 40.9141 45.9523 40.9743 45.8779Z" fill="#1155CC"/>
<path d="M41.7091 44.6255C41.4204 45.2206 41.4204 45.2206 41.2399 45.5182C34.8512 55.3631 19.6435 57.5578 4.78464 50.0191C3.89432 51.3954 3.12431 52.8213 2.47461 54.2968C19.3186 61.1287 36.4153 56.7766 41.7091 44.6255Z" fill="#1155CC"/>
<path d="M41.7084 44.6259C41.4197 45.221 41.4197 45.221 41.2392 45.5186C34.8505 55.3635 19.6428 57.5582 4.78394 50.0195C3.89362 51.3958 3.12361 52.8217 2.47391 54.2972C19.3179 61.1291 36.4146 56.777 41.7084 44.6259ZM41.7325 44.6011C36.4868 56.8266 19.3179 61.2531 2.42578 54.4336C3.09954 52.8589 3.91768 51.3462 4.88019 49.8831C19.6789 57.4342 34.8144 55.3015 41.2392 45.5434C41.5039 45.0722 41.552 44.9978 41.7325 44.6011Z" fill="#1155CC"/>
<path d="M87.2348 60.9306C87.2949 60.7198 87.3671 60.4222 87.4273 60.2114C82.9757 73.5529 93.84 89.5105 111.695 95.8465C112.032 94.8422 112.308 93.813 112.537 92.7715C95.3079 87.6879 84.4435 73.7513 87.2348 60.9306Z" fill="#1155CC"/>
<path d="M87.2348 60.9306C87.2949 60.7198 87.3671 60.4222 87.4273 60.2114C82.9757 73.5529 93.84 89.5105 111.695 95.8465C112.032 94.8422 112.308 93.813 112.537 92.7715C95.3079 87.6879 84.4435 73.7513 87.2348 60.9306ZM87.2228 60.9678C84.5037 73.7637 95.368 87.6011 112.573 92.6227C112.344 93.7138 112.044 94.7926 111.695 95.8465C93.84 89.5105 82.9757 73.5529 87.4273 60.2114C87.3671 60.4346 87.2829 60.7322 87.2228 60.9678Z" fill="#1155CC"/>
<path d="M87.1014 62.3068C87.1014 61.9348 87.1014 61.8976 87.1255 61.6372C85.9464 73.6644 96.6664 85.5179 113.089 89.2996C113.246 87.6754 113.282 86.0263 113.186 84.3524C89.1708 80.1863 87.2458 65.2578 87.1014 62.3068Z" fill="#1155CC"/>
<path d="M87.1014 62.3074C87.1014 61.9355 87.1014 61.8983 87.1255 61.6379C85.9464 73.665 96.6664 85.5186 113.089 89.3003C113.246 87.676 113.282 86.027 113.186 84.3531C89.1708 80.187 87.2458 65.2584 87.1014 62.3074ZM87.1014 62.3322C89.0265 78.7239 105.967 83.0884 113.174 84.2043C113.282 85.9898 113.246 87.7504 113.077 89.4739C96.1972 84.9854 86.4878 74.5826 87.1375 61.6255C87.0894 62.0347 87.0894 62.1463 87.1014 62.3322Z" fill="#1155CC"/>
<path d="M87.0527 62.3071L87.0768 62.4063L87.1009 62.5055C90.205 76.5041 104.51 79.9263 112.752 80.7322C112.463 79.0335 112.054 77.3101 111.513 75.599C98.7473 75.7354 89.5673 70.317 87.0527 62.3071Z" fill="#1155CC"/>
<path d="M87.0527 62.307L87.0768 62.4062L87.1009 62.5054C90.205 76.504 104.51 79.9262 112.752 80.7321C112.463 79.0334 112.054 77.31 111.513 75.5989C98.7473 75.7353 89.5673 70.3169 87.0527 62.307ZM87.0527 62.2822C89.5914 70.2425 98.7473 75.6113 111.477 75.4129C112.066 77.248 112.499 79.0706 112.8 80.8809C98.5668 79.7154 88.6529 72.1271 87.1249 62.493L87.1009 62.4062L87.0527 62.2822Z" fill="#1155CC"/>
<path d="M86.2227 60.5591L86.6438 61.3402L86.8363 61.7618C90.5299 69.2261 98.3744 72.611 110.129 71.8423C109.395 70.1188 108.529 68.3829 107.53 66.6718C97.1352 68.6309 89.399 66.0643 86.2227 60.5591Z" fill="#1155CC"/>
<path d="M86.2213 60.5594L86.6424 61.3405L86.8349 61.7621C90.5286 69.2263 98.3731 72.6113 110.128 71.8426C109.394 70.1191 108.528 68.3832 107.529 66.6721C97.1338 68.6312 89.3976 66.0646 86.2213 60.5594ZM86.1973 60.5098C87.6531 62.6548 92.0566 69.1892 107.445 66.5109C108.516 68.346 109.442 70.1811 110.212 72.0162C98.1084 72.6113 90.2519 69.1767 86.859 61.7869L86.6545 61.3405C86.5101 61.0925 86.3416 60.7453 86.1973 60.5098Z" fill="#1155CC"/>
<path d="M83.9258 57.4219C84.395 57.9922 85.0086 58.7486 85.4538 59.3437L85.5019 59.4057C88.6902 63.9686 95.7527 65.5557 105.185 62.9643C103.994 61.2656 102.659 59.5793 101.203 57.9054C93.0456 61.278 86.9216 60.8316 83.9258 57.4219Z" fill="#1155CC"/>
<path d="M83.9248 57.4223C84.394 57.9926 85.0076 58.749 85.4528 59.3441L85.5009 59.4061C88.6892 63.969 95.7517 65.5561 105.184 62.9647C103.993 61.266 102.658 59.5797 101.202 57.9058C93.0446 61.2784 86.9206 60.832 83.9248 57.4223ZM83.8887 57.3975C86.8845 60.7948 92.9965 61.204 101.118 57.8438C102.658 59.5921 104.041 61.3528 105.293 63.1383C95.499 65.4817 88.8456 64.2418 85.5249 59.4681L85.4407 59.3565C84.9956 58.749 84.3699 57.9678 83.8887 57.3975Z" fill="#1155CC"/>
<path d="M87.7875 58.9346C87.6913 59.3685 87.583 59.7901 87.4386 60.1993C87.3784 60.4101 87.2942 60.6952 87.2461 60.9184C87.3784 60.2613 87.5589 59.6041 87.7875 58.9346Z" fill="#1155CC"/>
<path d="M87.7859 58.9346C87.6896 59.3685 87.5813 59.7901 87.437 60.1993C87.3768 60.4101 87.2926 60.6952 87.2445 60.9184C87.3768 60.2613 87.5573 59.6041 87.7859 58.9346ZM87.7979 58.8726C87.5693 59.5669 87.3768 60.2613 87.2324 60.9556C87.2926 60.7324 87.3648 60.4224 87.437 60.1993C87.5813 59.7777 87.7016 59.3313 87.7979 58.8726Z" fill="#1155CC"/>
<path d="M88.0397 55.4629C88.0758 56.1572 88.0638 56.8392 88.0036 57.5087C87.5464 58.885 87.2577 60.2613 87.1133 61.6377C87.0772 62.0964 87.0772 62.0964 87.0892 62.3072C87.1013 59.5298 87.1374 58.4139 88.0397 55.4629Z" fill="#1155CC"/>
<path d="M88.0394 55.4634C88.0755 56.1577 88.0635 56.8397 88.0033 57.5092C87.5461 58.8855 87.2574 60.2618 87.113 61.6381C87.0769 62.0969 87.0769 62.0969 87.0889 62.3077C87.101 59.5303 87.1371 58.4144 88.0394 55.4634ZM88.0394 55.4014C87.3055 58.0796 86.9927 59.1831 87.101 62.3325C87.101 61.9729 87.0889 61.9233 87.125 61.6257C87.5461 58.9723 87.5582 58.9227 88.0033 57.5836C88.0755 56.8645 88.0875 56.1329 88.0394 55.4014Z" fill="#1155CC"/>
<path d="M87.3667 51.8423C87.5953 52.549 87.7637 53.2682 87.8841 53.9625C87.1622 56.5788 86.5847 58.6494 87.1261 62.4931L87.102 62.3939L87.0779 62.2947C86.0673 59.1578 86.1034 55.5992 87.3667 51.8423Z" fill="#1155CC"/>
<path d="M87.3654 51.8425C87.594 52.5492 87.7624 53.2684 87.8827 53.9627C87.1608 56.5789 86.5833 58.6496 87.1247 62.4933L87.1007 62.3941L87.0766 62.2949C86.066 59.1579 86.1021 55.5994 87.3654 51.8425ZM87.3413 51.7681C86.078 55.5622 86.0419 59.1207 87.0526 62.2825L87.0886 62.3941C87.1007 62.4189 87.1007 62.4685 87.1127 62.4809C86.6796 59.7903 86.9082 56.9385 87.8827 54.0247C87.7624 53.2808 87.5819 52.5244 87.3413 51.7681Z" fill="#1155CC"/>
<path d="M85.7172 48.1597C86.1262 48.8664 86.4872 49.5856 86.788 50.2923C85.9578 53.2185 84.9351 56.8638 86.8481 61.7491L86.6556 61.3275L86.2345 60.5464C84.3697 57.3226 84.0689 53.0821 85.7172 48.1597Z" fill="#1155CC"/>
<path d="M85.7163 48.1594C86.1254 48.8661 86.4863 49.5853 86.7871 50.292C85.9569 53.2182 84.9342 56.8635 86.8472 61.7488L86.6547 61.3272L86.2336 60.5461C84.3688 57.3223 84.068 53.0818 85.7163 48.1594ZM85.6802 48.085C84.3567 52.7222 83.9717 56.4048 86.1975 60.4965C86.3299 60.7445 86.5224 61.0792 86.6547 61.3272L86.8593 61.7736C86.0532 59.455 84.9583 56.2684 86.8232 50.354C86.4983 49.6101 86.1254 48.8413 85.6802 48.085Z" fill="#1155CC"/>
<path d="M83.0946 44.5396C83.6962 45.2215 84.2496 45.9283 84.7429 46.6226C82.9623 51.9666 83.3593 56.3559 85.4889 59.4061L85.4408 59.3441C84.9956 58.7613 84.394 57.9802 83.9128 57.4222C81.5907 54.7936 81.1455 50.3671 83.0946 44.5396Z" fill="#1155CC"/>
<path d="M83.0946 44.5394C83.6962 45.2214 84.2496 45.9281 84.7429 46.6225C82.9623 51.9665 83.3593 56.3558 85.4889 59.406L85.4408 59.344C84.9956 58.7612 84.394 57.9801 83.9128 57.4221C81.5907 54.7935 81.1455 50.367 83.0946 44.5394ZM83.0585 44.5146C81.1094 50.3422 81.5546 54.7687 83.8887 57.3973C84.37 57.9801 84.9956 58.7488 85.4408 59.3564L85.525 59.468C83.2992 55.6987 83.1067 52.4749 84.779 46.6969C84.2737 45.9653 83.6962 45.2338 83.0585 44.5146Z" fill="#1155CC"/>
<path d="M99.8547 14.6572C101.022 15.7359 102.129 16.8519 103.175 18.0298C93.9352 25.4693 86.0426 35.5001 83.0347 44.4771C82.4211 43.7952 81.7834 43.138 81.0977 42.5056C84.0935 33.5287 91.4447 22.9274 99.8547 14.6572Z" fill="#1155CC"/>
<path d="M99.8543 14.657C101.021 15.7357 102.128 16.8516 103.175 18.0295C93.9348 25.469 86.0422 35.4999 83.0343 44.4769C82.4207 43.7949 81.7831 43.1377 81.0973 42.5054C84.0931 33.5284 91.4443 22.9272 99.8543 14.657ZM99.8663 14.4214C91.4323 22.7412 84.045 33.4292 81.0371 42.4434C81.747 43.1005 82.4328 43.7825 83.0704 44.5017C86.0783 35.4751 94.0551 25.3946 103.367 17.9675C102.261 16.7276 101.094 15.5497 99.8663 14.4214Z" fill="#1155CC"/>
<path d="M93.3582 9.59814C94.6937 10.4785 95.9931 11.4208 97.2444 12.4127C89.4841 21.2533 82.578 32.2265 79.5822 41.2035C78.8603 40.6207 78.1024 40.0752 77.3203 39.5544C80.3161 30.5899 86.5725 19.1331 93.3582 9.59814Z" fill="#1155CC"/>
<path d="M93.3565 9.59838C94.692 10.4787 95.9914 11.421 97.2427 12.413C89.4824 21.2535 82.5763 32.2268 79.5805 41.2037C78.8586 40.621 78.1006 40.0754 77.3186 39.5546C80.3144 30.5901 86.5708 19.1333 93.3565 9.59838ZM93.3204 9.36279C86.5226 18.9473 80.2422 30.4909 77.2344 39.5051C78.0645 40.0506 78.8707 40.6334 79.6407 41.2533C82.6485 32.2268 89.6388 21.204 97.4713 12.3758C96.1478 11.3095 94.7642 10.3051 93.3204 9.36279Z" fill="#1155CC"/>
<path d="M86.0903 5.55615C87.5581 6.2381 88.9899 6.98205 90.3855 7.7756C84.3337 17.7693 78.5706 29.5237 75.5748 38.5006C74.7567 38.0294 73.9265 37.6079 73.0723 37.1987C76.0801 28.2341 81.1093 16.0954 86.0903 5.55615Z" fill="#1155CC"/>
<path d="M86.0922 5.55619C87.56 6.23814 88.9917 6.98209 90.3874 7.77564C84.3356 17.7693 78.5725 29.5237 75.5767 38.5007C74.7585 38.0295 73.9284 37.6079 73.0741 37.1987C76.082 28.2342 81.1111 16.0954 86.0922 5.55619ZM86.032 5.33301C81.063 15.9219 76.0098 28.1474 73.002 37.1739C73.9163 37.5955 74.8067 38.0543 75.6729 38.5503C78.6808 29.5237 84.504 17.7073 90.628 7.70124C89.1241 6.8457 87.5961 6.05216 86.032 5.33301Z" fill="#1155CC"/>
<path d="M78.3184 2.59277C79.8584 3.06394 81.3864 3.58471 82.8783 4.17986C78.6913 15.0663 74.2036 27.4282 71.2078 36.4052C70.3295 36.058 69.4392 35.748 68.5488 35.4752C71.5447 26.4983 75.2744 13.876 78.3184 2.59277Z" fill="#1155CC"/>
<path d="M78.3189 2.59281C79.8589 3.06398 81.3869 3.58474 82.8788 4.1799C78.6919 15.0663 74.2041 27.4282 71.2083 36.4052C70.33 36.058 69.4397 35.7481 68.5494 35.4753C71.5452 26.4983 75.2749 13.876 78.3189 2.59281ZM78.2106 2.36963C75.1907 13.7024 71.473 26.4239 68.4531 35.4505C69.4036 35.7357 70.3541 36.0704 71.2805 36.43C74.2884 27.4035 78.8483 14.9795 83.0833 4.06831C81.4952 3.43595 79.8589 2.86559 78.2106 2.36963Z" fill="#1155CC"/>
<path d="M70.2939 0.77002C71.858 1.0056 73.4221 1.31558 74.9742 1.67515C72.7604 13.1939 69.5961 25.9774 66.6003 34.9544C65.6979 34.7436 64.7835 34.5576 63.8691 34.4212C66.865 25.4443 69.2472 12.512 70.2939 0.77002Z" fill="#1155CC"/>
<path d="M70.2942 0.770164C71.8582 1.00575 73.4223 1.31572 74.9744 1.6753C72.7606 13.1941 69.5963 25.9776 66.6005 34.9545C65.6982 34.7438 64.7838 34.5578 63.8694 34.4214C66.8652 25.4444 69.2474 12.5121 70.2942 0.770164ZM70.1618 0.571777C69.1632 12.3633 66.805 25.3824 63.7852 34.409C64.7597 34.5578 65.7222 34.7437 66.6847 34.9793C69.6926 25.9528 72.905 13.0949 75.1549 1.55131C73.4945 1.15454 71.8222 0.81976 70.1618 0.571777Z" fill="#1155CC"/>
<path d="M62.2675 0.175166C63.8076 0.162767 65.3596 0.237162 66.9117 0.373552C66.7071 12.2147 64.8904 25.209 61.8946 34.186C60.9922 34.1116 60.0778 34.0744 59.1875 34.0744C62.1954 25.0974 63.2301 12.0659 62.2675 0.175166Z" fill="#1155CC"/>
<path d="M62.2694 0.17492C63.8094 0.162521 65.3615 0.236916 66.9136 0.373307C66.709 12.2145 64.8923 25.2087 61.8965 34.1857C60.9941 34.1113 60.0797 34.0741 59.1894 34.0741C62.1972 25.0971 63.2319 12.0657 62.2694 0.17492ZM62.113 0.00133301C63.1357 11.9293 62.125 25.0476 59.1172 34.0741C60.0677 34.0617 61.0302 34.1113 61.9927 34.1981C65.0006 25.1715 66.8534 12.0905 67.07 0.21212C65.4096 0.0633301 63.7493 -0.0110661 62.113 0.00133301Z" fill="#1155CC"/>
<path d="M54.5195 0.868996C55.9753 0.608614 57.4672 0.422627 58.9832 0.311035C60.7638 12.1646 60.2826 25.1713 57.2747 34.1482C56.3964 34.2102 55.5302 34.3218 54.6759 34.4706C57.6718 25.4936 57.4071 12.5738 54.5195 0.868996Z" fill="#1155CC"/>
<path d="M54.5203 0.868947C55.9761 0.608566 57.468 0.422579 58.984 0.310987C60.7646 12.1645 60.2834 25.1712 57.2755 34.1482C56.3972 34.2102 55.531 34.3218 54.6767 34.4706C57.6725 25.4936 57.4079 12.5737 54.5203 0.868947ZM54.3398 0.720156C57.2996 12.4745 57.6124 25.4688 54.6045 34.4954C55.5069 34.3342 56.4333 34.2102 57.3718 34.1482C60.3796 25.1216 60.8849 12.0282 59.1043 0.125C57.48 0.236592 55.8919 0.434976 54.3398 0.720156Z" fill="#1155CC"/>
<path d="M47.2891 2.91517C48.6246 2.38201 49.9961 1.93564 51.4158 1.55127C55.0734 13.0949 55.8675 25.8907 52.8717 34.8677C52.0535 35.0909 51.2474 35.3513 50.4654 35.6612C53.4612 26.6967 51.9813 14.1116 47.2891 2.91517Z" fill="#1155CC"/>
<path d="M47.2882 2.91472C48.6237 2.38156 49.9953 1.93519 51.415 1.55082C55.0725 13.0944 55.8666 25.8903 52.8708 34.8673C52.0527 35.0904 51.2465 35.3508 50.4645 35.6608C53.4603 26.6962 51.9805 14.1111 47.2882 2.91472ZM47.0957 2.79073C51.8722 14.0243 53.4002 26.6714 50.3923 35.6856C51.2225 35.3508 52.0767 35.0656 52.955 34.8425C55.9629 25.8159 55.1808 12.9332 51.5112 1.32764C49.9832 1.73681 48.5154 2.22037 47.0957 2.79073Z" fill="#1155CC"/>
<path d="M41.1172 6.22525C42.1639 5.4813 43.3069 4.79935 44.5221 4.16699C49.9001 15.0534 51.8492 27.4153 48.8414 36.3923C48.1315 36.7519 47.4698 37.161 46.8562 37.595C49.864 28.6181 47.3495 16.6033 41.1172 6.22525Z" fill="#1155CC"/>
<path d="M41.1163 6.22597C42.1631 5.48202 43.306 4.80007 44.5212 4.16771C49.8993 15.0541 51.8484 27.4161 48.8405 36.393C48.1307 36.7526 47.4689 37.1618 46.8553 37.5957C49.8632 28.6188 47.3486 16.604 41.1163 6.22597ZM40.9238 6.13917C47.2403 16.5296 49.8151 28.6188 46.8072 37.6329C47.4569 37.1742 48.1668 36.7402 48.9247 36.3558C51.9326 27.3293 49.9715 14.8806 44.5694 3.93213C43.2579 4.61408 42.0428 5.34563 40.9238 6.13917Z" fill="#1155CC"/>
<path d="M36.4492 10.503C37.2072 9.58551 38.0494 8.71756 38.9758 7.91162C45.7375 17.8681 48.613 29.6101 45.6172 38.587C45.0758 39.0582 44.5825 39.5666 44.1373 40.0997C47.1452 31.1104 43.8365 19.8148 36.4492 10.503Z" fill="#1155CC"/>
<path d="M36.448 10.5036C37.206 9.58603 38.0482 8.71809 38.9747 7.91215C45.7363 17.8686 48.6118 29.6106 45.616 38.5876C45.0746 39.0587 44.5813 39.5671 44.1361 40.1003C47.144 31.1109 43.8354 19.8153 36.448 10.5036ZM36.2676 10.454C43.7511 19.7657 47.1199 31.1233 44.1 40.1499C44.5693 39.5795 45.0866 39.0463 45.6641 38.538C48.672 29.5114 45.7724 17.6951 38.9626 7.68896C37.964 8.5569 37.0737 9.47444 36.2676 10.454Z" fill="#1155CC"/>
<path d="M33.3203 15.5747C33.7775 14.5332 34.3189 13.5164 34.9566 12.5493C42.7169 21.3527 46.2782 32.3135 43.2823 41.2905C42.9094 41.8608 42.5965 42.4436 42.3319 43.0512C45.3156 34.0742 41.4897 23.6217 33.3203 15.5747Z" fill="#1155CC"/>
<path d="M33.3208 15.5746C33.778 14.5331 34.3194 13.5164 34.9571 12.5493C42.7173 21.3526 46.2786 32.3134 43.2828 41.2904C42.9098 41.8608 42.597 42.4435 42.3323 43.0511C45.3161 34.0741 41.4901 23.6217 33.3208 15.5746ZM33.1523 15.5498C41.4179 23.5845 45.3041 34.0865 42.2962 43.1007C42.573 42.4559 42.9098 41.8236 43.3069 41.216C46.3147 32.1895 42.7294 21.1542 34.8969 12.3013C34.2111 13.3552 33.6336 14.4339 33.1523 15.5498Z" fill="#1155CC"/>
<path d="M111.308 42.8403C111.152 43.5843 110.947 44.3034 110.707 45.0226C99.5896 45.7293 90.4216 51.2345 87.4258 60.2115C87.5702 59.7899 87.6784 59.3684 87.7747 58.9468C90.7825 49.9574 100.047 44.0926 111.308 42.8403Z" fill="#1155CC"/>
<path d="M111.308 42.8408C111.152 43.5847 110.947 44.3039 110.707 45.023C99.5896 45.7298 90.4216 51.235 87.4258 60.212C87.5702 59.7904 87.6784 59.3688 87.7747 58.9472C90.7825 49.9579 100.047 44.0931 111.308 42.8408ZM111.501 42.7168C100.155 43.9567 90.8066 49.8587 87.7867 58.8853C87.6905 59.3316 87.5702 59.778 87.4258 60.2244C90.4336 51.1978 99.6858 45.6926 110.875 45.023C111.128 44.2543 111.344 43.4855 111.501 42.7168Z" fill="#1155CC"/>
<path d="M111.766 36.8765C111.838 38.0668 111.814 39.2323 111.694 40.3854C100.336 42.2453 90.9997 48.5316 88.0039 57.5086C88.0641 56.839 88.0881 56.1571 88.04 55.4627C92.2991 44.0803 103.296 39.0835 111.766 36.8765Z" fill="#1155CC"/>
<path d="M111.766 36.8763C111.838 38.0666 111.814 39.2322 111.694 40.3853C100.336 42.2451 90.9997 48.5315 88.0039 57.5085C88.0641 56.8389 88.0881 56.157 88.04 55.4626C92.2991 44.0802 103.296 39.0834 111.766 36.8763ZM111.934 36.7275C100.481 39.4677 91.0479 46.3741 88.04 55.4006C88.0881 56.1322 88.0761 56.8637 88.0039 57.5829C91.0118 48.5563 100.432 42.2823 111.862 40.4845C111.983 39.2446 112.007 37.9922 111.934 36.7275Z" fill="#1155CC"/>
<path d="M110.6 30.6519C110.985 31.867 111.274 33.0945 111.478 34.2972C99.3505 38.1657 91.1932 44.9728 87.8845 53.9622C87.7642 53.2555 87.5958 52.5487 87.3672 51.8419C90.363 42.865 99.5069 34.942 110.6 30.6519Z" fill="#1155CC"/>
<path d="M110.599 30.6518C110.984 31.8669 111.273 33.0944 111.477 34.2971C99.3495 38.1657 91.1922 44.9728 87.8835 53.9622C87.7632 53.2554 87.5948 52.5486 87.3662 51.8419C90.362 42.8649 99.5059 34.9419 110.599 30.6518ZM110.719 30.4658C99.5661 34.7683 90.35 42.7409 87.3301 51.7675C87.5707 52.5239 87.7512 53.2802 87.8715 54.0241C90.8794 44.9976 100.264 37.6945 111.646 34.3591C111.453 33.0696 111.14 31.7801 110.719 30.4658Z" fill="#1155CC"/>
<path d="M107.77 24.3408C108.48 25.5559 109.094 26.7835 109.611 28.011C97.9768 33.5534 90.0842 41.2532 86.7876 50.2922C86.4868 49.573 86.1259 48.8663 85.7168 48.1595C88.7126 39.1826 97.3873 30.2056 107.77 24.3408Z" fill="#1155CC"/>
<path d="M107.772 24.341C108.482 25.5561 109.095 26.7836 109.612 28.0111C97.9781 33.5535 90.0855 41.2534 86.7888 50.2923C86.4881 49.5732 86.1271 48.8664 85.7181 48.1597C88.7139 39.1827 97.3885 30.2057 107.772 24.341ZM107.856 24.1426C97.4246 30.0322 88.6898 39.0711 85.6699 48.0977C86.1151 48.854 86.5001 49.6104 86.8129 50.3667C89.8208 41.3402 98.8925 32.9707 109.817 28.0607C109.276 26.7464 108.626 25.4445 107.856 24.1426Z" fill="#1155CC"/>
<path d="M103.272 18.1416C104.307 19.3195 105.246 20.5222 106.1 21.725C96.1378 28.2469 87.7398 37.6578 84.744 46.6348C84.2507 45.928 83.6973 45.2337 83.0957 44.5517C86.0915 35.5624 94.0082 25.5563 103.272 18.1416Z" fill="#1155CC"/>
<path d="M103.271 18.1414C104.306 19.3193 105.245 20.522 106.099 21.7247C96.1368 28.2466 87.7388 37.6576 84.743 46.6345C84.2497 45.9278 83.6963 45.2334 83.0947 44.5515C86.0905 35.5621 94.0072 25.556 103.271 18.1414ZM103.356 17.9678C94.0433 25.4072 86.0665 35.4877 83.0586 44.5019C83.6963 45.221 84.2738 45.9526 84.7791 46.6965C87.787 37.67 96.2691 28.2342 106.315 21.7371C105.437 20.4724 104.45 19.2077 103.356 17.9678Z" fill="#1155CC"/>
<path d="M41.407 46.3373C41.4912 45.6677 41.6356 45.023 41.8281 44.3906C37.3764 57.7321 19.221 63.6217 1.28212 57.5461C0.812898 59.0836 0.476019 60.6583 0.271484 62.2702C18.5352 66.8206 36.9553 59.6787 41.407 46.3373Z" fill="#1155CC"/>
<path d="M41.4076 46.3373C41.4918 45.6677 41.6362 45.023 41.8287 44.3906C37.3771 57.7321 19.2216 63.6216 1.28275 57.5461C0.813523 59.0836 0.476644 60.6583 0.272109 62.2701C18.5358 66.8206 36.956 59.6787 41.4076 46.3373ZM41.3956 46.4117C36.9439 59.7531 18.5118 66.9198 0.248047 62.4313C0.464613 60.7202 0.825556 59.034 1.33088 57.3973C19.2457 63.5225 37.3891 57.6701 41.8407 44.3286C41.6362 44.9982 41.4918 45.6925 41.3956 46.4117Z" fill="#1155CC"/>
<path d="M41.4314 49.8709C41.3352 49.1766 41.2991 48.4822 41.3111 47.8003C36.8595 61.1417 18.3672 69.2012 0.0192225 65.8038C-0.00484038 67.4529 0.0914111 69.1268 0.320008 70.8255C18.5597 72.5985 36.9678 63.2124 41.4314 49.8709Z" fill="#1155CC"/>
<path d="M41.431 49.8709C41.3348 49.1766 41.2987 48.4822 41.3107 47.8003C36.8591 61.1417 18.3667 69.2012 0.018798 65.8038C-0.00526484 67.4529 0.0909867 69.1268 0.319584 70.8254C18.5592 72.5985 36.9673 63.2124 41.431 49.8709ZM41.431 49.9453C36.9794 63.2868 18.5713 72.7101 0.331616 70.9866C0.078956 69.1764 -0.0293266 67.3909 0.0067677 65.6426C18.3547 69.0896 36.847 61.0797 41.2987 47.7383C41.2866 48.4574 41.3348 49.2014 41.431 49.9453Z" fill="#1155CC"/>
<path d="M42.3937 53.5286C42.117 52.8095 41.8884 52.1027 41.7199 51.396C37.2683 64.7374 19.0407 75.0783 1.01758 74.508C1.43868 76.219 1.98009 77.9425 2.66588 79.6784C20.1476 78.5749 37.9421 66.8701 42.3937 53.5286Z" fill="#1155CC"/>
<path d="M42.3933 53.5291C42.1166 52.81 41.888 52.1032 41.7195 51.3965C37.2679 64.7379 19.0403 75.0788 1.01719 74.5084C1.43829 76.2195 1.9797 77.943 2.66549 79.6789C20.1472 78.5753 37.9417 66.8706 42.3933 53.5291ZM42.4174 53.6035C37.9657 66.945 20.1953 78.6869 2.71362 79.8401C1.9797 78.005 1.40219 76.1699 0.957031 74.3472C18.9922 74.9796 37.2318 64.6759 41.6834 51.3345C41.8759 52.0784 42.1166 52.8348 42.4174 53.6035Z" fill="#1155CC"/>
<path d="M44.3304 57.1991C43.8612 56.4923 43.4401 55.7856 43.0911 55.0664C38.6395 68.4079 21.2902 81.0922 4.33789 83.3984C5.20415 85.1219 6.21479 86.8453 7.34575 88.5564C23.3115 84.5763 39.8788 70.5405 44.3304 57.1991Z" fill="#1155CC"/>
<path d="M44.3309 57.1988C43.8617 56.4921 43.4406 55.7853 43.0917 55.0662C38.6401 68.4076 21.2907 81.0919 4.33844 83.3982C5.2047 85.1217 6.21534 86.8451 7.3463 88.5562C23.312 84.5761 39.8793 70.5403 44.3309 57.1988ZM44.3791 57.2732C39.9274 70.6147 23.3962 84.7001 7.45458 88.7298C6.23941 86.9071 5.16861 85.0845 4.24219 83.2494C21.2185 80.9928 38.5919 68.3581 43.0436 55.0166C43.4286 55.7605 43.8737 56.5169 44.3791 57.2732Z" fill="#1155CC"/>
<path d="M47.2428 60.7578C46.918 60.4354 46.6052 60.0882 46.3044 59.7534C46.0036 59.4063 45.7149 59.0591 45.4381 58.7119C40.9865 72.0534 25.1291 87.0563 10.0176 92.2267C10.6793 93.0699 11.3892 93.9006 12.1231 94.7314C12.857 95.5621 13.615 96.3804 14.397 97.174C28.0768 90.4041 42.7912 74.0992 47.2428 60.7578Z" fill="#1155CC"/>
<path d="M47.2421 60.7579C46.9172 60.4356 46.6044 60.0884 46.3036 59.7536C46.0028 59.4064 45.7141 59.0593 45.4374 58.7121C40.9857 72.0535 25.1283 87.0565 10.0168 92.2269C10.6785 93.0701 11.3884 93.9008 12.1223 94.7315C12.8562 95.5623 13.6142 96.3806 14.3962 97.1742C28.076 90.4042 42.7904 74.0994 47.2421 60.7579ZM47.3022 60.8199C42.8506 74.1614 28.1843 90.5034 14.5406 97.3229C13.7105 96.4798 12.9043 95.6119 12.1223 94.7315C11.3403 93.8512 10.5943 92.9585 9.89648 92.0533C25.0441 86.9449 40.9376 71.9791 45.3892 58.6377C45.678 59.0097 45.9908 59.3816 46.3156 59.7412C46.6285 60.1132 46.9533 60.4728 47.3022 60.8199Z" fill="#1155CC"/>
<path d="M50.8629 63.8821C50.105 63.3365 49.3831 62.7537 48.6852 62.1338C44.2336 75.4752 30.4456 92.648 17.8848 100.497C19.5692 101.985 21.3258 103.386 23.1545 104.712C34.0069 95.4998 46.4113 77.2111 50.8629 63.8821Z" fill="#1155CC"/>
<path d="M50.8631 63.8821C50.1051 63.3365 49.3832 62.7537 48.6854 62.1338C44.2338 75.4752 30.4457 92.648 17.8849 100.497C19.5693 101.985 21.3259 103.386 23.1547 104.712C34.007 95.4998 46.4115 77.2111 50.8631 63.8821ZM50.9353 63.9316C46.4836 77.2731 34.1274 95.5866 23.3352 104.849C21.3861 103.435 19.5092 101.947 17.7285 100.36C30.3375 92.5612 44.1616 75.4132 48.6252 62.0718C49.3592 62.7289 50.1292 63.3489 50.9353 63.9316Z" fill="#1155CC"/>
<path d="M54.9795 66.4118C54.1493 65.9779 53.3312 65.5067 52.5371 65.0107C48.0855 78.3522 36.7398 97.36 27.2109 107.465C29.1239 108.68 31.1091 109.809 33.1304 110.863C40.7343 99.6539 50.5279 79.7533 54.9795 66.4118Z" fill="#1155CC"/>
<path d="M54.9783 66.4116C54.1482 65.9777 53.33 65.5065 52.5359 65.0105C48.0843 78.352 36.7387 97.3598 27.2098 107.465C29.1228 108.68 31.108 109.809 33.1292 110.862C40.7331 99.6537 50.5267 79.7531 54.9783 66.4116ZM55.0625 66.4612C50.6109 79.8027 40.8775 99.7281 33.3217 110.974C31.1681 109.858 29.0626 108.655 27.0293 107.354C36.6304 97.2854 48.0121 78.3024 52.4638 64.9609C53.2939 65.4941 54.1602 66.0025 55.0625 66.4612Z" fill="#1155CC"/>
<path d="M59.4298 68.3335C58.5395 68.0235 57.6612 67.6764 56.8069 67.292C52.3553 80.6334 43.7288 101.092 37.5566 112.995C39.6381 113.925 41.7676 114.756 43.9092 115.512C48.036 102.803 54.9782 81.675 59.4298 68.3335Z" fill="#1155CC"/>
<path d="M59.4292 68.3331C58.5389 68.0231 57.6606 67.676 56.8064 67.2916C52.3548 80.633 43.7282 101.092 37.5561 112.995C39.6375 113.925 41.7671 114.755 43.9087 115.512C48.0355 102.803 54.9776 81.6746 59.4292 68.3331ZM59.5135 68.3703C55.0618 81.7118 48.1678 102.852 44.1132 115.586C41.8273 114.793 39.5653 113.9 37.3516 112.908C43.5959 101.042 52.2705 80.5958 56.7222 67.2544C57.6366 67.6636 58.575 68.0355 59.5135 68.3703Z" fill="#1155CC"/>
<path d="M64.0863 69.5981C63.172 69.4245 62.2696 69.2013 61.3672 68.9409C56.9156 82.2824 51.1886 103.795 48.5898 116.988C50.7675 117.607 52.9693 118.128 55.171 118.562C55.6403 104.861 59.6347 82.9395 64.0863 69.5981Z" fill="#1155CC"/>
<path d="M64.0861 69.5983C63.1717 69.4247 62.2694 69.2015 61.367 68.9411C56.9154 82.2826 51.1884 103.795 48.5896 116.988C50.7673 117.608 52.9691 118.128 55.1708 118.562C55.64 104.861 59.6345 82.9397 64.0861 69.5983ZM64.1703 69.6107C59.7187 82.9521 55.7844 104.886 55.3753 118.612C53.0292 118.153 50.6951 117.595 48.373 116.938C51.044 103.758 56.8191 82.2702 61.2707 68.9287C62.2333 69.2015 63.2078 69.4247 64.1703 69.6107Z" fill="#1155CC"/>
<path d="M68.7779 70.1687C67.8755 70.1315 66.9611 70.0447 66.0588 69.9331C61.6072 83.2746 58.864 105.407 59.9348 119.368C62.1365 119.666 64.3383 119.852 66.528 119.951C63.3156 105.791 64.3263 83.5101 68.7779 70.1687Z" fill="#1155CC"/>
<path d="M68.7795 70.1686C67.8772 70.1314 66.9628 70.0446 66.0604 69.933C61.6088 83.2745 58.8656 105.407 59.9364 119.368C62.1382 119.666 64.3399 119.852 66.5297 119.951C63.3173 105.791 64.3279 83.51 68.7795 70.1686ZM68.8638 70.1686C64.4121 83.51 63.4617 105.804 66.7342 119.951C64.4121 119.852 62.066 119.653 59.7199 119.331C58.7092 105.382 61.5126 83.2497 65.9642 69.9082C66.9387 70.0446 67.9012 70.1314 68.8638 70.1686Z" fill="#1155CC"/>
<path d="M73.3618 69.9946C72.4955 70.1062 71.6172 70.1682 70.7149 70.193C66.2632 83.5345 66.4918 105.828 71.2202 120C73.3738 119.951 75.5154 119.789 77.6089 119.529C70.8111 105.506 68.8981 83.3361 73.3618 69.9946Z" fill="#1155CC"/>
<path d="M73.3621 69.9948C72.4958 70.1064 71.6176 70.1684 70.7152 70.1932C66.2636 83.5347 66.4922 105.828 71.2205 120C73.3741 119.951 75.5157 119.79 77.6092 119.529C70.8114 105.506 68.8984 83.3363 73.3621 69.9948ZM73.4463 69.9824C68.9947 83.3239 70.9558 105.494 77.8258 119.505C75.5879 119.79 73.314 119.951 71.016 120C66.3478 105.828 66.1793 83.5347 70.631 70.1932C71.5815 70.1684 72.5199 70.094 73.4463 69.9824Z" fill="#1155CC"/>
<path d="M77.6808 69.0405C76.8747 69.3009 76.0565 69.5241 75.2143 69.6853C70.7627 83.0267 73.8427 105.01 82.1083 118.786C84.1537 118.377 86.1509 117.843 88.088 117.211C77.8733 103.956 73.2171 82.382 77.6808 69.0405Z" fill="#1155CC"/>
<path d="M77.6809 69.0399C76.8748 69.3003 76.0567 69.5235 75.2145 69.6847C70.7629 83.0261 73.8429 105.01 82.1085 118.785C84.1538 118.376 86.1511 117.843 88.0881 117.211C77.8734 103.956 73.2173 82.3814 77.6809 69.0399ZM77.7531 69.0151C73.3015 82.3566 78.0058 103.906 88.2566 117.161C86.1992 117.843 84.0696 118.401 81.8919 118.835C73.6985 105.047 70.6666 83.0509 75.1182 69.7095C76.0206 69.5235 76.8989 69.3003 77.7531 69.0151Z" fill="#1155CC"/>
<path d="M81.5086 67.3042C80.8469 67.701 80.137 68.0729 79.367 68.3953C74.9154 81.7368 80.6423 102.902 92.1684 115.673C94.0092 114.88 95.7418 113.999 97.342 113.032C84.1555 101.117 77.057 80.6457 81.5086 67.3042Z" fill="#1155CC"/>
<path d="M81.5083 67.3043C80.8465 67.7011 80.1367 68.073 79.3667 68.3954C74.915 81.7369 80.642 102.902 92.1681 115.673C94.0089 114.88 95.7414 113.999 97.3416 113.032C84.1552 101.117 77.0566 80.6457 81.5083 67.3043ZM81.5684 67.2671C77.1168 80.6085 84.2514 101.055 97.5101 112.933C95.8016 113.962 93.9728 114.905 91.9997 115.748C80.5337 102.952 74.8428 81.7741 79.2945 68.4326C80.1126 68.0854 80.8706 67.7011 81.5684 67.2671Z" fill="#1155CC"/>
<path d="M84.493 64.9731C83.9997 65.4815 83.4583 65.9527 82.8687 66.399C78.4171 79.7405 86.3699 99.6287 100.639 110.825C102.071 109.746 103.394 108.593 104.585 107.378C89.0408 97.2976 80.0413 78.3146 84.493 64.9731Z" fill="#1155CC"/>
<path d="M84.4915 64.9734C83.9983 65.4818 83.4568 65.953 82.8673 66.3993C78.4157 79.7408 86.3684 99.629 100.638 110.825C102.069 109.747 103.393 108.594 104.584 107.378C89.0394 97.2979 80.0399 78.3149 84.4915 64.9734ZM84.5397 64.9238C80.088 78.2653 89.1116 97.2111 104.692 107.254C103.429 108.556 102.033 109.784 100.493 110.925C86.2722 99.691 78.3435 79.778 82.7951 66.4365C83.4448 65.9654 84.0223 65.457 84.5397 64.9238Z" fill="#1155CC"/>
<path d="M86.5963 62.146C86.2714 62.7288 85.9105 63.2991 85.4894 63.8447C81.0377 77.1861 90.6629 95.45 106.978 104.638C108 103.323 108.891 101.96 109.661 100.534C92.4676 92.6726 82.1446 75.4874 86.5963 62.146Z" fill="#1155CC"/>
<path d="M86.5958 62.146C86.2709 62.7287 85.91 63.2991 85.4889 63.8447C81.0373 77.1861 90.6624 95.45 106.977 104.638C108 103.323 108.89 101.96 109.66 100.534C92.4671 92.6726 82.1442 75.4874 86.5958 62.146ZM86.6198 62.084C82.1682 75.4254 92.5153 92.5734 109.732 100.385C108.914 101.898 107.964 103.361 106.869 104.749C90.5782 95.5244 80.9771 77.2233 85.4287 63.8819C85.898 63.3239 86.283 62.7163 86.6198 62.084Z" fill="#1155CC"/>
<path d="M87.4398 60.2119C87.3676 60.4227 87.2954 60.6335 87.2112 60.8443C82.7595 74.1857 93.4675 90.5402 111.142 97.3721C111.346 96.8637 111.527 96.3554 111.695 95.847C93.8405 89.511 82.9761 73.5534 87.4398 60.2119Z" fill="#1155CC"/>
<path d="M87.4405 60.2119C87.3683 60.4227 87.2961 60.6335 87.2119 60.8443C82.7602 74.1857 93.4682 90.5402 111.142 97.3721C111.347 96.8637 111.527 96.3554 111.696 95.847C93.8412 89.511 82.9768 73.5534 87.4405 60.2119ZM87.4405 60.2119C82.9888 73.5534 93.8532 89.511 111.708 95.847C111.515 96.4049 111.311 96.9629 111.094 97.5209C93.4441 90.6394 82.7362 74.2477 87.1878 60.9063C87.272 60.6707 87.3562 60.4475 87.4405 60.2119Z" fill="#1155CC"/>
<path d="M31.7559 21.2286C31.9002 20.0879 32.1409 18.972 32.4777 17.8809C40.6952 25.2087 44.6656 35.0164 42.0066 43.857C42.139 43.3611 42.163 43.2743 42.2352 42.8031C43.1857 32.5366 37.0617 25.4071 31.7559 21.2286Z" fill="#1155CC"/>
<path d="M31.7557 21.2287C31.9001 20.0879 32.1407 18.972 32.4776 17.8809C40.6951 25.2088 44.6654 35.0165 42.0065 43.8571C42.1388 43.3611 42.1629 43.2743 42.2351 42.8031C43.1856 32.5367 37.0616 25.4072 31.7557 21.2287ZM31.6113 21.2411C39.1069 26.9694 43.2217 34.8925 42.2351 42.7783C42.1629 43.2123 42.1388 43.3487 41.9945 43.8942C44.7376 34.9793 40.7071 25.0476 32.3813 17.6577C32.0204 18.8232 31.7557 20.0135 31.6113 21.2411Z" fill="#1155CC"/>
<path d="M31.7805 27.2797C31.6121 26.077 31.552 24.8867 31.564 23.7212C38.3858 28.4949 42.3923 35.178 42.2599 42.2207V41.9727C42.2599 41.9107 42.2479 41.8363 42.2479 41.7743C41.1891 35.6244 37.9527 31.1607 31.7805 27.2797Z" fill="#1155CC"/>
<path d="M31.7799 27.2797C31.6114 26.077 31.5513 24.8867 31.5633 23.7211C38.3851 28.4948 42.3916 35.1779 42.2593 42.2206V41.9726C42.2593 41.9107 42.2472 41.8363 42.2472 41.7743C41.1885 35.6243 37.952 31.1606 31.7799 27.2797ZM31.6716 27.3293C37.6272 30.8382 41.4411 35.9715 42.2472 41.7867C42.2472 41.8487 42.2593 41.923 42.2593 41.985C42.2593 42.0594 42.2593 42.171 42.2593 42.2578C42.4157 35.1407 38.3611 28.346 31.431 23.5352C31.4189 24.7751 31.4911 26.0398 31.6716 27.3293Z" fill="#1155CC"/>
<path d="M33.4405 33.5537C32.9592 32.3262 32.5742 31.1111 32.2734 29.896C37.5312 32.6858 41.0684 36.8643 42.2595 41.7992C42.2956 41.8983 42.3317 42.0471 42.3678 42.1463L42.428 42.3075C40.9481 38.5134 37.8199 35.4756 33.4405 33.5537Z" fill="#1155CC"/>
<path d="M33.4403 33.5537C32.9591 32.3262 32.5741 31.1111 32.2733 29.8959C37.531 32.6857 41.0683 36.8643 42.2594 41.7991C42.2955 41.8983 42.3316 42.0471 42.3677 42.1463L42.4278 42.3075C40.948 38.5133 37.8198 35.4756 33.4403 33.5537ZM33.3681 33.6281C38.0845 35.8227 40.7073 38.3398 42.4398 42.3447L42.3677 42.1463C42.3316 42.0347 42.2834 41.8983 42.2594 41.7867C41.2608 38.2034 39.2034 33.5909 32.1289 29.71C32.4297 31.0119 32.8508 32.3138 33.3681 33.6281Z" fill="#1155CC"/>
<path d="M36.7604 39.8526C35.9543 38.6375 35.2445 37.4223 34.6309 36.1948C38.4328 37.6083 41.2361 39.9642 42.7761 43.0515L43.0769 43.6095C43.2574 43.8947 43.474 44.2666 43.6665 44.5518C42.1866 42.3076 39.8405 40.6957 36.7604 39.8526Z" fill="#1155CC"/>
<path d="M36.7593 39.8521C35.9531 38.637 35.2433 37.4219 34.6297 36.1944C38.4316 37.6079 41.2349 39.9637 42.775 43.0511L43.0758 43.6091C43.2562 43.8942 43.4728 44.2662 43.6653 44.5514C42.1854 42.3072 39.8393 40.6953 36.7593 39.8521ZM36.7352 39.9389C39.0212 40.6209 41.632 41.6128 43.7014 44.601C43.5089 44.3034 43.2562 43.9066 43.0758 43.6091C42.9795 43.4355 42.8472 43.1999 42.7509 43.0139C41.1989 39.8645 38.3354 37.4591 34.4492 36.0332C35.1109 37.3475 35.8689 38.6494 36.7352 39.9389Z" fill="#1155CC"/>
<path d="M41.7545 45.9648C41.2011 45.4069 40.6596 44.8241 40.1423 44.2413C39.6249 43.6462 39.1316 43.0634 38.6504 42.4683C40.7198 42.9642 42.729 43.5966 44.63 45.8904L45.4602 46.8823L46.4949 47.9983C45.376 46.808 43.7638 46.1136 41.7545 45.9648Z" fill="#1155CC"/>
<path d="M41.753 45.9647C41.1996 45.4067 40.6582 44.824 40.1408 44.2412C39.6235 43.646 39.1302 43.0633 38.6489 42.4681C40.7183 42.9641 42.7276 43.5964 44.6285 45.8903L45.4587 46.8822L46.4934 47.9981C45.3745 46.8078 43.7623 46.1135 41.753 45.9647ZM41.7771 46.0639C43.8104 46.2003 45.4346 46.8822 46.5897 48.0601L45.4828 46.8698C45.2181 46.5598 44.8571 46.1383 44.6045 45.8159C43.1246 44.0924 41.7049 43.0261 38.4805 42.3193C38.9858 42.9517 39.5152 43.5964 40.0686 44.2164C40.61 44.8488 41.1755 45.4687 41.7771 46.0639Z" fill="#1155CC"/>
<path d="M47.9739 51.3092C46.6745 50.3669 45.4353 49.375 44.2441 48.3211C45.8924 48.2839 47.2159 48.7178 48.1905 49.5734L48.4311 49.7841C49.177 50.3917 50.1756 51.21 50.9577 51.7804C50.2117 51.2348 49.2011 51.0737 47.9739 51.3092Z" fill="#1155CC"/>
<path d="M47.973 51.3095C46.6736 50.3672 45.4344 49.3752 44.2433 48.3213C45.8916 48.2841 47.215 48.7181 48.1896 49.5736L48.4302 49.7844C49.1762 50.392 50.1748 51.2103 50.9568 51.7807C50.2109 51.2351 49.2002 51.0739 47.973 51.3095ZM48.0212 51.4087C49.2724 51.1483 50.2951 51.2971 51.041 51.8427C50.247 51.2351 49.1882 50.4168 48.4302 49.772L48.1174 49.4992C47.1188 48.6065 45.7472 48.1725 44.0508 48.2097C45.3141 49.338 46.6375 50.4044 48.0212 51.4087Z" fill="#1155CC"/>
<path d="M55.0248 55.6612C53.5931 54.9173 52.1974 54.1113 50.8379 53.2558C51.8124 52.9086 52.6065 52.921 53.184 53.293C54.1947 53.8882 55.5422 54.6817 56.5769 55.2397C56.2159 55.0537 55.6986 55.1901 55.0248 55.6612Z" fill="#1155CC"/>
<path d="M55.024 55.6612C53.5922 54.9173 52.1966 54.1113 50.837 53.2558C51.8116 52.9086 52.6057 52.921 53.1832 53.293C54.1938 53.8881 55.5413 54.6817 56.576 55.2397C56.2151 55.0537 55.6977 55.1901 55.024 55.6612ZM55.1323 55.7604C55.806 55.2645 56.3354 55.1157 56.6843 55.3016L56.6001 55.252C55.5293 54.6569 54.1216 53.8633 53.0749 53.231C52.4853 52.8466 51.6672 52.8342 50.6445 53.1938C52.1003 54.1113 53.5922 54.9669 55.1323 55.7604Z" fill="#1155CC"/>
<path d="M62.6755 58.9597C61.1475 58.4266 59.6436 57.8314 58.1758 57.1743C58.645 56.6287 58.9819 56.4055 59.1864 56.4923L61.4483 57.4347L62.9643 57.9926C62.9643 57.9926 62.8801 58.315 62.6755 58.9597Z" fill="#1155CC"/>
<path d="M62.6763 58.9595C61.1483 58.4263 59.6444 57.8311 58.1766 57.174C58.6458 56.6284 58.9827 56.4053 59.1872 56.492L61.4491 57.4344L62.9651 57.9923C62.9651 57.9923 62.8809 58.3147 62.6763 58.9595ZM62.8087 59.0463C63.0132 58.3767 63.0974 58.0295 63.0734 58.0295L61.4371 57.4344L59.0549 56.4425C58.8383 56.3433 58.4894 56.5788 57.9961 57.1492C59.5842 57.856 61.1844 58.4883 62.8087 59.0463Z" fill="#1155CC"/>
<path d="M70.6533 61.1292C69.0892 60.8192 67.5371 60.4472 65.9851 60.0133C65.9971 59.3065 65.9009 58.9222 65.7324 58.8726L66.5024 59.0833C67.4289 59.3065 68.6561 59.6041 69.5945 59.8025C70.0276 59.8769 70.3766 60.3233 70.6533 61.1292Z" fill="#1155CC"/>
<path d="M70.6525 61.1293C69.0884 60.8193 67.5364 60.4473 65.9843 60.0134C65.9963 59.3066 65.9001 58.9222 65.7316 58.8726L66.5017 59.0834C67.4281 59.3066 68.6553 59.6042 69.5937 59.8026C70.0269 59.877 70.3758 60.3233 70.6525 61.1293ZM70.8209 61.2037C70.5322 60.3605 70.1592 59.9018 69.7261 59.8274C68.7636 59.6166 67.4642 59.3314 66.5137 59.0834L65.6113 58.8354C65.7798 58.885 65.864 59.2694 65.8399 60.0134C67.4882 60.4845 69.1606 60.8813 70.8209 61.2037Z" fill="#1155CC"/>
<path d="M78.7022 62.0968C77.1502 62.0348 75.5981 61.886 74.034 61.6876C73.649 61.1049 73.1798 60.3733 72.3496 60.2617C73.4445 60.3733 74.9123 60.5221 76.0072 60.5841C76.7291 60.6709 77.487 60.7701 78.7022 62.0968Z" fill="#1155CC"/>
<path d="M78.7014 62.0962C77.1494 62.0342 75.5973 61.8854 74.0332 61.687C73.6482 61.1043 73.179 60.3727 72.3488 60.2611C73.4437 60.3727 74.9115 60.5215 76.0064 60.5835C76.7283 60.6703 77.4863 60.7695 78.7014 62.0962ZM78.906 62.1582C78.0517 61.2903 77.402 60.7075 76.1267 60.5835C74.9597 60.4967 73.3956 60.3727 72.2285 60.2363C72.8542 60.3231 73.4196 60.8067 73.9129 61.7118C75.5853 61.935 77.2456 62.0838 78.906 62.1582Z" fill="#1155CC"/>
<path d="M86.5584 61.7993C85.0665 61.9853 83.5626 62.0969 82.0226 62.1341C80.8435 61.0801 79.6403 60.5718 78.4492 60.609C79.135 60.5718 80.0374 60.5346 80.7111 60.4726L81.5533 60.3858C83.1776 60.175 84.874 60.6462 86.5584 61.7993Z" fill="#1155CC"/>
<path d="M86.559 61.7987C85.0671 61.9847 83.5631 62.0963 82.0231 62.1335C80.844 61.0796 79.6409 60.5712 78.4498 60.6084C79.1356 60.5712 80.0379 60.534 80.7117 60.472L81.5539 60.3852C83.1781 60.1745 84.8746 60.6456 86.559 61.7987ZM86.7875 61.8359C85.055 60.6456 83.3225 60.1497 81.6622 60.3728L80.7237 60.472C80.0139 60.5216 79.0634 60.5836 78.3535 60.6084C79.5567 60.5712 80.7718 61.1044 81.9509 62.1831C83.5752 62.1459 85.1994 62.0343 86.7875 61.8359Z" fill="#1155CC"/>
<path d="M93.9706 60.162C92.599 60.6084 91.1793 60.9803 89.7356 61.2779C87.594 60.0628 85.4885 59.6536 83.5273 60.0628L84.2974 59.8892C84.7425 59.7652 85.32 59.6164 85.7652 59.48C88.2557 58.6493 91.059 58.8849 93.9706 60.162Z" fill="#1155CC"/>
<path d="M93.9712 60.1621C92.5996 60.6084 91.1799 60.9804 89.7361 61.278C87.5945 60.0629 85.489 59.6537 83.5279 60.0629L84.2979 59.8893C84.7431 59.7653 85.3206 59.6165 85.7657 59.4801C88.2562 58.6494 91.0596 58.885 93.9712 60.1621ZM94.2118 60.1621C92.4793 59.4677 89.5797 58.2898 85.8139 59.4677C85.3567 59.6041 84.7551 59.7777 84.2859 59.9017L83.4316 60.0877C85.4048 59.6909 87.5223 60.1125 89.676 61.3648C91.24 61.0548 92.744 60.658 94.2118 60.1621Z" fill="#1155CC"/>
<path d="M100.551 57.1988C99.4077 57.8807 98.1925 58.5131 96.8811 59.071C95.0643 58.4759 91.2744 57.236 87.0273 59.009C87.7853 58.6619 87.7853 58.6619 88.1222 58.4635C91.9963 56.3432 95.6058 55.9836 100.551 57.1988Z" fill="#1155CC"/>
<path d="M100.552 57.1987C99.4086 57.8807 98.1935 58.513 96.882 59.071C95.0653 58.4758 91.2754 57.2359 87.0283 59.009C87.7863 58.6618 87.7863 58.6618 88.1231 58.4634C91.9973 56.3432 95.6067 55.9836 100.552 57.1987ZM100.792 57.1615C96.0639 55.8596 91.6604 56.306 88.1592 58.4386C87.6178 58.7362 87.5216 58.7858 86.9922 59.0214C89.9038 57.7815 93.3087 57.8187 96.87 59.1578C98.2777 58.575 99.5771 57.9055 100.792 57.1615Z" fill="#1155CC"/>
<path d="M105.677 53.1814C104.835 54.0493 103.896 54.8677 102.886 55.624C97.3512 54.4585 92.298 55.3512 88.4961 58.2154C88.5322 58.1906 88.5683 58.1534 88.6044 58.1286L88.5442 58.1906C92.6349 53.9997 98.783 52.2638 105.677 53.1814Z" fill="#1155CC"/>
<path d="M105.678 53.1811C104.835 54.049 103.897 54.8673 102.886 55.6237C97.3519 54.4582 92.2987 55.3509 88.4967 58.2151C88.5328 58.1903 88.5689 58.1531 88.605 58.1283L88.5448 58.1903C92.6355 53.9994 98.7836 52.2635 105.678 53.1811ZM105.906 53.1191C98.9039 52.1643 92.6716 53.925 88.5328 58.2027L88.593 58.1407L88.4727 58.2275C92.2866 55.3757 97.3639 54.5078 102.91 55.7353C104.017 54.9169 105.004 54.049 105.906 53.1191Z" fill="#1155CC"/>
<path d="M109.274 48.3329C108.733 49.3373 108.095 50.3168 107.373 51.2467C99.4206 50.602 92.4785 53.1066 88.3517 58.4382C88.1472 58.7234 88.1231 58.7482 88.0028 58.959L87.8945 59.145C91.7205 52.0651 99.7936 48.2337 109.274 48.3329Z" fill="#1155CC"/>
<path d="M109.275 48.3333C108.733 49.3377 108.096 50.3172 107.374 51.2471C99.421 50.6024 92.4788 53.107 88.352 58.4386C88.1475 58.7238 88.1234 58.7486 88.0031 58.9594L87.8948 59.1454C91.7208 52.0655 99.7939 48.2341 109.275 48.3333ZM109.491 48.2465C99.8902 48.1225 91.7208 52.0035 87.8828 59.1702L88.0031 58.9594C88.2197 58.5998 88.2317 58.5998 88.3641 58.4262C92.5269 53.1194 99.4931 50.652 107.458 51.3587C108.228 50.3544 108.914 49.3253 109.491 48.2465Z" fill="#1155CC"/>
<path d="M110.718 45.0225C110.598 45.382 110.466 45.754 110.321 46.1012C99.7216 46.5228 90.8905 51.47 87.5698 59.8394L87.4375 60.2114C90.4333 51.2344 99.6013 45.7292 110.718 45.0225Z" fill="#1155CC"/>
<path d="M110.718 45.0226C110.598 45.3822 110.466 45.7542 110.321 46.1014C99.7216 46.5229 90.8905 51.4702 87.5698 59.8396L87.4375 60.2116C90.4333 51.2346 99.6013 45.7294 110.718 45.0226ZM110.887 45.0103C99.6975 45.6798 90.4454 51.185 87.4375 60.2116L87.5819 59.8024C90.9507 51.4454 99.8178 46.5477 110.442 46.1882C110.598 45.8038 110.742 45.407 110.887 45.0103Z" fill="#1155CC"/>
</svg>
