<svg width="123" height="120" viewBox="0 0 123 120" fill="none" xmlns="http://www.w3.org/2000/svg">
<path d="M99.2643 12.6927C100.571 13.7449 102.291 15.1776 103.552 16.2745C100.044 13.0733 92.1791 14.4164 80.8979 21.0426C80.8979 21.0426 80.875 21.0426 80.875 21.0202C90.2989 13.2972 96.6503 10.678 99.2643 12.6927Z" fill="#1155CC"/>
<path d="M99.2637 12.6925C100.571 13.7446 102.29 15.1773 103.551 16.2742C100.043 13.0731 92.1785 14.4162 80.8973 21.0424C80.8973 21.0424 80.8744 21.0424 80.8744 21.02C90.2983 13.2969 96.6498 10.6778 99.2637 12.6925ZM99.1261 12.5806C96.5122 10.5882 90.1837 13.2745 80.7598 21.1095C92.1556 14.4386 100.089 13.0954 103.62 16.3414C102.29 15.1997 100.502 13.6775 99.1261 12.5806Z" fill="#1155CC"/>
<path d="M91.743 7.78988L92.2016 8.03612C93.3939 8.75246 94.976 9.69266 96.1454 10.4538C94.2193 9.13302 88.9915 12.558 80.8745 21.0198C80.8745 21.0198 80.8516 21.0198 80.8516 20.9975C83.8782 16.5651 90.2296 7.29739 91.743 7.78988Z" fill="#1155CC"/>
<path d="M91.7429 7.78984L92.2015 8.03608C93.3938 8.75243 94.9759 9.69263 96.1453 10.4537C94.2192 9.13298 88.9914 12.558 80.8744 21.0198C80.8744 21.0198 80.8515 21.0198 80.8515 20.9974C83.8781 16.565 90.2296 7.29735 91.7429 7.78984ZM91.5824 7.7003C90.734 7.2302 87.0882 11.6626 80.7598 21.1317C88.9914 12.6252 94.311 9.22253 96.2829 10.5657C95.0676 9.80455 93.4397 8.77481 92.2015 8.03608L91.5824 7.7003Z" fill="#1155CC"/>
<path d="M83.8787 4.1416L86.2404 5.10419L88.4875 6.11154C88.4416 6.06677 85.8964 11.014 80.8061 20.998H80.7832C84.108 10.1857 85.0481 4.56693 83.8787 4.1416Z" fill="#1155CC"/>
<path d="M83.8781 4.14089L86.2399 5.10347L88.4869 6.11083C88.4411 6.06606 85.8959 11.0133 80.8056 20.9973H80.7827C84.1074 10.185 85.0475 4.56622 83.8781 4.14089ZM83.7406 4.07373C84.9558 4.49906 84.0616 10.2074 80.7598 21.1316C85.9189 11.0805 88.5557 6.13322 88.6474 6.17799L86.2628 5.08109L83.7406 4.07373Z" fill="#1155CC"/>
<path d="M75.4863 1.58936C76.8621 1.94753 78.6964 2.41763 80.0493 2.82057L80.462 2.95488C82.5256 3.60407 82.8008 9.6706 80.783 20.9978H80.7601C80.9435 8.8871 78.9028 2.35047 75.4863 1.58936Z" fill="#1155CC"/>
<path d="M75.4867 1.58969C76.8624 1.94786 78.6968 2.41797 80.0496 2.82091L80.4623 2.95522C82.526 3.60441 82.8011 9.67094 80.7833 20.9981H80.7604C80.9439 8.88744 78.9031 2.35081 75.4867 1.58969ZM75.3262 1.54492C76.8624 2.14934 80.9209 3.78349 80.7833 21.1324C82.8699 9.71571 82.6635 3.62679 80.6228 2.99999L80.0496 2.82091C78.628 2.41797 76.7478 1.88071 75.3262 1.54492Z" fill="#1155CC"/>
<path d="M66.2461 0.179199C67.897 0.358285 70.0753 0.604528 71.7262 0.850771C76.1515 1.56711 79.5451 8.37237 80.7603 20.9755H80.7374C77.5044 7.67841 72.1389 0.649299 66.2461 0.179199Z" fill="#1155CC"/>
<path d="M66.244 0.179199C67.8949 0.358285 70.0732 0.604528 71.7241 0.850771C76.1494 1.56711 79.543 8.37237 80.7582 20.9755H80.7353C77.5023 7.67841 72.1368 0.649299 66.244 0.179199ZM66.0605 0.179199C72.0222 0.626914 77.4564 7.72319 80.7582 21.1322C79.6118 8.43953 76.3099 1.61189 71.8846 0.873157C70.1878 0.626914 67.9407 0.335899 66.244 0.179199H66.0605Z" fill="#1155CC"/>
<path d="M55.7656 0.246243L58.4025 0.0671572L62.0024 0C69.9589 0.7835 75.3931 6.85003 80.7127 20.9754H80.6898C73.5588 6.51424 64.3412 -0.559643 55.7656 0.246243Z" fill="#1155CC"/>
<path d="M55.7664 0.246243L58.4033 0.0671572L62.0032 0C69.9596 0.7835 75.3939 6.85003 80.7135 20.9754H80.6905C73.5595 6.51424 64.342 -0.559643 55.7664 0.246243ZM55.5371 0.268629C64.2044 -0.582029 73.5366 6.53663 80.7593 21.1321C76.0359 7.23059 69.18 0.0671572 62.1866 0C61.0401 0.0223857 59.5268 0.0223857 58.4033 0.0671572L55.5371 0.268629Z" fill="#1155CC"/>
<path d="M43.7969 2.50737C45.5624 2.05966 47.9012 1.45525 49.6897 1.09707L50.9737 0.873217C60.6728 -0.783327 71.7247 6.0667 80.6672 20.9756H80.6442C68.9274 5.48467 55.0322 -0.805712 43.7969 2.50737Z" fill="#1155CC"/>
<path d="M43.7977 2.50679C45.5632 2.05908 47.902 1.45467 49.6905 1.09649L50.9745 0.872637C60.6736 -0.783907 71.7255 6.06612 80.6679 20.975H80.645C68.9281 5.48409 55.033 -0.806293 43.7977 2.50679ZM43.5684 2.57395C54.8725 -0.828678 68.9281 5.50648 80.7597 21.1093C71.886 6.1109 60.88 -0.806292 51.1809 0.805479L49.6905 1.07411C47.8561 1.52182 45.4027 2.08147 43.5684 2.57395Z" fill="#1155CC"/>
<path d="M30.5684 8.12625C32.8842 6.91742 36.0026 5.41758 38.4102 4.38784C50.6086 -0.469863 66.7278 5.17134 80.6459 20.998H80.623C63.3802 4.90271 43.8673 0.55988 30.5684 8.12625Z" fill="#1155CC"/>
<path d="M30.5686 8.12622C32.8845 6.91739 36.0029 5.41755 38.4104 4.3878C50.6088 -0.469899 66.7281 5.1713 80.6462 20.998H80.6232C63.3804 4.90267 43.8676 0.559844 30.5686 8.12622ZM30.3164 8.26053C43.6612 0.604615 63.3804 4.92506 80.7608 21.1323C66.9345 5.23846 50.861 -0.514671 38.6627 4.27587C33.1596 6.64876 33.0679 6.69353 30.3164 8.26053Z" fill="#1155CC"/>
<path d="M17.3828 18.1546L19.584 16.0503C21.1203 14.7519 23.1839 13.0282 24.8119 11.8194C38.5465 1.83538 60.765 4.81268 80.6218 20.9976C80.6218 20.9976 80.6218 20.9976 80.5989 21.0199C57.0505 5.05893 31.0257 4.45451 17.3828 18.1546Z" fill="#1155CC"/>
<path d="M17.3836 18.1547L19.5848 16.0504C21.1211 14.752 23.1847 13.0283 24.8127 11.8195C38.5473 1.83548 60.7658 4.81278 80.6225 20.9977C80.6225 20.9977 80.6225 20.9976 80.5996 21.02C57.0512 5.05902 31.0265 4.4546 17.3836 18.1547ZM17.1543 18.3785C30.7972 4.52176 57.0512 5.05902 80.7601 21.132C60.9951 4.83516 38.8225 1.74593 25.0878 11.618C23.414 12.9164 21.2128 14.6401 19.6077 16.028L17.1543 18.3785Z" fill="#1155CC"/>
<path d="M6.92773 32.2802C8.02834 30.3774 9.54167 27.8702 10.7569 26.0346L12.5454 23.617C25.5005 7.00676 54.3455 5.46214 80.5995 21.0202C80.5995 21.0202 80.5995 21.0202 80.5995 21.0426C50.6768 6.4695 18.0026 11.5287 6.92773 32.2802Z" fill="#1155CC"/>
<path d="M6.92664 32.2803C8.02724 30.3775 9.54058 27.8703 10.7558 26.0347L12.5443 23.617C25.4994 7.00682 54.3444 5.4622 80.5984 21.0203C80.5984 21.0203 80.5984 21.0203 80.5984 21.0427C50.6757 6.46956 18.0015 11.5287 6.92664 32.2803ZM6.78906 32.5937C17.7722 11.6407 50.6986 6.49195 80.7589 21.1322C54.5966 5.43982 25.7745 6.82773 12.7507 23.3708L10.7788 26.0347C9.51765 27.9822 7.88967 30.579 6.78906 32.5937Z" fill="#1155CC"/>
<path d="M1.10352 48.5994L1.60796 46.3385C2.22705 44.1223 3.09836 41.1898 3.87796 39.0407C4.2219 38.1229 4.63462 37.2275 5.07028 36.3321C15.7095 14.8865 49.4843 8.08128 80.5764 21.0426C80.5764 21.0426 80.5764 21.0426 80.5764 21.065C48.7276 10.7004 14.3337 19.6323 3.69452 41.0554C2.47927 43.5179 1.60796 46.0475 1.10352 48.5994Z" fill="#1155CC"/>
<path d="M1.1025 48.5993L1.60694 46.3383C2.22603 44.1221 3.09735 41.1896 3.87694 39.0406C4.22088 38.1228 4.63361 37.2273 5.06926 36.3319C15.7084 14.8864 49.4833 8.08114 80.5754 21.0425C80.5754 21.0425 80.5754 21.0425 80.5754 21.0649C48.7266 10.7003 14.3327 19.6322 3.69351 41.0553C2.47826 43.5177 1.60694 46.0473 1.1025 48.5993ZM1.05664 48.9127C1.56108 46.316 2.4324 43.7192 3.67058 41.212C14.3327 19.7441 48.8413 10.745 80.7588 21.132C49.6438 7.96921 15.7772 14.6849 5.11512 36.1528C4.7024 37.0035 4.3126 37.8541 3.99159 38.7048C3.21199 40.9881 2.22603 44.0326 1.60694 46.3383L1.05664 48.9127Z" fill="#1155CC"/>
<path d="M0.163487 64.3814C0.0946994 62.6801 -0.019947 60.4192 0.00298229 58.7178L0.163487 55.4048C4.52005 24.2662 46.022 12.3346 80.5535 21.0874V21.1098C48.4525 15.5134 13.8523 28.318 3.21308 49.7412C0.782578 54.666 -0.203381 59.6133 0.163487 64.3814Z" fill="#1155CC"/>
<path d="M0.163487 64.3811C0.0946994 62.6798 -0.019947 60.4188 0.00298229 58.7175L0.163487 55.4044C4.52005 24.2659 46.022 12.3343 80.5535 21.0871V21.1095C48.4525 15.5131 13.8523 28.3177 3.21308 49.7408C0.782578 54.6657 -0.203381 59.6129 0.163487 64.3811ZM0.186417 64.6721C-0.180452 59.8592 0.782578 54.8672 3.23601 49.8975C13.8981 28.4296 48.6131 15.5578 80.7599 21.1319C36.3459 10.6106 2.66278 30.5787 0.186417 55.091L0.00298229 58.7175C0.0259116 60.5084 0.0488409 62.8812 0.186417 64.6721Z" fill="#1155CC"/>
<path d="M2.89289 78.1931C2.25087 75.9097 1.44835 72.8429 0.943904 70.5371C-0.0420554 65.1646 0.806328 59.3891 3.71835 53.524C14.3575 32.0785 48.7285 17.5949 80.5773 21.1095V21.1319C49.4852 20.5498 15.7104 37.4063 5.07117 58.8294C1.60885 65.8138 1.01269 72.4175 2.89289 78.1931Z" fill="#1155CC"/>
<path d="M2.89218 78.1932C2.25016 75.9099 1.44763 72.843 0.943188 70.5373C-0.0427704 65.1647 0.805613 59.3892 3.71763 53.5242C14.3568 32.0786 48.7278 17.5951 80.5766 21.1096V21.132C49.4845 20.55 15.7096 37.4064 5.07046 58.8296C1.60814 65.8139 1.01198 72.4177 2.89218 78.1932ZM2.96096 78.4395C-4.65156 48.8008 40.3357 21.0425 80.76 21.132C48.8654 17.4608 14.3339 31.8772 3.67177 53.3451C0.782683 59.1654 -0.0427704 64.9185 0.89733 70.2687C1.4247 72.7311 2.25016 75.9994 2.96096 78.4395Z" fill="#1155CC"/>
<path d="M7.91418 89.476L7.45559 88.6925C6.60721 87.0583 5.50661 84.8869 4.74994 83.208C2.29651 77.4325 2.6863 70.4258 6.51549 62.7251C17.1547 41.3019 50.2875 22.7218 80.5541 21.1548V21.1772C51.8008 25.6767 19.8833 46.6297 9.24408 68.0529C4.97923 76.649 4.77287 84.0139 7.91418 89.476Z" fill="#1155CC"/>
<path d="M7.91418 89.4755L7.45559 88.692C6.60721 87.0578 5.50661 84.8864 4.74994 83.2075C2.29651 77.4319 2.6863 70.4252 6.51549 62.7245C17.1547 41.3014 50.2875 22.7212 80.5541 21.1542V21.1766C51.8008 25.6761 19.8833 46.6292 9.24408 68.0523C4.97923 76.6484 4.77287 84.0133 7.91418 89.4755ZM8.02883 89.6545C4.86459 84.2148 5.07095 76.8499 9.3358 68.2314C19.9979 46.7635 51.9843 25.6761 80.7605 21.1318C31.9211 24.7136 -4.69692 60.1502 4.68115 82.9836C5.48368 84.7073 6.58428 86.9906 7.47852 88.692L8.02883 89.6545Z" fill="#1155CC"/>
<path d="M14.2201 98.3851L12.1565 95.8331L10.4139 93.4379C-2.35774 70.9178 41.3455 31.116 80.6004 21.1768C80.6004 21.1768 80.6004 21.1991 80.6233 21.1991C37.3787 38.66 2.22812 84.103 14.2201 98.3851Z" fill="#1155CC"/>
<path d="M14.2173 98.385L12.1537 95.833L10.4111 93.4377C-2.36055 70.9177 41.3427 31.1159 80.5976 21.1766C80.5976 21.1766 80.5976 21.199 80.6205 21.199C37.3759 38.6599 2.2253 84.1029 14.2173 98.385ZM14.3549 98.5193C1.76672 80.3421 44.7133 34.8767 80.7581 21.1318C53.1971 27.6013 22.2196 50.2557 11.5575 71.7236C7.04045 80.8122 6.87995 88.2442 10.3193 93.281L12.1766 95.833L14.3549 98.5193Z" fill="#1155CC"/>
<path d="M21.4194 105.504L19.287 103.646L17.1316 101.564C13.6922 98.0275 14.082 90.9088 19.0806 80.8129C29.7198 59.3897 57.2349 32.7284 80.5999 21.1997C60.2158 35.4594 35.0853 64.3146 24.4461 85.7377C19.2411 96.2143 18.4615 102.997 21.4194 105.504Z" fill="#1155CC"/>
<path d="M21.4187 105.504L19.2863 103.646L17.1309 101.564C13.6915 98.0268 14.0813 90.9081 19.0799 80.8122C29.7191 59.389 57.2342 32.7276 80.5991 21.199C60.215 35.4587 35.0845 64.3139 24.4453 85.737C19.2404 96.2135 18.4608 102.996 21.4187 105.504ZM21.5563 105.638C18.6213 103.153 19.4009 96.3926 24.6288 85.8937C35.2909 64.4258 60.4214 35.4363 80.7826 21.1318C57.303 32.5486 29.6274 59.1876 18.9652 80.6555C13.9667 90.729 13.5998 97.8701 17.0392 101.429L19.3321 103.646L21.5563 105.638Z" fill="#1155CC"/>
<path d="M28.895 110.899C27.7027 110.138 26.1206 109.108 24.9512 108.28L24.5384 107.966C22.1079 106.175 23.2544 99.706 28.574 88.9833C39.2132 67.5601 62.5093 37.2499 80.6464 21.2217C80.6464 21.2217 80.6693 21.2217 80.6693 21.2441C65.857 39.5108 45.2665 71.6119 34.6273 93.0351C29.239 103.937 27.4275 109.959 28.895 110.899Z" fill="#1155CC"/>
<path d="M28.8944 110.899C27.7021 110.138 26.12 109.108 24.9506 108.28L24.5379 107.966C22.1074 106.176 23.2538 99.7061 28.5734 88.9834C39.2126 67.5602 62.5088 37.25 80.6458 21.2218C80.6458 21.2218 80.6687 21.2218 80.6687 21.2442C65.8564 39.5109 45.2659 71.6121 34.6267 93.0352C29.2384 103.937 27.427 109.959 28.8944 110.899ZM29.032 110.966C27.5875 110.071 29.4218 104.049 34.8331 93.1471C45.4952 71.6792 66.0628 39.4214 80.7605 21.1099C62.5088 37.0485 39.0521 67.3811 28.39 88.8491C23.0704 99.5494 21.9469 106.041 24.4003 107.877L24.9506 108.28C26.1888 109.108 27.7938 110.205 29.032 110.966Z" fill="#1155CC"/>
<path d="M36.6218 114.884C35.246 114.257 33.4346 113.406 32.0818 112.712C31.4168 112.332 33.7327 106.601 39.1669 95.6319C49.8061 74.2088 68.3788 40.9436 80.6689 21.2441H80.6918C71.9787 42.6673 56.318 77.3204 45.6788 98.7435C40.2446 109.735 37.1721 115.107 36.6218 114.884Z" fill="#1155CC"/>
<path d="M36.6204 114.883C35.2447 114.256 33.4332 113.406 32.0804 112.712C31.4155 112.331 33.7313 106.601 39.1656 95.6315C49.8048 74.2084 68.3775 40.9432 80.6675 21.2438H80.6905C71.9774 42.6669 56.3167 77.32 45.6775 98.7431C40.2432 109.735 37.1707 115.107 36.6204 114.883ZM36.7809 114.95C37.3542 115.197 40.4725 109.824 45.9297 98.8551C56.5918 77.3872 72.1837 42.5997 80.7822 21.1318C68.3545 40.7417 49.6442 74.0517 38.9821 95.5196C33.5479 106.489 31.255 112.242 31.9658 112.622C33.3645 113.316 35.2447 114.256 36.6663 114.883L36.7809 114.95Z" fill="#1155CC"/>
<path d="M44.8278 117.749L42.8559 117.167L39.9668 116.204C41.4343 116.719 45.0571 111.548 50.4913 100.646C61.1535 79.2451 74.6588 43.7414 80.7351 21.2661H80.758C78.4192 44.9278 67.9176 81.3942 57.2784 102.817C51.9359 113.562 47.5793 118.487 44.8278 117.749Z" fill="#1155CC"/>
<path d="M44.8287 117.749L42.8567 117.167L39.9677 116.204C41.4351 116.719 45.058 111.548 50.4922 100.646C61.1543 79.2456 74.6597 43.7418 80.7359 21.2666H80.7589C78.4201 44.9283 67.9185 81.3946 57.2793 102.818C51.9367 113.563 47.5802 118.488 44.8287 117.749ZM44.9892 117.794C47.7636 118.533 52.1431 113.608 57.4856 102.862C68.1477 81.3946 78.5576 44.794 80.7589 21.1099C74.5909 43.518 60.9479 79.0889 50.2858 100.557C44.8745 111.459 41.2517 116.63 39.8301 116.137L42.8567 117.167L44.9892 117.794Z" fill="#1155CC"/>
<path d="M53.8191 119.517C52.5121 119.316 50.7924 119.069 49.5084 118.845L48.4766 118.644C52.0765 119.383 56.9145 114.592 62.1653 104.004C72.8045 82.5806 81.1278 45.577 80.761 21.2661H80.7839C84.8882 46.2038 79.5916 83.6999 68.9524 105.123C63.885 115.353 58.5196 120.077 53.8191 119.517Z" fill="#1155CC"/>
<path d="M53.818 119.517C52.511 119.316 50.7913 119.069 49.5073 118.846L48.4755 118.644C52.0754 119.383 56.9134 114.592 62.1643 104.004C72.8034 82.5806 81.1268 45.577 80.7599 21.2661H80.7828C84.8872 46.2038 79.5905 83.6999 68.9513 105.123C63.8839 115.353 58.5185 120.077 53.818 119.517ZM54.0014 119.539C58.7249 120.077 64.1132 115.376 69.2035 105.168C79.8657 83.6999 85.0477 46.0695 80.7828 21.1318C81.058 45.4203 72.6429 82.4911 61.9808 103.959C56.73 114.547 51.9149 119.36 48.3379 118.599L49.5302 118.846C50.8372 119.069 52.6257 119.383 54.0014 119.539Z" fill="#1155CC"/>
<path d="M63.8381 119.965C62.0496 119.988 59.642 119.965 57.8535 119.898C63.196 120.189 68.8825 115.511 73.7894 105.594C84.4285 84.1706 87.5469 46.473 80.7828 21.2891H80.8057C91.1927 46.5178 91.0092 84.2377 80.3701 105.661C75.7383 115.018 69.8685 119.719 63.8381 119.965Z" fill="#1155CC"/>
<path d="M63.8384 119.965C62.0499 119.987 59.6423 119.965 57.8539 119.898C63.1964 120.189 68.8828 115.51 73.7897 105.593C84.4289 84.17 87.5473 46.4725 80.7831 21.2885H80.8061C91.193 46.5172 91.0096 84.2372 80.3704 105.66C75.7387 115.018 69.8688 119.719 63.8384 119.965ZM64.0448 119.942C87.4785 116.987 96.8566 61.5828 80.7831 21.1318C87.4785 46.2934 84.2684 84.1029 73.6063 105.571C68.6765 115.51 63.013 120.189 57.6934 119.875C59.5736 119.942 62.1416 120.077 64.0448 119.942Z" fill="#1155CC"/>
<path d="M75.3486 118.465L73.2161 118.913C71.7945 119.137 69.9372 119.45 68.5156 119.629C74.7753 118.913 80.6223 114.189 85.0247 105.347C95.6639 83.9239 93.7837 46.3383 80.8516 21.311H80.8745C97.2231 45.7786 101.832 82.9165 91.1927 104.34C87.203 112.331 81.6312 117.032 75.3486 118.465Z" fill="#1155CC"/>
<path d="M75.3493 118.465L73.2169 118.913C71.7953 119.137 69.938 119.45 68.5164 119.629C74.7761 118.913 80.6231 114.189 85.0255 105.347C95.6647 83.9238 93.7845 46.3382 80.8524 21.3109H80.8753C97.2239 45.7785 101.833 82.9164 91.1935 104.34C87.2038 112.331 81.632 117.032 75.3493 118.465ZM75.5786 118.398C81.8383 116.943 87.4101 112.264 91.3769 104.25C102.039 82.7821 97.2927 45.577 80.7606 21.1318C93.6469 46.1815 95.4583 83.879 84.7962 105.347C80.3938 114.212 74.5468 118.935 68.2871 119.629C69.7546 119.428 71.7494 119.159 73.2169 118.89L75.5786 118.398Z" fill="#1155CC"/>
<path d="M88.3273 113.965C86.6764 114.682 84.4981 115.644 82.8243 116.271L80.623 117.032C86.6076 115.107 91.7896 110.496 95.4354 103.153C106.075 81.7299 99.5626 45.1069 80.8982 21.2661H80.9211C102.635 43.8981 111.623 79.5585 100.984 100.982C97.8888 107.16 93.5093 111.481 88.3273 113.965Z" fill="#1155CC"/>
<path d="M88.3256 113.966C86.6747 114.682 84.4964 115.645 82.8226 116.272L80.6214 117.033C86.6059 115.108 91.7879 110.496 95.4337 103.154C106.073 81.7305 99.561 45.1075 80.8965 21.2667H80.9194C102.633 43.8987 111.622 79.5591 100.983 100.982C97.8871 107.161 93.5076 111.481 88.3256 113.966ZM88.5778 113.854C93.7369 111.369 98.0706 107.049 101.12 100.915C111.782 79.4472 102.656 43.742 80.7589 21.1548C107.036 56.7929 106.83 107.026 80.3691 117.122L82.8226 116.294C84.5652 115.578 86.8811 114.66 88.5778 113.854Z" fill="#1155CC"/>
<path d="M101.764 105.324C96.7655 109.22 96.7655 109.22 93.9681 110.943C98.3706 108.257 102.039 104.295 104.653 99.0117C115.292 77.5886 104.653 42.8236 80.8984 21.2661C80.8984 21.2661 80.8984 21.2661 80.9214 21.2661C107.175 41.0103 119.832 74.3203 109.17 95.7658C107.29 99.5937 104.768 102.773 101.764 105.324Z" fill="#1155CC"/>
<path d="M101.763 105.325C96.7644 109.22 96.7644 109.22 93.967 110.943C98.3695 108.257 102.038 104.295 104.652 99.0117C115.291 77.5886 104.652 42.8236 80.8973 21.2661C80.8973 21.2661 80.8973 21.2661 80.9203 21.2661C107.174 41.0104 119.831 74.3203 109.169 95.7658C107.289 99.5938 104.767 102.773 101.763 105.325ZM101.992 105.123C104.95 102.593 107.427 99.4371 109.307 95.6539C119.969 74.186 107.197 40.8313 80.7598 21.1318C104.537 42.7341 115.154 77.6334 104.492 99.1013C101.855 104.429 98.1402 108.414 93.6919 111.1C98.6905 107.832 99.2178 107.496 101.992 105.123Z" fill="#1155CC"/>
<path d="M113.251 92.3192L112.15 93.9533C110.66 95.9232 108.596 98.4976 106.968 100.356C108.917 98.2514 110.591 95.8337 111.944 93.125C122.583 71.7019 108.711 39.556 80.9434 21.2221C80.9434 21.2221 80.9434 21.2221 80.9434 21.1997C110.43 37.3174 125.724 67.6725 115.085 89.0956C114.535 90.2373 113.916 91.3118 113.251 92.3192Z" fill="#1155CC"/>
<path d="M113.251 92.3184L112.15 93.9526C110.66 95.9225 108.596 98.4969 106.968 100.355C108.917 98.2506 110.591 95.833 111.944 93.1243C122.583 71.7012 108.711 39.5553 80.9437 21.2214C80.9437 21.2214 80.9437 21.2214 80.9437 21.199C110.431 37.3167 125.725 67.6718 115.085 89.0949C114.535 90.2366 113.916 91.3111 113.251 92.3184ZM113.435 92.0498C114.054 91.0872 114.65 90.0575 115.177 89.0053C125.839 67.5374 110.431 37.16 80.7832 21.1318C108.596 39.4881 122.492 71.7907 111.829 93.2586C110.454 96.0121 108.734 98.4745 106.739 100.601C108.436 98.6536 110.614 96.0121 112.15 93.9526L113.435 92.0498Z" fill="#1155CC"/>
<path d="M120.611 76.3357C118.662 82.1336 118.547 82.4918 116.942 85.8273C127.375 64.4265 111.325 35.5713 80.9434 21.2221C80.9434 21.2221 80.9434 21.2221 80.9434 21.1997C109.949 32.1463 126.55 55.8976 120.611 76.3357Z" fill="#1155CC"/>
<path d="M120.611 76.335C118.662 82.1329 118.548 82.4911 116.943 85.8266C127.376 64.4258 111.325 35.5706 80.9437 21.2214C80.9437 21.2214 80.9437 21.2214 80.9437 21.199C109.949 32.1456 126.55 55.8969 120.611 76.335ZM120.703 76.0216C126.711 49.1588 102.933 29.6608 80.7832 21.1318C111.302 35.5706 127.421 64.6497 116.805 86.1176C118.892 81.3942 119.855 79.2452 120.703 76.0216Z" fill="#1155CC"/>
<path d="M122.927 60.1283L122.904 61.27C122.743 63.7324 122.468 67.0007 122.147 69.4632C125.334 50.2114 108.688 29.8628 80.9434 21.1772C80.9434 21.1772 80.9434 21.1772 80.9434 21.1548C106.693 26.9303 122.973 42.9585 122.927 60.1283Z" fill="#1155CC"/>
<path d="M122.927 60.1282L122.904 61.2698C122.743 63.7323 122.468 67.0006 122.147 69.463C125.334 50.2113 108.688 29.8627 80.9432 21.177C80.9432 21.177 80.9432 21.177 80.9432 21.1546C106.693 26.9301 122.973 42.9583 122.927 60.1282ZM122.927 59.8372C121.23 32.1012 90.2296 23.1917 80.7598 21.1099C108.688 29.8403 125.403 50.3904 122.101 69.754C122.422 67.2244 122.766 63.8218 122.904 61.2698L122.927 59.8372Z" fill="#1155CC"/>
<path d="M121.162 45.7119L122.056 49.8757L122.606 53.8603C121.001 38.347 105.203 25.0723 80.9668 21.1772V21.1548C103.002 22.6994 117.883 32.5715 121.162 45.7119Z" fill="#1155CC"/>
<path d="M121.161 45.7114L122.055 49.8751L122.606 53.8598C121.001 38.3465 105.202 25.0717 80.9661 21.1766V21.1542C103.001 22.6988 117.882 32.5709 121.161 45.7114ZM121.092 45.4651C117.768 32.3695 102.841 22.5869 80.7598 21.1318C105.179 25.0717 121.069 38.4808 122.629 54.1284L122.032 49.8751C121.757 48.532 121.436 46.7635 121.092 45.4651Z" fill="#1155CC"/>
<path d="M116.69 33.668C117.538 35.5036 118.616 37.9661 119.35 39.8465L119.51 40.2942C114.099 27.7806 101.121 21.3335 80.9434 21.132V21.1096C99.2639 19.3411 112.104 24.4451 116.69 33.668Z" fill="#1155CC"/>
<path d="M116.69 33.668C117.538 35.5037 118.616 37.9661 119.35 39.8465L119.51 40.2942C114.099 27.7806 101.121 21.3335 80.9432 21.132V21.1096C99.2637 19.3412 112.104 24.4451 116.69 33.668ZM116.598 33.4666C111.989 24.266 99.1032 19.2516 80.7598 21.132C101.373 21.2216 115.566 29.0118 119.602 40.5404L119.35 39.8465C118.57 37.9213 117.515 35.347 116.598 33.4666Z" fill="#1155CC"/>
<path d="M110.659 24.02L110.751 24.1543C111.852 25.6989 113.296 27.7808 114.328 29.3702C109.627 21.6024 97.75 18.155 80.9429 21.0875C80.9429 21.0875 80.9429 21.0651 80.9199 21.0651C95.6635 16.6775 106.119 18.1326 110.659 24.02Z" fill="#1155CC"/>
<path d="M110.66 24.0198L110.752 24.1541C111.852 25.6987 113.297 27.7806 114.329 29.37C109.628 21.6021 97.7509 18.1547 80.9437 21.0872C80.9437 21.0872 80.9437 21.0649 80.9208 21.0649C95.6643 16.6773 106.12 18.1323 110.66 24.0198ZM110.545 23.8855C106.028 18.0204 95.5267 16.6325 80.7832 21.132C97.7279 18.1771 109.72 21.714 114.42 29.549C113.343 27.9149 111.898 25.7435 110.752 24.1541L110.545 23.8855Z" fill="#1155CC"/>
<path d="M103.69 16.4083C104.974 17.6619 106.671 19.3632 107.886 20.684C102.612 15.7591 94.5414 15.871 80.9214 21.0645C80.9214 21.0645 80.9214 21.0421 80.8984 21.0421C92.2484 14.4607 100.159 13.1624 103.69 16.4083Z" fill="#1155CC"/>
<path d="M103.689 16.4086C104.973 17.6622 106.67 19.3635 107.885 20.6843C102.611 15.7594 94.5403 15.8713 80.9203 21.0648C80.9203 21.0648 80.9203 21.0424 80.8973 21.0424C92.2473 14.461 100.158 13.1627 103.689 16.4086ZM103.62 16.3414C100.089 13.0955 92.1556 14.4387 80.7598 21.1096C94.2422 15.6923 103.804 15.9833 108 20.8186C106.716 19.4531 104.996 17.6398 103.62 16.3414Z" fill="#1155CC"/>
</svg>
