<svg width="287" height="305" viewBox="0 0 287 305" fill="none" xmlns="http://www.w3.org/2000/svg">
<path d="M235.711 255.11L213.04 304.742H202.095L200.524 300.953L198.584 304.742H191.402L192.233 275.767L192.586 258.649L235.711 255.11Z" fill="#9EC1FF"/>
<path opacity="0.3" d="M235.711 255.11L213.04 304.742H202.095L200.524 300.953L198.584 304.742H191.402L192.233 275.767L192.586 258.649L235.711 255.11Z" fill="#1155CC"/>
<path d="M136.463 260.43L114.346 304.742H103.401L101.839 301.27L99.8899 304.742H92.708L93.548 278.215L93.9008 262.545L136.463 260.43Z" fill="#9EC1FF"/>
<path opacity="0.3" d="M136.463 260.43L114.346 304.742H103.401L101.839 301.27L99.8899 304.742H92.708L93.548 278.215L93.9008 262.545L136.463 260.43Z" fill="#1155CC"/>
<path d="M10.6699 129.829L10.4682 129.904L9.88029 130.153C9.14073 130.52 8.44953 130.976 7.82231 131.51C6.81666 132.36 5.96448 133.374 5.30236 134.508C4.43199 136.008 3.92044 137.685 3.80716 139.412C3.67989 141.525 4.21696 143.625 5.34435 145.423C6.63387 147.49 8.54283 149.106 10.8043 150.044C12.0432 150.59 13.3839 150.872 14.7396 150.872C16.0953 150.872 17.4359 150.59 18.6749 150.044C20.0042 149.428 21.0466 148.332 21.5897 146.98C21.8906 146.289 22.0113 145.535 21.9409 144.785C21.8704 144.036 21.611 143.316 21.1865 142.692C20.7324 142.095 20.152 141.604 19.4859 141.253C18.8198 140.902 18.0843 140.7 17.331 140.661C15.8675 140.597 14.4308 141.065 13.2906 141.976C12.2334 142.824 11.3899 143.904 10.8271 145.131C10.2643 146.358 9.99757 147.698 10.0482 149.045C10.1313 151.479 11.0164 153.818 12.5682 155.706C13.2595 156.562 14.0882 157.299 15.021 157.887C15.884 158.418 16.813 158.835 17.7845 159.128C19.4585 159.608 21.2147 159.738 22.9421 159.511C24.2424 159.347 25.5124 158.999 26.7136 158.479C27.4711 158.157 28.1943 157.761 28.8723 157.296L29.3847 156.913C29.4473 156.871 29.5038 156.821 29.5527 156.763C28.637 157.374 27.6637 157.896 26.6464 158.32C25.4538 158.807 24.1985 159.126 22.9169 159.27C21.2246 159.464 19.5101 159.317 17.8769 158.837C16.9379 158.538 16.0405 158.124 15.2058 157.604C14.3121 157.026 13.5204 156.306 12.8622 155.473C11.3808 153.64 10.5459 151.376 10.4851 149.028C10.4452 147.748 10.7042 146.475 11.2418 145.309C11.7794 144.144 12.5811 143.117 13.5846 142.309C14.646 141.465 15.979 141.027 17.3394 141.077C18.0281 141.114 18.7004 141.3 19.3096 141.62C19.9188 141.941 20.4503 142.389 20.8673 142.934C21.2478 143.5 21.4795 144.152 21.5411 144.829C21.6027 145.507 21.4924 146.189 21.2201 146.814C20.7167 148.069 19.7494 149.088 18.5153 149.661C17.3252 150.185 16.0375 150.456 14.7354 150.456C13.4332 150.456 12.1456 150.185 10.9554 149.661C8.76725 148.762 6.91503 147.212 5.65514 145.223C4.54385 143.486 4.00652 141.449 4.11795 139.395C4.21158 137.709 4.69133 136.066 5.52076 134.591C6.14181 133.474 6.94501 132.467 7.89788 131.61C8.73932 130.899 9.67129 130.3 10.6699 129.829Z" fill="#9EC1FF"/>
<path d="M21.5013 174.731C18.2086 248.375 80.4935 285.126 151.002 285.126C221.51 285.126 278.68 237.276 278.68 178.253C278.68 119.229 221.561 71.3794 151.002 71.3794C80.4431 71.3794 24.1389 115.766 21.5013 174.731Z" fill="#9EC1FF"/>
<path opacity="0.3" d="M159.9 97.7726C159.9 97.7726 151.408 95.0833 143.512 103.976C135.616 112.868 124.529 127.98 124.529 127.98C125.52 132.9 128.418 136.73 134.037 139.012L159.9 97.7726Z" fill="#1155CC"/>
<path d="M234.953 254.818C210.811 254.818 191.24 239.952 191.24 221.614C191.24 203.276 210.811 188.41 234.953 188.41C259.095 188.41 278.666 203.276 278.666 221.614C278.666 239.952 259.095 254.818 234.953 254.818Z" fill="#9EC1FF"/>
<path d="M194.178 132.842C194.178 132.842 168.558 93.4431 156.824 97.7227C145.089 102.002 134.077 139.012 134.077 139.012" fill="#9EC1FF"/>
<path d="M223.15 123.817L224.351 113.143C224.351 113.143 240.386 106.482 254.759 103.243C269.131 100.004 271.953 103.243 271.953 103.243L249.223 134.807L223.15 123.817Z" fill="#9EC1FF"/>
<path opacity="0.3" d="M188.953 86.0247L180.452 91.0203C180.452 91.0203 139.293 80.1965 107.659 91.0203L119.26 81.2372C119.26 81.2372 157.605 73.0777 188.953 86.0247Z" fill="#1155CC"/>
<path opacity="0.3" d="M234.953 254.818C210.811 254.818 191.24 239.952 191.24 221.614C191.24 203.276 210.811 188.41 234.953 188.41C259.095 188.41 278.666 203.276 278.666 221.614C278.666 239.952 259.095 254.818 234.953 254.818Z" fill="#1155CC"/>
<path d="M246.055 254.818C223.439 254.818 205.105 239.952 205.105 221.614C205.105 203.276 223.439 188.41 246.055 188.41C268.67 188.41 287.004 203.276 287.004 221.614C287.004 239.952 268.67 254.818 246.055 254.818Z" fill="#9EC1FF"/>
<path opacity="0.3" d="M260.205 206.036H263.355C264.904 206.036 266.16 207.281 266.16 208.817V234.412C266.16 235.947 264.904 237.192 263.355 237.192H260.205C258.655 237.192 257.399 235.947 257.399 234.412V208.817C257.399 207.281 258.655 206.036 260.205 206.036Z" fill="#1155CC"/>
<path opacity="0.3" d="M236.677 206.036H239.827C241.377 206.036 242.633 207.281 242.633 208.817V234.412C242.633 235.947 241.377 237.192 239.827 237.192H236.677C235.128 237.192 233.872 235.947 233.872 234.412V208.817C233.872 207.281 235.128 206.036 236.677 206.036Z" fill="#1155CC"/>
<path opacity="0.3" d="M225.636 124.857C221.949 122.801 219.975 119.72 221.361 114.633C221.361 114.633 240.386 106.499 254.759 103.243C269.131 99.9875 271.953 103.243 271.953 103.243L249.223 134.807L225.636 124.857Z" fill="#1155CC"/>
<path d="M224.353 125.723L227.218 123.816C235.693 118.205 260.456 102.169 266.697 101.994C275.315 101.744 275.332 109.113 275.315 114.808C275.315 118.846 271.955 153.94 271.955 153.94" fill="#9EC1FF"/>
<path d="M134.077 139.012C134.077 139.012 134.119 138.937 134.178 138.77C134.237 138.604 134.321 138.346 134.422 138.046L135.363 135.257C136.203 132.842 137.429 129.354 139.109 125.107C141.05 120.126 143.294 115.266 145.829 110.553C147.313 107.772 149.054 105.133 151.028 102.669C152.06 101.37 153.254 100.206 154.581 99.2051C155.886 98.1221 157.552 97.5609 159.252 97.6315C160.952 97.8431 162.586 98.4107 164.048 99.2967C165.497 100.126 166.876 101.07 168.172 102.119C170.626 104.119 172.941 106.281 175.102 108.589C178.76 112.516 182.217 116.623 185.459 120.894C188.248 124.516 190.407 127.555 191.885 129.62L193.565 132.035L194.01 132.667C194.111 132.801 194.162 132.876 194.17 132.867C194.139 132.787 194.097 132.711 194.044 132.642L193.641 131.985C193.28 131.419 192.734 130.586 192.011 129.529C190.583 127.405 188.458 124.366 185.694 120.703C182.473 116.406 179.03 112.276 175.379 108.33C173.212 106.001 170.889 103.821 168.424 101.803C167.106 100.735 165.701 99.7775 164.224 98.9386C162.706 98.0384 161.01 97.4706 159.252 97.2734C158.347 97.1809 157.434 97.3066 156.589 97.6398C155.777 97.9776 155.007 98.4079 154.296 98.922C152.935 99.9422 151.715 101.135 150.667 102.469C148.678 104.954 146.929 107.619 145.442 110.429C142.922 115.141 140.705 120.008 138.806 124.999C137.127 129.27 135.967 132.776 135.186 135.207C134.8 136.423 134.506 137.372 134.346 138.021L134.145 138.762C134.109 138.841 134.087 138.926 134.077 139.012Z" fill="#1155CC"/>
<path d="M119.262 81.2456C119.185 81.2861 119.115 81.3365 119.052 81.3955L118.464 81.8617L116.229 83.7184L108.065 90.5791L107.527 91.037L108.216 90.8455C113.152 89.4638 118.167 88.3766 123.235 87.59C129.429 86.6416 135.683 86.1352 141.95 86.0747C154.851 85.9394 167.704 87.6529 180.11 91.1619H180.169H180.219L186.687 87.4069L188.367 86.3994L188.804 86.1247C188.897 86.0664 188.947 86.0331 188.939 86.0247L188.779 86.0997L188.334 86.3328L186.595 87.282L180.068 90.9371H180.169C174.822 89.3719 169.379 88.1482 163.873 87.2737C160.614 86.7408 157.103 86.3495 153.432 86.0331C149.762 85.7167 145.873 85.6001 141.925 85.6751C135.64 85.7327 129.367 86.2504 123.159 87.2237C118.078 88.0268 113.051 89.1391 108.107 90.5541L108.25 90.8206L116.322 83.8516L118.506 81.9367C118.741 81.7285 118.917 81.562 119.069 81.4371C119.138 81.3787 119.203 81.3147 119.262 81.2456Z" fill="#1155CC"/>
<path d="M221.628 194.996C221.715 194.961 221.798 194.913 221.871 194.854L222.552 194.413L223.643 193.68C224.089 193.414 224.626 193.131 225.214 192.798C228.607 191.032 232.257 189.805 236.033 189.159C238.638 188.723 241.271 188.481 243.912 188.435C246.944 188.413 249.972 188.633 252.967 189.093C259.858 190.095 266.431 192.628 272.195 196.503C273.67 197.546 275.073 198.687 276.395 199.917C277.675 201.123 278.863 202.423 279.948 203.805C281.999 206.424 283.651 209.328 284.853 212.422C286.775 217.735 287.148 223.478 285.928 228.991C285.43 231.092 284.688 233.128 283.719 235.061C282.957 236.504 282.06 237.872 281.04 239.149L279.881 240.514L278.94 241.43L278.36 242.005C278.295 242.068 278.233 242.135 278.175 242.205C278.175 242.205 278.251 242.155 278.394 242.038L278.999 241.497L279.973 240.606C280.326 240.206 280.721 239.773 281.174 239.257C282.227 237.987 283.153 236.618 283.938 235.169C284.944 233.229 285.714 231.178 286.231 229.058C287.507 223.487 287.161 217.672 285.231 212.289C284.651 210.749 283.949 209.257 283.131 207.826C282.295 206.329 281.343 204.898 280.284 203.547C279.188 202.143 277.986 200.824 276.689 199.6C275.346 198.351 273.914 197.199 272.405 196.153C266.589 192.226 259.948 189.664 252.984 188.66C249.966 188.205 246.915 187.997 243.862 188.035C241.203 188.102 238.552 188.367 235.932 188.826C232.134 189.502 228.472 190.784 225.088 192.623C224.5 192.964 223.971 193.256 223.534 193.539L222.459 194.305L221.804 194.788C221.737 194.85 221.678 194.92 221.628 194.996Z" fill="#1155CC"/>
<path d="M257.655 208.951C257.586 209.392 257.555 209.837 257.562 210.283C257.562 211.207 257.47 212.431 257.403 213.897C257.277 216.952 257.025 221.165 256.907 225.836C256.907 227.002 256.907 228.142 256.907 229.241C256.889 230.312 256.97 231.383 257.151 232.439C257.269 233.357 257.599 234.237 258.114 235.009C258.63 235.781 259.318 236.426 260.124 236.893C260.69 237.175 261.32 237.305 261.952 237.272C262.584 237.238 263.196 237.042 263.728 236.702C264.013 236.515 264.259 236.274 264.45 235.994C264.519 235.901 264.57 235.797 264.602 235.686C264.333 236.03 264.006 236.326 263.636 236.56C263.125 236.848 262.55 237.005 261.963 237.015C261.376 237.025 260.796 236.889 260.276 236.618C259.531 236.155 258.901 235.533 258.432 234.796C257.962 234.06 257.665 233.229 257.562 232.364C257.401 231.331 257.33 230.286 257.352 229.241C257.352 228.142 257.352 227.01 257.394 225.844C257.512 221.182 257.714 216.961 257.764 213.905C257.764 212.373 257.764 211.141 257.764 210.283C257.765 209.837 257.728 209.391 257.655 208.951Z" fill="#1155CC"/>
<path d="M234.444 208.951C234.369 209.391 234.335 209.837 234.343 210.283C234.343 211.207 234.251 212.431 234.192 213.897C234.058 216.952 233.814 221.165 233.696 225.836C233.696 227.002 233.696 228.142 233.696 229.242C233.679 230.312 233.758 231.382 233.932 232.439C234.051 233.357 234.381 234.236 234.897 235.008C235.412 235.78 236.099 236.425 236.905 236.893C237.472 237.175 238.103 237.305 238.737 237.271C239.37 237.238 239.984 237.042 240.517 236.702C240.801 236.516 241.044 236.275 241.231 235.994C241.304 235.903 241.358 235.798 241.391 235.686C241.119 236.028 240.793 236.323 240.425 236.56C239.914 236.848 239.339 237.005 238.752 237.015C238.165 237.025 237.585 236.889 237.065 236.618C236.318 236.158 235.685 235.537 235.215 234.8C234.746 234.063 234.45 233.23 234.352 232.364C234.185 231.332 234.115 230.286 234.142 229.242C234.142 228.142 234.142 227.01 234.184 225.844C234.301 221.182 234.503 216.961 234.553 213.905C234.553 212.373 234.553 211.141 234.553 210.283C234.554 209.837 234.517 209.391 234.444 208.951Z" fill="#1155CC"/>
<path d="M205.6 228.842C205.634 229.04 205.693 229.233 205.776 229.416C205.919 229.782 206.079 230.34 206.398 231.023C207.233 232.966 208.263 234.821 209.472 236.56C211.255 239.151 213.342 241.524 215.688 243.629C217.08 244.862 218.544 246.013 220.073 247.076C221.728 248.202 223.46 249.215 225.256 250.106C228.715 251.861 232.384 253.176 236.175 254.02C239.26 254.661 242.406 254.971 245.558 254.944C248.254 254.944 250.422 254.786 251.925 254.677L253.647 254.544C253.851 254.535 254.053 254.507 254.252 254.461C254.051 254.446 253.848 254.446 253.647 254.461L251.917 254.519C250.413 254.569 248.238 254.669 245.558 254.644C242.423 254.628 239.298 254.288 236.234 253.628C232.49 252.768 228.868 251.454 225.449 249.715C223.674 248.831 221.96 247.832 220.317 246.726C218.801 245.678 217.348 244.544 215.965 243.329C213.626 241.26 211.532 238.933 209.724 236.393C208.503 234.681 207.443 232.861 206.558 230.956C206.213 230.29 206.028 229.741 205.86 229.383C205.785 229.197 205.698 229.016 205.6 228.842Z" fill="#1155CC"/>
<path d="M258.157 208.026C258.331 207.735 258.525 207.457 258.737 207.193C259.046 206.865 259.417 206.602 259.829 206.417C260.242 206.233 260.687 206.132 261.139 206.119C261.809 206.113 262.471 206.25 263.083 206.52C263.694 206.79 264.24 207.187 264.684 207.684C265.206 208.27 265.575 208.973 265.759 209.733C265.94 210.569 266.022 211.425 266.003 212.28C266.003 215.861 265.961 219.108 266.003 221.439C266.003 222.546 266.003 223.471 266.003 224.22C265.986 224.563 266.011 224.907 266.078 225.244C266.142 224.906 266.173 224.563 266.171 224.22C266.171 223.479 266.229 222.555 266.271 221.439C266.33 219.091 266.397 215.852 266.423 212.28C266.444 211.387 266.354 210.495 266.154 209.624C265.954 208.8 265.543 208.04 264.961 207.418C264.478 206.885 263.881 206.465 263.215 206.187C262.548 205.909 261.828 205.781 261.105 205.811C260.619 205.837 260.143 205.964 259.709 206.183C259.275 206.403 258.892 206.71 258.586 207.085C258.427 207.292 258.298 207.519 258.199 207.759C258.166 207.934 258.14 208.017 258.157 208.026Z" fill="white"/>
<path d="M242.774 209.983C242.657 209.983 242.556 214.37 242.556 219.782C242.556 225.194 242.657 229.582 242.774 229.582C242.892 229.582 242.992 225.194 242.992 219.782C242.992 214.37 242.9 209.983 242.774 209.983Z" fill="white"/>
<path d="M249.813 191.05C249.986 191.069 250.161 191.069 250.334 191.05C250.67 191.05 251.174 191.05 251.812 191.05C253.619 191.109 255.419 191.301 257.197 191.624C263.976 192.875 270.244 196.045 275.245 200.751C280.246 205.457 283.765 211.497 285.378 218.143C285.546 218.759 285.63 219.242 285.714 219.566C285.745 219.736 285.79 219.903 285.848 220.066C285.854 219.892 285.837 219.719 285.798 219.55C285.739 219.225 285.689 218.717 285.546 218.109C285.185 216.34 284.671 214.604 284.009 212.922C281.838 207.325 278.223 202.391 273.525 198.612C268.827 194.834 263.211 192.344 257.239 191.391C255.443 191.093 253.625 190.943 251.804 190.941C251.157 190.941 250.661 190.983 250.325 190.991C250.153 190.992 249.981 191.011 249.813 191.05Z" fill="white"/>
<path d="M271.782 148.628C271.812 148.792 271.863 148.951 271.933 149.103C272.067 149.452 272.244 149.885 272.454 150.418C272.664 150.951 272.966 151.684 273.294 152.508C273.621 153.332 273.949 154.256 274.276 155.305C274.604 156.354 274.99 157.495 275.326 158.736C275.662 159.976 276.007 161.317 276.351 162.724C277.037 165.794 277.553 168.898 277.897 172.024C278.207 175.153 278.348 178.297 278.317 181.441C278.275 182.89 278.25 184.263 278.14 185.554C278.031 186.844 277.947 188.052 277.83 189.126C277.712 190.2 277.561 191.191 277.443 192.057C277.326 192.923 277.208 193.664 277.09 194.271C276.973 194.879 276.922 195.295 276.855 195.662C276.822 195.823 276.805 195.988 276.805 196.153C276.876 196.003 276.924 195.843 276.948 195.678C277.023 195.32 277.132 194.846 277.258 194.296C277.384 193.747 277.552 192.964 277.687 192.098C277.821 191.232 278.014 190.258 278.132 189.159C278.25 188.06 278.418 186.869 278.502 185.579C278.586 184.288 278.661 182.898 278.72 181.416C278.775 178.253 278.646 175.089 278.334 171.941C277.989 168.799 277.458 165.68 276.746 162.599C276.385 161.192 276.066 159.843 275.671 158.603C275.276 157.362 274.932 156.213 274.57 155.172C274.209 154.131 273.84 153.207 273.52 152.391C273.201 151.575 272.907 150.884 272.68 150.326L272.084 149.036C271.997 148.89 271.896 148.753 271.782 148.628Z" fill="white"/>
<path d="M270.536 105.333C270.536 105.333 270.881 105.783 271.376 106.657C272.057 107.906 272.531 109.255 272.779 110.653C273.126 112.737 273.297 114.845 273.292 116.956C273.359 119.346 273.376 121.952 273.292 124.741C273.157 130.253 272.704 135.24 272.284 138.837C272.065 140.577 271.88 142.018 271.746 143.083C271.687 143.55 271.637 143.916 271.595 144.241C271.575 144.379 271.575 144.519 271.595 144.657C271.65 144.529 271.687 144.395 271.704 144.257C271.763 143.949 271.838 143.566 271.931 143.117C272.116 142.117 272.359 140.669 272.611 138.87C273.25 134.176 273.629 129.451 273.745 124.716C273.812 121.943 273.745 119.312 273.695 116.915C273.679 114.783 273.474 112.657 273.082 110.562C272.805 109.152 272.278 107.802 271.528 106.574C271.32 106.238 271.084 105.921 270.822 105.624C270.739 105.516 270.643 105.418 270.536 105.333Z" fill="white"/>
<path d="M188.766 79.2642C188.932 79.3583 189.11 79.431 189.295 79.4806L190.857 80.0302L196.619 81.9868C202.949 84.0905 209.165 86.5166 215.242 89.2554C221.322 92.0178 227.06 95.4653 232.344 99.5298C234.352 101.112 235.906 102.486 236.939 103.468C237.476 103.951 237.854 104.351 238.14 104.6C238.271 104.74 238.415 104.868 238.568 104.983C238.568 104.983 238.451 104.817 238.199 104.542C237.947 104.267 237.577 103.851 237.065 103.351C235.631 101.917 234.12 100.56 232.537 99.2883C227.284 95.1344 221.538 91.6336 215.427 88.8641C209.325 86.1096 203.064 83.7132 196.678 81.687C194.234 80.8544 192.243 80.2799 190.874 79.8636L189.286 79.389C189.117 79.3318 188.943 79.29 188.766 79.2642Z" fill="white"/>
<path d="M159.528 99.8962C159.646 100.004 159.772 100.101 159.906 100.188L161.023 100.97C162.006 101.636 163.4 102.636 165.089 103.901C166.777 105.167 168.751 106.74 170.876 108.555C173.002 110.37 175.227 112.485 177.479 114.792C179.73 117.098 181.746 119.412 183.518 121.569C185.291 123.725 186.786 125.732 187.995 127.472C189.205 129.212 190.162 130.611 190.801 131.635L191.548 132.767C191.623 132.909 191.72 133.038 191.834 133.15C191.774 133.004 191.704 132.862 191.624 132.726C191.439 132.418 191.221 132.026 190.944 131.544C190.356 130.519 189.44 129.046 188.256 127.322C187.071 125.599 185.576 123.534 183.829 121.344C182.082 119.154 180.049 116.84 177.798 114.517C175.547 112.194 173.262 110.112 171.137 108.281C169.012 106.449 167.004 104.95 165.257 103.676C163.51 102.402 162.115 101.478 161.099 100.862L159.94 100.146C159.818 100.04 159.679 99.956 159.528 99.8962Z" fill="white"/>
<path d="M30.0645 157.82C29.6547 158.48 29.3222 159.184 29.0733 159.918C28.3801 161.656 27.7993 163.436 27.3345 165.247C26.8741 167.058 26.529 168.896 26.3013 170.75C26.1654 171.517 26.1203 172.297 26.1669 173.073C26.3636 172.326 26.5095 171.567 26.6037 170.8C26.8473 169.393 27.2253 167.47 27.7629 165.355C28.3005 163.24 28.8969 161.375 29.3589 160.026C29.6485 159.309 29.8843 158.572 30.0645 157.82Z" fill="white"/>
<path d="M50.1692 253.279L50.5807 253.587L51.8155 254.419L53.8315 255.826L55.1251 256.717L56.6286 257.683C62.5985 261.602 68.8159 265.136 75.2427 268.265C77.2839 269.256 79.4426 270.23 81.6938 271.246L85.1713 272.712L86.9689 273.461L88.8169 274.169L92.6052 275.592L96.5699 276.95C97.9055 277.424 99.2831 277.84 100.677 278.257C102.072 278.673 103.475 279.148 104.928 279.514C110.961 281.204 117.082 282.568 123.265 283.602C129.898 284.759 136.602 285.477 143.332 285.75C150.058 286.048 156.797 285.839 163.492 285.126L165.911 284.893C166.751 284.809 167.507 284.676 168.305 284.576L173.009 283.91L177.587 283.077L179.838 282.661L182.038 282.162C192.416 279.901 202.545 276.636 212.278 272.412C218.847 269.607 225.168 266.265 231.178 262.421C233.336 261.113 234.882 259.923 235.974 259.14L237.2 258.249L237.604 257.941C237.604 257.941 237.452 258.024 237.175 258.216L235.924 259.049C234.815 259.781 233.252 260.972 231.085 262.262C225.053 266.059 218.721 269.367 212.152 272.154C202.429 276.332 192.318 279.561 181.963 281.795L179.762 282.287L177.519 282.703L172.95 283.535L168.254 284.193C167.465 284.293 166.675 284.426 165.869 284.51L163.45 284.734C156.774 285.437 150.055 285.643 143.349 285.35C136.64 285.076 129.956 284.367 123.34 283.227C117.173 282.201 111.066 280.847 105.045 279.173C103.592 278.806 102.198 278.34 100.803 277.924C99.4091 277.507 98.0315 277.091 96.6959 276.625L92.7396 275.284L88.9429 273.852L87.0949 273.161L85.3057 272.42L81.8282 270.971C79.5771 269.956 77.4183 268.99 75.3855 268.016C68.9539 264.93 62.7206 261.455 56.721 257.608L55.2091 256.659L53.9071 255.785L51.8659 254.411L50.6059 253.578C50.3203 253.345 50.1692 253.279 50.1692 253.279Z" fill="#1155CC"/>
<path d="M86.3457 262.17L69.462 304.966H57.9206L55.409 301.236L52.4523 304.966H48.37L46.858 237.151L86.3457 262.17Z" fill="#9EC1FF"/>
<path d="M192.398 268.199L178.119 304.967H165.015L162.327 300.737L159.74 305H156.481C156.481 305 155.053 263.52 156.481 262.337C157.909 261.155 192.398 268.199 192.398 268.199Z" fill="#9EC1FF"/>
<path d="M25.7113 186.021C25.7039 186.101 25.7039 186.182 25.7113 186.262C25.7113 186.445 25.7113 186.687 25.7701 186.978C25.8261 187.639 25.9101 188.554 26.0221 189.726C26.0893 190.325 26.1565 190.983 26.2237 191.707C26.2909 192.432 26.4673 193.206 26.6017 194.047C26.9041 195.712 27.1477 197.652 27.6937 199.725C27.9456 200.766 28.1977 201.857 28.4665 202.997C28.7352 204.138 29.1468 205.287 29.4996 206.494C30.1632 208.934 31.1796 211.44 32.1456 214.096C36.7096 225.569 43.3958 236.096 51.86 245.135C53.8508 247.167 55.7072 249.132 57.6307 250.789C58.5799 251.621 59.4535 252.454 60.3691 253.22L63.015 255.327C64.695 256.709 66.3078 257.766 67.7022 258.757C68.4078 259.24 69.0545 259.706 69.6677 260.106L71.3897 261.138L73.7752 262.562L74.3969 262.92C74.4661 262.963 74.5392 262.999 74.6152 263.028C74.6152 263.028 74.5565 262.97 74.4221 262.878L73.8173 262.487L71.4821 260.997L69.8021 259.931C69.1973 259.531 68.559 259.048 67.8618 258.557C66.4842 257.55 64.8546 256.484 63.225 255.085L60.6043 252.962C59.6971 252.221 58.8319 251.363 57.8911 250.522C55.9844 248.857 54.1532 246.892 52.1708 244.861C43.7869 235.827 37.1346 225.353 32.5404 213.954C31.5492 211.307 30.5412 208.809 29.8608 206.394C29.4996 205.187 29.0964 204.038 28.8108 202.914L27.9708 199.659C27.408 197.594 27.1309 195.67 26.8201 194.005C26.6773 193.173 26.5093 192.398 26.4085 191.674C26.3077 190.95 26.2405 190.3 26.1733 189.701C26.0221 188.543 25.9129 187.627 25.8289 186.97L25.7281 186.262C25.7325 186.181 25.7268 186.1 25.7113 186.021Z" fill="white"/>
<g opacity="0.2">
<path opacity="0.2" d="M43.9636 149.919C47.8024 140.51 56.1518 131.601 65.8033 127.738C67.642 127.016 69.6278 126.737 71.5966 126.925C73.5654 127.113 75.4608 127.763 77.1265 128.82C78.7922 129.878 80.1803 131.312 81.1763 133.006C82.1723 134.7 82.7477 136.604 82.855 138.562C82.855 138.629 82.855 138.687 82.855 138.745C83.1573 144.773 80.7718 150.626 77.815 155.922C74.8583 161.217 71.3723 166.221 69.096 171.816C65.3468 181.153 65.2271 191.538 68.76 200.957C71.0112 206.886 74.7491 213.197 71.364 219.108C69.1464 222.98 64.6861 224.886 60.209 224.487C51.6327 223.713 47.1808 216.036 43.1152 209.067C39.8477 203.455 37.1597 194.73 37.0002 188.144C36.5566 175.056 38.9304 162.026 43.9636 149.919Z" fill="white"/>
</g>
<path d="M237.922 170.259C237.669 171.519 237.832 172.826 238.386 173.987C238.94 175.147 239.856 176.101 240.999 176.706C242.141 177.312 243.45 177.537 244.732 177.348C246.013 177.16 247.2 176.568 248.116 175.66C249.032 174.752 249.629 173.575 249.819 172.305C250.01 171.035 249.782 169.738 249.172 168.605C248.561 167.472 247.599 166.564 246.428 166.015C245.257 165.466 243.938 165.305 242.668 165.555C241.496 165.787 240.42 166.358 239.576 167.195C238.731 168.032 238.156 169.098 237.922 170.259Z" fill="#1155CC"/>
<path d="M172.554 170.259C172.302 171.519 172.465 172.826 173.02 173.987C173.574 175.148 174.491 176.101 175.634 176.706C176.778 177.311 178.087 177.535 179.369 177.346C180.651 177.156 181.837 176.563 182.752 175.654C183.668 174.745 184.264 173.568 184.453 172.297C184.642 171.026 184.413 169.729 183.801 168.597C183.189 167.465 182.226 166.558 181.053 166.01C179.881 165.462 178.562 165.303 177.292 165.555C176.121 165.787 175.047 166.358 174.204 167.195C173.361 168.033 172.787 169.099 172.554 170.259Z" fill="#1155CC"/>
<path d="M45.9508 121.36C46.1004 121.219 46.2407 121.069 46.3708 120.91C46.6564 120.569 47.026 120.078 47.4964 119.57C47.9668 119.062 48.5716 118.263 49.2856 117.455C49.9995 116.647 50.7891 115.698 51.7299 114.716C52.6707 113.733 53.6619 112.626 54.7959 111.494C55.9298 110.361 57.1562 109.179 58.4582 107.93C61.0958 105.499 64.0945 102.934 67.3873 100.378C70.68 97.8223 73.9727 95.6408 77.0303 93.7175C78.5674 92.785 80.0206 91.8858 81.4318 91.1198C82.843 90.3538 84.1365 89.6211 85.3545 88.9883C86.5725 88.3555 87.6729 87.8227 88.6389 87.3231C89.6049 86.8235 90.4616 86.4489 91.1588 86.1408L92.7548 85.3998C92.9423 85.3161 93.1246 85.2216 93.3008 85.1167C93.1012 85.1636 92.9071 85.2306 92.7212 85.3165L91.0832 85.9826C90.3776 86.274 89.5209 86.6404 88.5633 87.1066C87.6057 87.5729 86.4465 88.0641 85.2033 88.7052C83.9602 89.3463 82.6414 89.9958 81.247 90.7867C79.8526 91.5777 78.3575 92.4519 76.8035 93.3595C73.7291 95.2661 70.428 97.5225 67.11 100.02C63.7921 102.518 60.8018 105.166 58.1726 107.63C56.8706 108.879 55.6527 110.062 54.5271 111.227C53.4015 112.393 52.4019 113.475 51.4947 114.499C50.5875 115.523 49.8148 116.456 49.0924 117.28C48.37 118.105 47.8156 118.837 47.3536 119.445L46.2868 120.835C46.1612 121.001 46.0489 121.177 45.9508 121.36Z" fill="white"/>
<path d="M109.456 94.4591C109.678 94.4079 109.897 94.344 110.111 94.2676L111.959 93.6348C112.749 93.3517 113.731 93.0104 114.882 92.6773C116.033 92.3443 117.327 91.8947 118.797 91.545L121.098 90.9372C121.896 90.7373 122.736 90.5708 123.618 90.3793C125.348 89.963 127.222 89.6633 129.196 89.3219C137.766 87.9492 146.481 87.7 155.118 88.5809C157.1 88.814 158.99 89.0055 160.737 89.3219C161.619 89.4635 162.467 89.58 163.257 89.7382L165.584 90.2045C167.071 90.4792 168.389 90.8456 169.565 91.1203C170.741 91.3951 171.732 91.6699 172.539 91.9113L174.42 92.4275C174.636 92.5005 174.858 92.5535 175.084 92.5857C174.877 92.4908 174.664 92.4101 174.446 92.3443L172.589 91.7448C171.749 91.4784 170.792 91.1786 169.624 90.9122C168.456 90.6458 167.104 90.2211 165.651 89.9297L163.324 89.4302C162.484 89.2636 161.644 89.1471 160.804 88.9889C159.049 88.6558 157.159 88.456 155.168 88.2062C146.494 87.28 137.734 87.5293 129.128 88.9472C127.154 89.3053 125.273 89.6217 123.542 90.0546C122.702 90.2544 121.862 90.421 121.023 90.6374L118.729 91.2702C117.259 91.6449 115.966 92.1028 114.815 92.4692C113.664 92.8355 112.698 93.1935 111.909 93.5016L110.086 94.2093C109.869 94.2748 109.658 94.3584 109.456 94.4591Z" fill="white"/>
<path d="M1.47425 85.6244C2.96134 89.2515 5.50078 92.3597 8.77106 94.5554C12.0413 96.7511 15.8954 97.9356 19.8452 97.9588C23.795 97.9821 27.663 96.8431 30.9594 94.6861C34.2558 92.5291 36.8323 89.4511 38.3628 85.8417C39.8932 82.2324 40.3088 78.254 39.5569 74.4104C38.8049 70.5669 36.9193 67.0309 34.1387 64.2502C31.3581 61.4695 27.8076 59.5691 23.9368 58.7897C20.0659 58.0104 16.0488 58.387 12.3941 59.872C7.50309 61.8545 3.60588 65.6801 1.55844 70.5086C-0.489006 75.3372 -0.519264 80.7738 1.47425 85.6244Z" fill="#1155CC" fill-opacity="0.2"/>
<path d="M5.87774 83.8424C7.00983 86.6076 8.94422 88.9776 11.436 90.6524C13.9278 92.3272 16.865 93.2314 19.8756 93.2506C22.8861 93.2698 25.8348 92.4031 28.3481 90.7602C30.8615 89.1173 32.8265 86.7722 33.9944 84.0217C35.1622 81.2712 35.4804 78.239 34.9087 75.3091C34.337 72.3792 32.9011 69.6834 30.7827 67.5629C28.6643 65.4424 25.9588 63.9927 23.0087 63.3972C20.0586 62.8018 16.9966 63.0874 14.2104 64.2179C10.4811 65.7264 7.50856 68.6408 5.94608 72.3206C4.3836 76.0005 4.35903 80.1446 5.87774 83.8424Z" fill="#1155CC" fill-opacity="0.2"/>
<path d="M5.87533 83.8424C5.85732 83.7635 5.83487 83.6857 5.80811 83.6093C5.74932 83.4428 5.6737 83.218 5.5813 82.9265C5.5309 82.7767 5.47215 82.6102 5.41335 82.427C5.35455 82.2438 5.32095 82.0357 5.26215 81.8109C5.13016 81.2987 5.03192 80.7787 4.96813 80.2539C4.76776 78.819 4.78475 77.3625 5.01853 75.9327C5.55663 72.5021 7.27963 69.3631 9.89325 67.0519C12.5069 64.7406 15.849 63.4005 19.3487 63.2604C20.0632 63.2343 20.7786 63.2538 21.4906 63.3187C21.8518 63.3187 22.213 63.4269 22.5742 63.4769C22.9382 63.5267 23.2977 63.6046 23.6494 63.71C24.3726 63.8897 25.0826 64.1178 25.7746 64.3928C26.4737 64.6942 27.1502 65.0448 27.7989 65.4418C29.1441 66.2404 30.3474 67.2531 31.3605 68.4392C32.4043 69.6554 33.2541 71.0229 33.8804 72.494C34.4715 73.9805 34.834 75.5467 34.9556 77.1399C35.0637 78.6876 34.9191 80.2423 34.5272 81.7442C34.3453 82.4764 34.1095 83.1944 33.8216 83.8924C33.5228 84.5726 33.1776 85.2318 32.7884 85.8656C32.413 86.4893 31.9918 87.0848 31.5285 87.6474C31.0674 88.1874 30.5708 88.6964 30.0417 89.1711C28.0444 90.9608 25.6038 92.1934 22.969 92.743C20.6765 93.2212 18.3027 93.1584 16.0391 92.5598C14.166 92.0642 12.4065 91.2162 10.8564 90.062C9.67639 89.2071 8.63414 88.1796 7.7653 87.0146C7.43795 86.5972 7.14043 86.1576 6.87491 85.6991C6.75731 85.5076 6.6397 85.3244 6.54731 85.1579C6.45491 84.9914 6.38774 84.8249 6.31214 84.6833L5.99294 84.0422L5.87533 83.8258C5.89402 83.9065 5.92219 83.9847 5.9593 84.0589C6.0349 84.2171 6.13573 84.4336 6.25333 84.7083L6.47168 85.1912C6.56408 85.3661 6.68169 85.5492 6.79929 85.7491C7.04857 86.2141 7.3292 86.662 7.63928 87.0896C8.50109 88.2769 9.54067 89.327 10.7221 90.2035C13.559 92.3378 17.0591 93.4227 20.6174 93.2706C24.1756 93.1186 27.5685 91.7392 30.2097 89.3709C30.7547 88.8873 31.2655 88.367 31.7385 87.8139C32.2094 87.2425 32.6388 86.6388 33.0236 86.0072C33.4211 85.3624 33.7747 84.6921 34.082 84.0006C34.3755 83.286 34.6169 82.5514 34.8044 81.8025C35.2105 80.269 35.3609 78.68 35.2496 77.0983C35.0376 73.8191 33.7483 70.6989 31.5789 68.2144C30.5414 67.0096 29.313 65.9804 27.9417 65.1671C27.2733 64.7693 26.5803 64.4133 25.867 64.1013C25.1668 63.8319 24.4482 63.6121 23.7166 63.4436C23.3555 63.3394 22.988 63.2587 22.6162 63.2021C22.2466 63.1522 21.877 63.0856 21.5159 63.0439C20.7899 62.9777 20.0602 62.961 19.3319 62.994C16.5922 63.1127 13.9337 63.9518 11.6292 65.4252C9.81284 66.6015 8.26877 68.1463 7.09885 69.9575C5.92894 71.7687 5.15981 73.8052 4.84216 75.9327C4.61736 77.3784 4.61736 78.8498 4.84216 80.2955C4.90935 80.8244 5.01599 81.3476 5.16131 81.8608C5.22011 82.0856 5.27052 82.2938 5.32932 82.4769C5.38811 82.6601 5.45534 82.8266 5.51414 82.9765C5.62334 83.2596 5.70732 83.4761 5.76612 83.6426C5.82492 83.8091 5.86693 83.8507 5.87533 83.8424Z" fill="#1155CC" fill-opacity="0.3"/>
<g opacity="0.3">
<path opacity="0.3" d="M6.08022 83.9512C6.03402 83.3312 5.92425 82.7175 5.75261 82.1195C5.44892 80.4937 5.39793 78.8315 5.60142 77.1905C5.75346 76.0687 6.03531 74.9679 6.44141 73.91C6.88774 72.6982 7.48904 71.5482 8.23058 70.488C8.63355 69.9212 9.07412 69.3816 9.54936 68.8728C10.0434 68.3422 10.5799 67.8521 11.1537 67.4074C11.7446 66.9437 12.3709 66.5262 13.0269 66.1585C13.7034 65.7806 14.4083 65.4549 15.1353 65.1843C15.8632 64.9187 16.61 64.7072 17.3696 64.5515C18.078 64.4039 18.797 64.312 19.52 64.2768C20.9505 64.2145 22.3825 64.3604 23.7703 64.7097C26.1438 65.31 28.3346 66.473 30.1542 68.0984C31.3944 69.2036 32.4542 70.4929 33.2957 71.9201C33.9005 72.9359 34.1357 73.5437 34.2617 73.5104C34.1948 72.879 34.0006 72.2674 33.6905 71.7119C32.9705 70.1375 31.9623 68.7091 30.717 67.499C29.8509 66.6593 28.8897 65.9217 27.8527 65.3009C26.6578 64.5944 25.3722 64.0511 24.0307 63.6856C23.307 63.4839 22.5683 63.3391 21.8215 63.2527C21.0418 63.1536 20.2552 63.1174 19.4696 63.1444C18.6573 63.1748 17.8486 63.2667 17.0504 63.4192C16.2272 63.5797 15.4182 63.8053 14.6313 64.0936C13.8493 64.3884 13.0911 64.7419 12.3633 65.151C11.6557 65.5481 10.9841 66.0049 10.3558 66.5165C9.75465 67.0052 9.19296 67.5397 8.67579 68.1151C8.17045 68.6666 7.70982 69.2568 7.29821 69.8802C5.84329 72.0303 4.97511 74.5173 4.77825 77.0989C4.64054 78.8207 4.81986 80.5529 5.30745 82.2111C5.43744 82.8389 5.70087 83.4322 6.08022 83.9512Z" fill="#1155CC"/>
</g>
<g opacity="0.3">
<path opacity="0.3" d="M21.7922 87.1073L22.7581 89.5552L24.9589 88.7226L24.0181 86.3413C25.9518 85.5186 27.6137 84.1743 28.8145 82.4614L26.5465 80.2717C25.6184 81.6201 24.3537 82.7073 22.8758 83.4272L21.4394 79.7887C23.6485 78.2484 26.0593 76.3751 24.7993 73.2528C23.8837 70.9382 21.3974 69.6143 17.7686 70.5718L16.8027 68.1489L14.6019 68.9815L15.5427 71.3628C14.0018 72.0619 12.6513 73.1151 11.6032 74.4351L13.8039 76.7664C14.5983 75.7632 15.5899 74.9304 16.7186 74.3185L18.1886 78.032C15.9711 79.5473 13.6023 81.3624 14.8287 84.4763C15.7191 86.7576 18.1719 88.0399 21.7922 87.1073ZM20.171 76.5999L18.9446 73.5026C20.2214 73.3111 20.9354 73.7607 21.221 74.485C21.5066 75.2094 21.0194 75.9338 20.171 76.5999ZM18.4911 83.3356C18.1887 82.5696 18.6674 81.9119 19.4822 81.2125L20.6498 84.2598C19.457 84.4097 18.743 84.035 18.4658 83.3356H18.4911Z" fill="#1155CC"/>
</g>
<path d="M49.567 46.0175C51.0553 49.6437 53.5956 52.7506 56.8662 54.945C60.1368 57.1393 63.9907 58.3226 67.9401 58.3448C71.8894 58.3671 75.7567 57.2274 79.0523 55.0701C82.3479 52.9127 84.9237 49.8347 86.4535 46.2256C87.9834 42.6165 88.3986 38.6386 87.6465 34.7955C86.8945 30.9524 85.009 27.4169 82.2288 24.6364C79.4486 21.856 75.8987 19.9557 72.0284 19.1761C68.1581 18.3964 64.1414 18.7725 60.4868 20.2568C58.0633 21.2375 55.8584 22.6818 53.998 24.5071C52.1376 26.3325 50.6582 28.5032 49.6442 30.8954C48.6302 33.2875 48.1015 35.8542 48.0882 38.4488C48.075 41.0435 48.5774 43.6154 49.567 46.0175Z" fill="#1155CC" fill-opacity="0.2"/>
<path d="M53.9619 44.236C55.0959 47.0002 57.0318 49.3686 59.5245 51.0416C62.0172 52.7146 64.9547 53.6169 67.965 53.6342C70.9754 53.6516 73.9232 52.7832 76.4354 51.1391C78.9475 49.4949 80.9111 47.149 82.0774 44.3981C83.2438 41.6472 83.5605 38.6152 82.9875 35.6858C82.4145 32.7565 80.9775 30.0615 78.8584 27.9421C76.7394 25.8226 74.0335 24.374 71.0835 23.7797C68.1334 23.1853 65.0718 23.4719 62.2862 24.6032C60.4386 25.35 58.7576 26.4503 57.3393 27.8413C55.9209 29.2323 54.793 30.8867 54.0199 32.7099C53.2469 34.5332 52.8438 36.4896 52.8339 38.4673C52.8239 40.445 53.2073 42.4052 53.9619 44.236Z" fill="#1155CC" fill-opacity="0.2"/>
<path d="M53.9592 44.2357C53.9412 44.1568 53.9188 44.079 53.8921 44.0026L53.6652 43.3199C53.6148 43.17 53.5561 43.0035 53.4973 42.8203C53.4385 42.6371 53.4048 42.4207 53.346 42.2042C53.2149 41.6919 53.1167 41.1718 53.0521 40.6472C52.8475 39.2126 52.8645 37.7555 53.1025 36.326C53.4263 34.2278 54.1938 32.2212 55.3548 30.4376C56.5157 28.6541 58.0439 27.1339 59.8391 25.9767C62.7308 24.1677 66.1446 23.3569 69.5494 23.6704C69.9106 23.6704 70.2634 23.7786 70.6245 23.8369C70.9905 23.887 71.3526 23.9621 71.7081 24.0617C72.4303 24.248 73.1401 24.4788 73.8333 24.7528C74.5307 25.0547 75.207 25.4024 75.8577 25.7935C77.2022 26.5896 78.4054 27.5994 79.4192 28.7826C81.5454 31.215 82.8083 34.2714 83.0143 37.4833C83.1223 39.0337 82.9777 40.5912 82.5859 42.0959C82.4027 42.8277 82.1669 43.5456 81.8803 44.2441C81.5815 44.9243 81.2363 45.5835 80.8472 46.2173C80.4688 46.8365 80.0478 47.429 79.5872 47.9908C79.1241 48.5314 78.6275 49.0431 78.1004 49.5228C76.1031 51.3125 73.6625 52.5451 71.0278 53.0947C68.9338 53.5192 66.7731 53.5022 64.6862 53.0446C62.5994 52.587 60.633 51.6991 58.9151 50.4386C57.737 49.5816 56.6951 48.5544 55.824 47.3913C55.4986 46.9725 55.2011 46.5331 54.9336 46.0758C54.816 45.876 54.6984 45.7011 54.606 45.5346L54.3708 45.06L54.0516 44.4189C53.976 44.269 53.934 44.2024 53.934 44.2024C53.9553 44.2797 53.9834 44.3549 54.018 44.4272L54.312 45.085L54.5304 45.5679C54.6228 45.7428 54.7404 45.9259 54.858 46.1257C55.1012 46.5942 55.3821 47.0425 55.698 47.4662C56.5598 48.6536 57.5994 49.7037 58.7807 50.5802C60.5144 51.8752 62.505 52.7918 64.6216 53.2697C66.7382 53.7475 68.9329 53.7758 71.0613 53.3528C73.7449 52.8043 76.2326 51.557 78.2684 49.7393C78.8115 49.2536 79.3221 48.7335 79.7972 48.1823C80.2662 47.6094 80.6955 47.0058 81.0824 46.3755C81.4799 45.7279 81.8334 45.0548 82.1407 44.3606C82.433 43.6484 82.6744 42.9167 82.8631 42.1709C83.2651 40.6366 83.4154 39.0483 83.3083 37.4667C83.1864 35.8386 82.8153 34.2383 82.208 32.7208C81.567 31.213 80.7005 29.8096 79.6376 28.5578C78.5984 27.3524 77.3703 26.3207 76.0005 25.5021C74.6904 24.6954 73.2582 24.1022 71.7585 23.7453C71.3973 23.6438 71.0297 23.566 70.6582 23.5122C70.2886 23.4622 69.919 23.3873 69.5578 23.354C68.8318 23.2877 68.1021 23.271 67.3738 23.3041C64.6334 23.4188 61.9739 24.2582 59.6711 25.7353C57.851 26.9083 56.3037 28.4521 55.132 30.2637C53.9603 32.0754 53.1912 34.1136 52.8757 36.2427C52.6467 37.6882 52.6467 39.1602 52.8757 40.6056C52.9419 41.1319 53.0486 41.6524 53.1949 42.1626C53.2537 42.3874 53.3041 42.5955 53.3629 42.787L53.5477 43.2782C53.6597 43.5613 53.7436 43.7861 53.7996 43.9526C53.8373 44.0548 53.8912 44.1504 53.9592 44.2357Z" fill="#1155CC" fill-opacity="0.3"/>
<g opacity="0.3">
<path opacity="0.3" d="M54.1359 44.3356C54.0891 43.7184 53.9794 43.1075 53.8083 42.5122C53.5004 40.8869 53.4494 39.224 53.6571 37.5832C53.9558 35.1735 54.844 32.8726 56.2442 30.8807C56.643 30.3107 57.0838 29.7709 57.563 29.2654C58.057 28.7349 58.5936 28.2448 59.1674 27.8001C59.7567 27.3319 60.3831 26.9114 61.0405 26.5428C61.7196 26.17 62.4241 25.8445 63.1489 25.5687C63.877 25.3058 64.6239 25.097 65.3833 24.9442C66.1227 24.7959 66.8724 24.704 67.626 24.6695C68.3549 24.6399 69.0849 24.665 69.81 24.7444C70.5072 24.8143 71.1979 24.9368 71.8763 25.1108C73.1369 25.4261 74.351 25.9019 75.4883 26.5262C76.4818 27.079 77.4113 27.7379 78.2602 28.4911C79.4986 29.6013 80.5581 30.8929 81.4018 32.3211C81.6677 32.881 81.9884 33.4137 82.3594 33.9114C82.305 33.2787 82.113 32.6651 81.7966 32.113C81.0766 30.5386 80.0683 29.1101 78.823 27.9C76.4101 25.5467 73.2795 24.0508 69.9192 23.6454C69.1389 23.5532 68.3527 23.5198 67.5672 23.5455C66.7547 23.5716 65.9456 23.6635 65.1481 23.8202C64.3249 23.9808 63.5159 24.2063 62.7289 24.4946C61.9469 24.7894 61.1887 25.1429 60.4609 25.552C59.7554 25.9491 59.0839 26.403 58.4534 26.9092C57.2592 27.8607 56.2146 28.9832 55.3538 30.2396C54.5867 31.3898 53.9766 32.6357 53.5395 33.9447C53.165 35.0841 52.9282 36.2636 52.8339 37.4583C52.6913 39.1828 52.8707 40.9187 53.3631 42.5788C53.4853 43.2142 53.7493 43.8144 54.1359 44.3356Z" fill="#1155CC"/>
</g>
<g opacity="0.3">
<path opacity="0.3" d="M69.9152 47.4993L70.8812 49.9388L73.082 49.1062L72.1412 46.7333C74.0732 45.9078 75.7344 44.5641 76.9375 42.8533L74.6696 40.6553C73.7533 42.0255 72.4905 43.1337 71.0072 43.8691L69.5708 40.2223C71.78 38.682 74.1908 36.817 72.9308 33.6947C72.0152 31.38 69.5288 30.0562 65.9001 31.0137L64.9341 28.5908L62.7334 29.4234L63.6657 31.8047C62.1254 32.5009 60.7748 33.5513 59.7262 34.8687L61.885 37.125C62.6867 36.128 63.6804 35.2987 64.8081 34.6855L66.2781 38.3906C64.0605 39.9142 61.6918 41.7626 62.9182 44.8433C63.8086 47.108 66.2613 48.4568 69.9152 47.4993ZM68.2353 36.9918L67.0089 33.8945C68.2857 33.703 68.9997 34.1526 69.2852 34.877C69.5708 35.6014 69.0752 36.3091 68.2353 36.9918ZM66.5553 43.7276C66.2529 42.9616 66.7317 42.2955 67.5465 41.6044L68.7393 44.6101C67.5465 44.8016 66.8325 44.427 66.5553 43.7276Z" fill="#1155CC"/>
</g>
<path d="M122.634 29.3073C122.1 35.6152 123.465 41.9385 126.559 47.4765C129.652 53.0145 134.334 57.5179 140.012 60.4164C145.689 63.3149 152.107 64.4781 158.452 63.7587C164.797 63.0393 170.783 60.4696 175.654 56.3752C180.524 52.2807 184.059 46.8456 185.811 40.7583C187.563 34.671 187.453 28.2052 185.495 22.18C183.537 16.1547 179.819 10.841 174.812 6.91174C169.805 2.98252 163.734 0.614584 157.368 0.10782C153.153 -0.236487 148.911 0.245746 144.884 1.52697C140.857 2.8082 137.124 4.86332 133.898 7.57491C130.673 10.2865 128.018 13.6014 126.085 17.3304C124.152 21.0593 122.98 25.1291 122.634 29.3073Z" fill="#1155CC" fill-opacity="0.2"/>
<path d="M130.291 29.9074C129.883 34.714 130.923 39.5326 133.279 43.7529C135.636 47.9733 139.203 51.4055 143.529 53.615C147.855 55.8245 152.745 56.7118 157.58 56.1647C162.415 55.6175 166.977 53.6604 170.689 50.5413C174.401 47.4222 177.096 43.2813 178.432 38.643C179.768 34.0048 179.686 29.0778 178.195 24.4861C176.704 19.8944 173.872 15.8444 170.058 12.8491C166.243 9.85385 161.618 8.04797 156.767 7.66017C153.555 7.39679 150.322 7.76338 147.252 8.73902C144.183 9.71465 141.337 11.2802 138.879 13.3462C136.42 15.4122 134.396 17.9382 132.922 20.7799C131.449 23.6215 130.555 26.7231 130.291 29.9074Z" fill="#1155CC" fill-opacity="0.2"/>
<path d="M130.284 29.9064C130.327 29.7822 130.355 29.6538 130.368 29.5234C130.408 29.2403 130.466 28.8573 130.545 28.3744C130.545 28.1246 130.62 27.8415 130.671 27.5418C130.721 27.242 130.822 26.909 130.906 26.551C131.087 25.7025 131.328 24.8678 131.628 24.0532C132.391 21.8404 133.487 19.7548 134.879 17.8669C136.897 15.0842 139.485 12.7556 142.475 11.0337C145.464 9.31188 148.787 8.23567 152.225 7.87564C156.554 7.44139 160.923 8.15393 164.883 9.94049C165.936 10.4277 166.955 10.984 167.933 11.6057C168.42 11.9221 168.882 12.2801 169.369 12.6132C169.859 12.9497 170.322 13.3227 170.755 13.7288C171.662 14.5065 172.517 15.3409 173.317 16.2267C174.1 17.1655 174.819 18.1558 175.467 19.1907C176.813 21.3121 177.806 23.6342 178.407 26.0681C179.008 28.575 179.223 31.1574 179.046 33.728C178.814 36.3056 178.185 38.8327 177.181 41.2215C176.203 43.5334 174.849 45.6709 173.174 47.5493C172.368 48.4716 171.498 49.3368 170.57 50.1387C169.638 50.899 168.656 51.5971 167.63 52.2285C166.631 52.8584 165.587 53.415 164.505 53.8937C163.441 54.3425 162.346 54.718 161.23 55.0177C155.777 56.5024 149.974 56.0695 144.808 53.7927C139.641 51.5158 135.429 47.5356 132.888 42.5287C131.812 40.4337 131.067 38.1872 130.679 35.8678C130.509 35.0445 130.402 34.2095 130.36 33.37C130.36 33.0037 130.293 32.6623 130.284 32.3542C130.276 32.0462 130.284 31.7547 130.284 31.5216C130.284 31.0304 130.284 30.6474 130.284 30.3643C130.297 30.2314 130.297 30.0975 130.284 29.9646C130.276 30.0949 130.276 30.2257 130.284 30.356C130.284 30.6474 130.284 31.0304 130.226 31.5133C130.226 31.7714 130.226 32.0545 130.184 32.3459C130.142 32.6373 130.184 33.0037 130.242 33.3783C130.268 34.2358 130.358 35.0902 130.511 35.9344C130.875 38.2678 131.6 40.5314 132.662 42.6452C134.203 45.767 136.397 48.5279 139.098 50.7444C141.8 52.9608 144.945 54.5822 148.327 55.5006C153.771 56.9348 159.541 56.5365 164.732 54.3683C165.834 53.8877 166.901 53.3313 167.924 52.7031C170.066 51.4329 171.982 49.8209 173.594 47.9323C175.299 46.0118 176.683 43.8333 177.693 41.4796C179.81 36.5854 180.235 31.135 178.903 25.9765C178.294 23.4896 177.279 21.1185 175.896 18.9576C175.235 17.8998 174.5 16.8899 173.695 15.9353C172.881 15.02 172.005 14.1605 171.074 13.3625C170.633 12.9507 170.161 12.5722 169.663 12.2302C169.167 11.8888 168.697 11.5224 168.193 11.2061C167.197 10.5764 166.155 10.0198 165.077 9.54085C161.04 7.72877 156.589 7.01876 152.183 7.48431C148.695 7.85589 145.328 8.95906 142.304 10.7205C139.28 12.482 136.669 14.8613 134.644 17.7004C133.256 19.619 132.176 21.7397 131.444 23.9865C131.15 24.7998 130.922 25.635 130.763 26.4844C130.679 26.8424 130.595 27.1837 130.536 27.4918C130.478 27.7999 130.469 28.083 130.444 28.3244C130.385 28.8073 130.343 29.157 130.31 29.4734C130.288 29.6166 130.279 29.7616 130.284 29.9064Z" fill="#1155CC" fill-opacity="0.3"/>
<g opacity="0.3">
<path opacity="0.3" d="M130.463 30.1817C130.606 30.1817 130.799 29.1409 131.303 27.3092C132.061 24.7483 133.208 22.317 134.705 20.0988C135.742 18.5886 136.939 17.1929 138.275 15.9358C139.816 14.5187 141.532 13.3016 143.382 12.314C145.419 11.2315 147.604 10.4463 149.867 9.98267C151.061 9.7423 152.271 9.592 153.487 9.53306C154.74 9.4837 155.995 9.52545 157.242 9.65795C158.487 9.80027 159.72 10.034 160.93 10.3573C162.103 10.6867 163.251 11.0985 164.365 11.5896C165.441 12.0632 166.477 12.62 167.465 13.2548C168.417 13.8569 169.321 14.5305 170.17 15.2697C171.768 16.6334 173.18 18.1981 174.369 19.924C175.384 21.4412 176.229 23.0632 176.889 24.7614C177.845 27.2539 178.411 29.8762 178.569 32.5379C178.687 34.4363 178.637 35.5103 178.788 35.527C178.939 35.5436 179.191 34.4862 179.3 32.5296C179.412 29.7377 179.005 26.9492 178.099 24.3035C176.758 20.341 174.408 16.7881 171.278 13.9875C170.381 13.173 169.42 12.4297 168.406 11.7644C167.351 11.0621 166.241 10.444 165.088 9.91606C163.895 9.36489 162.659 8.91101 161.392 8.55891C160.088 8.20586 158.76 7.94707 157.419 7.78459C156.071 7.64643 154.715 7.60747 153.361 7.66803C152.048 7.7373 150.742 7.90991 149.455 8.18424C148.216 8.44385 146.999 8.80306 145.818 9.2583C144.678 9.68389 143.574 10.199 142.517 10.7986C138.834 12.8378 135.749 15.79 133.563 19.3661C132.091 21.7453 131.075 24.3731 130.564 27.1177C130.295 29.0826 130.354 30.14 130.463 30.1817Z" fill="#1155CC"/>
</g>
<g opacity="0.3">
<path opacity="0.3" d="M150.857 46.1007L150.445 50.322L154.259 50.6717L154.645 46.567C158.442 46.7002 162.205 45.8676 164.414 44.4438L162.734 39.648C160.407 40.9586 157.775 41.6445 155.099 41.6379L155.695 35.3434C160.021 34.719 164.876 33.7698 165.388 28.3829C165.775 24.3864 163.171 20.6896 157.224 19.449L157.619 15.286L153.813 14.928L153.419 19.041C150.682 18.9345 147.958 19.4738 145.472 20.6147L146.934 25.4271C148.823 24.5617 150.868 24.0804 152.948 24.0117L152.335 30.4144C148.009 30.9972 143.23 31.9547 142.726 37.2668C142.373 41.1634 144.943 44.8268 150.857 46.1007ZM156.249 29.8066L156.77 24.453C158.744 25.0941 159.433 26.2681 159.29 27.5086C159.147 28.7492 157.98 29.432 156.249 29.8066ZM148.832 38.2742C148.958 36.9504 150.134 36.3426 151.823 35.9263L151.327 41.13C149.462 40.5306 148.723 39.4732 148.832 38.2742Z" fill="#1155CC"/>
</g>
</svg>
