<svg width="640" height="470" viewBox="0 0 640 470" fill="none" xmlns="http://www.w3.org/2000/svg">
<g filter="url(#filter0_d_2244_528)">
<path fill-rule="evenodd" clip-rule="evenodd" d="M556.176 84.0048C561.049 77.6839 564.348 69.9376 563.796 61.2576C562.209 36.2481 530.704 41.7499 524.576 54.3725C518.448 66.9951 519.176 99.0135 527.096 101.269C530.255 102.169 536.983 99.9653 543.832 95.4039L539.533 129.009H564.914L556.176 84.0048Z" fill="url(#paint0_radial_2244_528)"/>
<path fill-rule="evenodd" clip-rule="evenodd" d="M574.863 52.9325C575.683 52.0348 576.13 50.7534 576.517 49.5367C576.919 48.2728 577.309 46.9958 577.576 45.6803C578.109 43.0518 578.114 40.0289 576.417 37.9878C575.056 36.3511 573.014 35.617 571.129 35.4574C569.874 35.351 568.584 35.5454 567.381 35.9826C566.187 36.4163 565.157 37.2808 564 37.8174C563.955 34.9847 563.516 32.0208 562.216 29.6022C560.964 27.2751 558.969 25.9692 556.697 25.6237C554.365 25.2691 552.062 25.8722 549.974 27.1198C549.452 27.4323 548.934 27.7596 548.438 28.1301C548.023 28.4404 547.592 28.814 547.105 28.9402C546.562 29.081 546.293 28.7346 545.94 28.297C545.527 27.7839 545.061 27.3321 544.568 26.9314C542.387 25.1604 539.527 24.4322 537.001 25.4938C535.837 25.9829 534.705 26.8135 533.915 27.9581C533.211 28.9784 532.709 30.5969 531.738 31.3078C531.326 31.6095 531.035 31.2097 530.659 30.9143C530.095 30.4703 529.558 29.9804 528.987 29.5485C528.186 28.9417 527.318 28.4878 526.389 28.2503C525.028 27.9024 523.148 27.984 522.759 29.9529C522.613 30.6925 522.725 31.4835 522.772 32.2286C522.837 33.2518 522.905 34.2747 522.985 35.2964C523.046 36.0721 523.123 36.8214 523.256 37.5832C523.326 37.9892 523.548 38.7463 523.39 39.1529C523.193 39.6612 522.284 39.3722 521.896 39.3899C521.129 39.4249 520.359 39.5735 519.65 39.9356C519.1 40.2163 518.522 40.6292 518.29 41.3253C518.148 41.7528 518.185 42.1921 518.253 42.632C518.334 43.1599 518.241 43.4399 518.181 43.9726C517.151 43.4121 513.581 42.1668 513.132 44.2067C512.983 44.8859 513.323 45.6534 513.583 46.2263C514.039 47.231 514.636 48.1493 515.247 49.025C516.521 50.852 518.041 52.4278 519.678 53.7754C517.761 54.7172 517.26 57.4952 518.92 59.1503C519.653 59.8811 520.638 60.0437 521.563 59.997C521.901 59.9799 522.389 59.8362 522.655 59.9013C522.798 59.9363 522.952 60.0705 523.15 60.0855C524.455 60.1842 525.927 59.8369 527.203 59.517C529.475 58.9469 531.627 57.7572 533.384 55.9452C533.834 55.4804 534.207 55.2129 534.813 55.2197C535.345 55.2257 535.866 55.3867 536.397 55.4016C537.802 55.4412 539.069 54.6821 540.374 54.1769C540.454 56.1248 540.956 58.2701 541.677 60.0226C542.265 61.4516 543.493 61.6593 544.7 61.7847C548.558 62.1859 552.43 61.7382 556.294 61.7441C552.554 62.6782 548.689 63.0632 544.983 64.1625C543.307 64.6593 544.587 65.9071 545.303 66.7722C546.483 68.1967 547.36 69.9617 547.968 71.8211C549.798 69.1858 553.031 67.4494 555.896 68.259C559.062 69.1534 561.291 73.8838 559.266 77.2846C558.091 79.2588 555.969 80.0209 554.203 80.8691C555.581 82.4518 555.914 84.7892 556.743 86.7582C557.152 87.7292 557.726 88.827 558.641 89.1654C558.979 89.2907 559.376 89.3014 559.643 89.6062C559.973 89.9835 560.052 90.4054 560.474 90.7297C562.159 92.0242 564.791 91.9245 566.285 90.2352C567.635 88.7074 567.284 86.2898 566.156 84.7409C567.951 83.9138 571.222 82.8502 570.509 79.759C574.399 79.4736 583.846 72.5008 578.624 67.4056C581.49 65.6158 584.122 61.2418 582.282 57.3861C580.864 54.4171 577.568 53.0899 574.863 52.9325Z" fill="url(#paint1_radial_2244_528)"/>
<g opacity="0.8">
<path fill-rule="evenodd" clip-rule="evenodd" d="M610.787 275.087H529.087L518.382 419.998H639.999L610.787 275.087Z" fill="url(#paint2_linear_2244_528)"/>
<path fill-rule="evenodd" clip-rule="evenodd" d="M610.787 275.087H585.66L570.62 419.998H639.999L610.787 275.087Z" fill="url(#paint3_linear_2244_528)"/>
</g>
<path fill-rule="evenodd" clip-rule="evenodd" d="M435.946 250.261C427.235 244.481 412.621 251.908 412.631 260.174C412.661 284.908 433.087 401.478 434.154 408.847C435.22 416.216 446.645 418.162 447.31 408.871C448.369 394.087 450.335 342.908 448.368 319.219C447.555 309.441 446.681 300.128 445.819 291.82C456.538 313.21 473.114 343.834 495.549 383.694L507.729 377.545C498.165 342.724 490.322 318.142 484.202 303.797C473.721 279.236 463.895 258.203 459.759 250.794C453.253 239.14 441.929 243.206 435.946 250.261Z" fill="url(#paint4_linear_2244_528)"/>
<path fill-rule="evenodd" clip-rule="evenodd" d="M506.855 358.208L465.053 248.779C455.039 230.977 426.962 252.401 430.377 262.726C438.13 286.166 477.561 362.051 479.871 369.035L506.855 358.208Z" fill="url(#paint5_radial_2244_528)"/>
<path fill-rule="evenodd" clip-rule="evenodd" d="M509.506 370.458C512.05 372.712 513.696 374.564 514.445 376.014C515.356 377.778 516.408 380.531 517.601 384.274C515.668 385.521 498.292 396.735 465.474 417.913C461.67 414.048 461.131 410.984 463.854 408.723C466.577 406.462 468.825 404.556 470.598 403.006L488.921 375.939C489.274 375.418 489.935 375.287 490.398 375.646C490.406 375.652 490.413 375.659 490.421 375.665L494.044 378.658C497.435 378.249 499.975 377.499 501.664 376.409C503.037 375.523 504.629 373.714 506.441 370.98C507.136 369.931 508.456 369.654 509.389 370.362C509.429 370.392 509.468 370.424 509.506 370.458Z" fill="white"/>
<path fill-rule="evenodd" clip-rule="evenodd" d="M449.985 402.939C451.168 406.429 451.76 409.04 451.76 410.773C451.76 412.88 451.442 415.956 450.807 419.999C448.594 419.999 428.712 419.999 391.159 419.999C389.609 414.336 390.504 411.279 393.844 410.827C397.183 410.376 399.957 409.968 402.166 409.604L429.89 395.947C430.423 395.684 431.048 395.949 431.286 396.538C431.29 396.548 431.294 396.559 431.298 396.569L433.08 401.346C436.172 402.94 438.684 403.737 440.617 403.737C442.187 403.737 444.356 403.036 447.123 401.634L447.123 401.634C448.185 401.096 449.44 401.611 449.927 402.785C449.948 402.835 449.967 402.887 449.985 402.939Z" fill="white"/>
<path fill-rule="evenodd" clip-rule="evenodd" d="M409.7 268.582C409.7 299.63 423.043 372.051 423.051 378.887L451.759 378.911C448.579 314.527 446.067 281.633 447.289 280.936C449.122 279.892 522.428 289.024 544.414 289.024C576.118 289.024 589.233 266.932 590.297 226.005H527.493C514.706 227.517 448.006 242.384 423.235 247.495C412.63 249.683 409.7 260.03 409.7 268.582Z" fill="url(#paint6_radial_2244_528)"/>
<path fill-rule="evenodd" clip-rule="evenodd" d="M517.711 153.199L481.004 130.983C474.9 122.972 468.885 116.751 462.961 112.319C461.151 111.484 457.985 110.979 460.945 116.786C463.906 122.592 466.784 128.847 465.276 130.636C463.767 132.425 460.006 129.926 458.207 132.899C457.007 134.88 463.433 138.011 477.483 142.29L504.156 169.276L517.711 153.199Z" fill="url(#paint7_radial_2244_528)"/>
<path fill-rule="evenodd" clip-rule="evenodd" d="M460.221 171.943L444.097 162.155C441.834 152.642 439.13 147.856 435.984 147.796C433.566 146.553 437.776 158.574 433.194 157.532C428.612 156.489 417.428 147.298 415.501 149.164C412.65 151.925 415.192 160.403 418.187 164.62C423.785 172.502 428.42 175.197 439.875 178.727C445.865 180.572 452.341 184.271 459.303 189.824L460.221 171.943Z" fill="url(#paint8_radial_2244_528)"/>
<path fill-rule="evenodd" clip-rule="evenodd" d="M535.586 148.251C522.729 148.1 505.584 145.1 487.29 132.268L480.105 149.972C492.724 163.811 510.467 175.181 525.981 174.7C538.207 174.32 544.456 157.978 535.586 148.251Z" fill="url(#paint9_radial_2244_528)"/>
<path fill-rule="evenodd" clip-rule="evenodd" d="M518.274 176.643C504.625 180.405 481.735 175.969 449.606 163.335C441.637 181.554 437.953 194.543 438.554 202.302C466.116 218.211 489.739 225.305 509.201 225.773C508.583 238.535 509.989 250.677 514.711 261.772C524.418 284.582 581.261 263.458 600.373 267.616C612.341 224.663 589.2 207.207 589.181 179.723C589.161 149.625 567.291 103.298 564.073 103.298H534.73C533.111 126.284 524.962 151.616 518.274 176.643Z" fill="url(#paint10_radial_2244_528)"/>
</g>
<g filter="url(#filter1_d_2244_528)">
<path fill-rule="evenodd" clip-rule="evenodd" d="M178.149 84.7047C173.299 78.3847 170.017 70.6395 170.565 61.9607C172.146 36.9547 203.499 42.4557 209.597 55.0766C215.696 67.6975 214.972 99.7113 207.089 101.967C203.946 102.867 197.25 100.663 190.434 96.1023L194.712 129.703H169.453L178.149 84.7047Z" fill="url(#paint11_radial_2244_528)"/>
<path fill-rule="evenodd" clip-rule="evenodd" d="M195.2 40.5289C191.871 39.9228 182.907 39.5061 181.254 39.5064C180.198 39.5064 179.053 39.7743 178.427 38.6974C177.915 37.8156 178.103 36.3241 177.95 35.3007C177.772 34.1119 177.52 32.9384 177.265 31.7679C176.539 28.4371 175.441 25.2683 173.905 22.2931C171.023 16.7114 166.801 12.3392 161.471 9.79509C155.586 6.98594 148.925 6.3427 142.594 6.91249C135.819 7.5221 129.686 10.0052 123.289 12.3419C117.194 14.5687 110.809 15.4451 104.434 14.3577C98.01 13.2623 93.1564 9.39693 87.7382 5.72825C82.1915 1.9724 75.8528 -0.484059 69.2956 0.0806232C63.1747 0.607911 57.5334 3.41383 52.472 7.16215C47.7365 10.6691 43.8291 14.8885 41.6231 20.827C39.2499 27.2149 39.2521 34.2268 43.1547 39.8723C48.8113 48.0554 59.3125 50.1716 68.0491 49.9612C73.1025 49.8399 78.0655 48.8157 82.8365 46.9527C89.1992 44.468 94.6976 40.2567 100.65 36.8398C103.444 35.2364 106.331 33.9196 109.358 32.971C112.295 32.0501 115.188 31.6277 117.847 33.5975C120.66 35.6814 123.181 37.7284 126.399 39.0329C129.486 40.2844 132.756 40.9844 136.045 40.9562C142.445 40.9013 148.754 38.6875 154.969 37.2046C160.038 35.9956 165.461 34.7907 170.628 35.9528C172.785 36.4379 175.934 37.4392 176.713 39.9271C163.605 42.5647 158.457 60.5624 162.152 73.7744C164.147 80.9054 176.135 89.2415 180.797 85.4926C183.75 83.1176 181.957 79.9996 180.797 77.9413C178.575 73.9996 177.815 68.9363 181.926 66.192C185.473 63.8251 189.201 69.4458 189.272 69.4396C190.247 69.3543 198.669 64.0659 204.472 56.3488C210.197 56.7256 211.065 52.5348 209.698 49.1075C208.332 45.6802 199.8 41.367 195.2 40.5289Z" fill="url(#paint12_radial_2244_528)"/>
<g opacity="0.8">
<path d="M158.93 430C203.687 430 239.969 391.549 239.969 344.117C239.969 296.685 203.687 258.234 158.93 258.234C114.173 258.234 77.8906 296.685 77.8906 344.117C77.8906 391.549 114.173 430 158.93 430Z" fill="url(#paint13_radial_2244_528)"/>
</g>
<path fill-rule="evenodd" clip-rule="evenodd" d="M312.069 416.75C298.584 383.614 288.832 354.761 284.918 339.537C278.215 313.472 273.116 290.535 271.828 281.97C268.755 261.544 295.468 260.355 298.999 270.506C304.343 285.87 313.673 336.35 324.883 412.599L312.069 416.75Z" fill="url(#paint14_radial_2244_528)"/>
<path fill-rule="evenodd" clip-rule="evenodd" d="M155.654 312.76C168.026 307.33 211.354 290.338 232.251 285.532C238.255 284.15 244.076 282.867 249.548 281.707C265.812 278.26 274.239 310.836 258.574 313.34C219.562 319.573 164.257 326.01 159.524 326.733C152.891 327.745 147.878 316.172 155.654 312.76Z" fill="url(#paint15_radial_2244_528)"/>
<path fill-rule="evenodd" clip-rule="evenodd" d="M259.53 272.742L192.607 234.919V226.685H200.566C265.311 245.002 298.396 256.74 299.82 261.9C299.835 261.956 299.849 262.012 299.862 262.067C299.895 262.115 299.927 262.162 299.958 262.211C312.789 281.802 320.474 377.45 322.996 384.612L298.409 388.684C289.004 349.963 258.912 322.989 259.712 276.613C259.496 275.253 259.441 273.962 259.53 272.742Z" fill="url(#paint16_radial_2244_528)"/>
<path fill-rule="evenodd" clip-rule="evenodd" d="M198.167 295.205C192.044 293.844 186.405 292.63 181.58 291.69C150.413 285.621 141.324 267.098 146.698 226.685H204.123C213.503 229.677 262.252 252.374 287.546 264.446C304.286 272.436 299.009 301.239 289.529 308.735C289.477 309.195 289.307 309.507 289.003 309.647C238.007 333.113 197.664 320.8 184.187 324.735L177.953 302.903L198.167 295.205Z" fill="url(#paint17_radial_2244_528)"/>
<path fill-rule="evenodd" clip-rule="evenodd" d="M160.356 309.467C156.927 309.933 154.487 310.569 153.034 311.377C151.267 312.36 148.824 314.106 145.705 316.615C146.645 318.788 155.093 338.314 171.048 375.193C176.454 374.075 178.637 371.771 177.597 368.28C176.556 364.79 175.719 361.876 175.086 359.537L174.756 325.942C174.75 325.296 174.262 324.805 173.667 324.847C173.657 324.847 173.646 324.848 173.636 324.849L168.874 325.326C166.224 323.033 164.489 320.938 163.668 319.04C163 317.497 162.666 315.041 162.666 311.67C162.666 310.376 161.7 309.383 160.51 309.452C160.458 309.455 160.407 309.46 160.356 309.467Z" fill="white"/>
<path fill-rule="evenodd" clip-rule="evenodd" d="M305.932 410.605C304.755 414.095 304.166 416.706 304.166 418.438C304.166 420.546 304.482 423.62 305.115 427.663C307.316 427.663 327.103 427.663 364.475 427.663C366.018 422.001 365.127 418.944 361.804 418.493C358.48 418.041 355.719 417.634 353.521 417.27L325.931 403.614C325.4 403.351 324.778 403.616 324.541 404.206C324.537 404.216 324.533 404.226 324.529 404.236L322.756 409.012C319.679 410.606 317.179 411.403 315.255 411.403C313.693 411.403 311.534 410.702 308.781 409.301L308.781 409.301C307.724 408.763 306.474 409.278 305.99 410.451C305.969 410.502 305.95 410.553 305.932 410.605Z" fill="white"/>
<path fill-rule="evenodd" clip-rule="evenodd" d="M103.682 199.809L125.248 204.56C103.559 249.436 91.9279 273.22 90.3541 275.912C86.8129 281.971 90.1169 293.074 91.3374 298.921C83.6808 300.899 86.7003 288.105 77.0111 290.776C68.1673 293.215 60.6688 299.472 52.4222 291.033C51.4084 289.995 50.6662 286.752 54.1229 285.089C62.735 280.945 75.4586 273.185 77.5218 270.173C80.3352 266.064 89.0552 242.61 103.682 199.809Z" fill="url(#paint18_radial_2244_528)"/>
<path fill-rule="evenodd" clip-rule="evenodd" d="M257.857 194.688L295.993 176.095C302.673 168.704 309.124 163.086 315.346 159.243C317.206 158.585 320.384 158.386 316.993 163.885C313.602 169.384 310.258 175.337 311.613 177.264C312.968 179.192 316.893 177.064 318.444 180.198C319.477 182.288 312.861 184.787 298.595 187.696L270.034 212.008L257.857 194.688Z" fill="url(#paint19_radial_2244_528)"/>
<path fill-rule="evenodd" clip-rule="evenodd" d="M183.866 110.224L192.966 108.491C212.789 129.839 220.878 181.128 234.088 187.917C246.578 194.335 264.283 188.124 285.328 179.737L291.773 195.725C272.651 218.692 231.915 238.096 215.403 227.019C189.003 209.308 182.909 146.052 183.866 110.224Z" fill="url(#paint20_linear_2244_528)"/>
<path fill-rule="evenodd" clip-rule="evenodd" d="M144.191 237.201C180.682 237.201 207.524 237.201 224.717 237.201C228.396 237.201 227.703 231.302 227.171 228.325C221.032 193.971 197.068 156.94 197.068 108.038L173.841 103.994C154.629 138.299 147.985 180.535 144.191 237.201Z" fill="url(#paint21_linear_2244_528)"/>
<path fill-rule="evenodd" clip-rule="evenodd" d="M136.162 202.419C119.746 235.293 105.948 258.962 94.7674 273.423L77.8887 269.753C88.7612 194.891 120.247 139.638 172.345 103.994H176.537L181.542 103.994C202.393 182.91 208.142 235.491 198.787 261.739H126.302C127.449 242.533 131.126 222.222 136.162 202.419Z" fill="url(#paint22_linear_2244_528)"/>
</g>
<defs>
<filter id="filter0_d_2244_528" x="350.422" y="25" width="289.577" height="434.999" filterUnits="userSpaceOnUse" color-interpolation-filters="sRGB">
<feFlood flood-opacity="0" result="BackgroundImageFix"/>
<feColorMatrix in="SourceAlpha" type="matrix" values="0 0 0 0 0 0 0 0 0 0 0 0 0 0 0 0 0 0 127 0" result="hardAlpha"/>
<feOffset dx="-20" dy="20"/>
<feGaussianBlur stdDeviation="10"/>
<feComposite in2="hardAlpha" operator="out"/>
<feColorMatrix type="matrix" values="0 0 0 0 0 0 0 0 0 0 0 0 0 0 0 0 0 0 0.08 0"/>
<feBlend mode="normal" in2="BackgroundImageFix" result="effect1_dropShadow_2244_528"/>
<feBlend mode="normal" in="SourceGraphic" in2="effect1_dropShadow_2244_528" result="shape"/>
</filter>
<filter id="filter1_d_2244_528" x="0" y="0" width="365.209" height="470" filterUnits="userSpaceOnUse" color-interpolation-filters="sRGB">
<feFlood flood-opacity="0" result="BackgroundImageFix"/>
<feColorMatrix in="SourceAlpha" type="matrix" values="0 0 0 0 0 0 0 0 0 0 0 0 0 0 0 0 0 0 127 0" result="hardAlpha"/>
<feOffset dx="-20" dy="20"/>
<feGaussianBlur stdDeviation="10"/>
<feComposite in2="hardAlpha" operator="out"/>
<feColorMatrix type="matrix" values="0 0 0 0 0 0 0 0 0 0 0 0 0 0 0 0 0 0 0.08 0"/>
<feBlend mode="normal" in2="BackgroundImageFix" result="effect1_dropShadow_2244_528"/>
<feBlend mode="normal" in="SourceGraphic" in2="effect1_dropShadow_2244_528" result="shape"/>
</filter>
<radialGradient id="paint0_radial_2244_528" cx="0" cy="0" r="1" gradientTransform="matrix(-47.2687 -9.37499 -4.88107 24.202 566.89 93.7495)" gradientUnits="userSpaceOnUse">
<stop stop-color="#FFF0E2"/>
<stop offset="0.408875" stop-color="#EFC8A3"/>
<stop offset="0.807836" stop-color="#DBB38E"/>
</radialGradient>
<radialGradient id="paint1_radial_2244_528" cx="0" cy="0" r="1" gradientTransform="matrix(40.9662 23.125 -24.2308 42.213 529.706 55)" gradientUnits="userSpaceOnUse">
<stop stop-color="#151A24"/>
<stop offset="1" stop-color="#40434A"/>
</radialGradient>
<linearGradient id="paint2_linear_2244_528" x1="522.142" y1="378.123" x2="617.296" y2="387.02" gradientUnits="userSpaceOnUse">
<stop stop-color="#242424"/>
<stop offset="0.0001" stop-color="#1A202C"/>
<stop offset="0.610033" stop-color="#263652"/>
<stop offset="1" stop-color="#53627D"/>
</linearGradient>
<linearGradient id="paint3_linear_2244_528" x1="367.101" y1="343.123" x2="622.981" y2="347.572" gradientUnits="userSpaceOnUse">
<stop stop-color="#242424"/>
<stop offset="0.797812" stop-color="#263652"/>
<stop offset="1" stop-color="#53627D"/>
</linearGradient>
<linearGradient id="paint4_linear_2244_528" x1="498.824" y1="341.249" x2="395.007" y2="437.739" gradientUnits="userSpaceOnUse">
<stop stop-color="#DBB38E"/>
<stop offset="0.486052" stop-color="#EFC8A3"/>
<stop offset="0.96875" stop-color="#B28B67"/>
</linearGradient>
<radialGradient id="paint5_radial_2244_528" cx="0" cy="0" r="1" gradientTransform="matrix(-69.9576 -105.625 -33.3899 25.2111 500.713 340.624)" gradientUnits="userSpaceOnUse">
<stop stop-color="white"/>
<stop offset="1" stop-color="#D7DEE9"/>
</radialGradient>
<radialGradient id="paint6_radial_2244_528" cx="0" cy="0" r="1" gradientTransform="matrix(-167.646 88.7499 104.822 194.722 549.874 289.999)" gradientUnits="userSpaceOnUse">
<stop stop-color="white"/>
<stop offset="1" stop-color="#D7DEE9"/>
</radialGradient>
<radialGradient id="paint7_radial_2244_528" cx="0" cy="0" r="1" gradientTransform="matrix(-25.21 -42.5 -44.1156 25.7342 487.479 139.999)" gradientUnits="userSpaceOnUse">
<stop offset="0.123997" stop-color="#DBB38E"/>
<stop offset="0.505208" stop-color="#EFC8A3"/>
<stop offset="1" stop-color="#FFF0E2"/>
</radialGradient>
<radialGradient id="paint8_radial_2244_528" cx="0" cy="0" r="1" gradientTransform="matrix(-38.4452 -15.625 -17.0516 41.2593 437.059 168.749)" gradientUnits="userSpaceOnUse">
<stop stop-color="#DBB38E"/>
<stop offset="0.489583" stop-color="#EFC8A3"/>
<stop offset="1" stop-color="#FFF0E2"/>
</radialGradient>
<radialGradient id="paint9_radial_2244_528" cx="0" cy="0" r="1" gradientTransform="matrix(50.4199 27.5 49.295 -82.2308 492.52 146.25)" gradientUnits="userSpaceOnUse">
<stop stop-color="#0E3B8B"/>
<stop offset="0.552083" stop-color="#1155CC"/>
<stop offset="1" stop-color="#3881FF"/>
</radialGradient>
<radialGradient id="paint10_radial_2244_528" cx="0" cy="0" r="1" gradientTransform="matrix(114.075 93.1249 90.9572 -109.571 471.722 157.499)" gradientUnits="userSpaceOnUse">
<stop stop-color="#0E3B8B"/>
<stop offset="0.526042" stop-color="#1155CC"/>
<stop offset="1" stop-color="#3881FF"/>
</radialGradient>
<radialGradient id="paint11_radial_2244_528" cx="0" cy="0" r="1" gradientTransform="matrix(23.9495 92.4999 -47.935 12.2051 179.917 85.6257)" gradientUnits="userSpaceOnUse">
<stop stop-color="#DBB38E"/>
<stop offset="0.484375" stop-color="#EFC8A3"/>
<stop offset="1" stop-color="#FFF0E2"/>
</radialGradient>
<radialGradient id="paint12_radial_2244_528" cx="0" cy="0" r="1" gradientTransform="matrix(158.193 44.375 -87.4258 306.494 62.0612 15.625)" gradientUnits="userSpaceOnUse">
<stop stop-color="#151A24"/>
<stop offset="0.776042" stop-color="#40434A"/>
</radialGradient>
<radialGradient id="paint13_radial_2244_528" cx="0" cy="0" r="1" gradientTransform="matrix(143.077 54.8935 -51.7562 132.731 110.385 329.362)" gradientUnits="userSpaceOnUse">
<stop stop-color="#1A202C"/>
<stop offset="0.458288" stop-color="#263652"/>
<stop offset="0.950921" stop-color="#53627D"/>
</radialGradient>
<radialGradient id="paint14_radial_2244_528" cx="0" cy="0" r="1" gradientTransform="matrix(124.789 48.75 -17.0413 42.8985 220.254 373.126)" gradientUnits="userSpaceOnUse">
<stop stop-color="#DBB38E"/>
<stop offset="0.510417" stop-color="#EFC8A3"/>
<stop offset="1" stop-color="#FFF0E2"/>
</radialGradient>
<radialGradient id="paint15_radial_2244_528" cx="0" cy="0" r="1" gradientTransform="matrix(107.142 36.25 -92.0852 267.657 142.735 296.876)" gradientUnits="userSpaceOnUse">
<stop stop-color="#DBB38E"/>
<stop offset="0.365446" stop-color="#EFC8A3"/>
<stop offset="1" stop-color="#FFF0E2"/>
</radialGradient>
<radialGradient id="paint16_radial_2244_528" cx="0" cy="0" r="1" gradientTransform="matrix(48.5292 99.9999 -80.487 38.4117 258.07 285.626)" gradientUnits="userSpaceOnUse">
<stop stop-color="#0E3B8B"/>
<stop offset="0.363486" stop-color="#1155CC"/>
<stop offset="1" stop-color="#3881FF"/>
</radialGradient>
<radialGradient id="paint17_radial_2244_528" cx="0" cy="0" r="1" gradientTransform="matrix(102.1 63.1249 -98.6068 156.844 184.962 261.876)" gradientUnits="userSpaceOnUse">
<stop stop-color="#0E3B8B"/>
<stop offset="0.437881" stop-color="#1155CC"/>
<stop offset="1" stop-color="#3881FF"/>
</radialGradient>
<radialGradient id="paint18_radial_2244_528" cx="0" cy="0" r="1" gradientTransform="matrix(54.2014 -49.375 36.6244 39.5375 59.5392 290.624)" gradientUnits="userSpaceOnUse">
<stop stop-color="#DBB38E"/>
<stop offset="0.515625" stop-color="#EFC8A3"/>
<stop offset="1" stop-color="#F5DEC8"/>
</radialGradient>
<radialGradient id="paint19_radial_2244_528" cx="0" cy="0" r="1" gradientUnits="userSpaceOnUse" gradientTransform="translate(277.604 185) scale(52.9409 59.5112)">
<stop stop-color="#DBB38E"/>
<stop offset="0.536458" stop-color="#EFC8A3"/>
<stop offset="1" stop-color="#FFEAD6"/>
</radialGradient>
<linearGradient id="paint20_linear_2244_528" x1="174.875" y1="180.625" x2="219.93" y2="156.192" gradientUnits="userSpaceOnUse">
<stop stop-color="#D7DEE9"/>
<stop offset="1" stop-color="white"/>
</linearGradient>
<linearGradient id="paint21_linear_2244_528" x1="186.219" y1="180" x2="221.439" y2="166.681" gradientUnits="userSpaceOnUse">
<stop stop-color="#8FB8FF"/>
<stop offset="0.515625" stop-color="#B0CDFF"/>
<stop offset="1" stop-color="#DEEAFF"/>
</linearGradient>
<linearGradient id="paint22_linear_2244_528" x1="173.615" y1="188.75" x2="77.8173" y2="188.75" gradientUnits="userSpaceOnUse">
<stop stop-color="white"/>
<stop offset="1" stop-color="#D7DEE9"/>
</linearGradient>
</defs>
</svg>
